SplineFontDB: 3.2
FontName: CSLSans-Italic
FullName: CSL Sans Italic
FamilyName: CSL Sans
Weight: Book
Copyright: Copyright (c) 2019 IBM Corp. with Reserved Font Name "Plex"\n\nCopyright (c) 2019 The HMI Sans Project Authors (https://github.com/somegoodpixels/hmi-sans)\nCopyright (c) 2021 The CSL Sans Project Authors (https://github.com/cssobral2013/CSL-Sans)\nThis Font Software is licensed under the SIL Open Font License, Version 1.1.\nThis license is copied below, and is also available with a FAQ at: http://scripts.sil.org/OFL.
Version: 2.001;January 31, 2022;FontCreator 14.0.0.2808 64-bit
ItalicAngle: -11.3
UnderlinePosition: -165
UnderlineWidth: 60
Ascent: 800
Descent: 200
InvalidEm: 0
sfntRevision: 0x00020041
LayerCount: 2
Layer: 0 1 "Back" 1
Layer: 1 1 "Fore" 0
XUID: [1021 651 537639564 21379]
StyleMap: 0x0001
FSType: 0
OS2Version: 4
OS2_WeightWidthSlopeOnly: 0
OS2_UseTypoMetrics: 0
CreationTime: 1550580410
ModificationTime: 1643660389
PfmFamily: 81
TTFWeight: 400
TTFWidth: 5
LineGap: 0
VLineGap: 0
Panose: 0 0 5 0 0 0 0 0 0 0
OS2TypoAscent: 1000
OS2TypoAOffset: 0
OS2TypoDescent: -220
OS2TypoDOffset: 0
OS2TypoLinegap: 0
OS2WinAscent: 1000
OS2WinAOffset: 0
OS2WinDescent: 220
OS2WinDOffset: 0
HheadAscent: 1000
HheadAOffset: 0
HheadDescent: -220
HheadDOffset: 0
OS2SubXSize: 650
OS2SubYSize: 600
OS2SubXOff: -15
OS2SubYOff: 75
OS2SupXSize: 650
OS2SupYSize: 600
OS2SupXOff: 70
OS2SupYOff: 350
OS2StrikeYSize: 60
OS2StrikeYPos: 309
OS2CapHeight: 698
OS2XHeight: 516
OS2Vendor: 'UKWN'
OS2CodePages: 2000019f.00000000
OS2UnicodeRanges: 20000287.10000013.00000000.00000000
Lookup: 258 0 0 "'kern' Kerning Horizontal lookup 0" { "'kern' Kerning Horizontal lookup 0 per glyph data 0"  "'kern' Kerning Horizontal lookup 0 kerning class 1"  "'kern' Kerning Horizontal lookup 0 kerning class 2"  "'kern' Kerning Horizontal lookup 0 kerning class 3"  } ['kern' ('DFLT' <'dflt' > 'cyrl' <'dflt' > 'grek' <'dflt' > 'latn' <'dflt' > ) ]
DEI: 91125

StartChar: .notdef
Encoding: 65536 -1 0
Width: 472
Flags: W
LayerCount: 2
Fore
SplineSet
440 0 m 1,0,-1
 440 780 l 1,1,-1
 32 780 l 1,2,-1
 32 0 l 1,3,-1
 440 0 l 1,0,-1
380 60 m 1,4,-1
 92 60 l 1,5,-1
 92 720 l 1,6,-1
 380 720 l 1,7,-1
 380 60 l 1,4,-1
EndSplineSet
EndChar

StartChar: exclam
Encoding: 33 33 2
Width: 271
GlyphClass: 1
Flags: W
LayerCount: 2
Fore
SplineSet
140 185 m 1,0,-1
 224 494 l 1,1,-1
 265 698 l 1,2,-1
 182 698 l 1,3,-1
 141 494 l 1,4,-1
 102 185 l 1,5,-1
 140 185 l 1,0,-1
88 -12 m 0,6,7
 145 -12 145 -12 153 43 c 0,8,9
 157 61 157 61 157 77 c 0,10,11
 157 117 157 117 108 117 c 2,12,-1
 106 117 l 2,13,14
 49 117 49 117 41 62 c 0,15,16
 37 46 37 46 37 28 c 0,17,18
 37 -12 37 -12 88 -12 c 0,6,7
EndSplineSet
EndChar

StartChar: quotedbl
Encoding: 34 34 3
Width: 409
GlyphClass: 7
Flags: W
LayerCount: 2
Fore
SplineSet
192 460 m 1,0,-1
 248 740 l 1,1,-1
 177 740 l 1,2,-1
 121 460 l 1,3,-1
 192 460 l 1,0,-1
368 460 m 1,4,-1
 424 740 l 1,5,-1
 353 740 l 1,6,-1
 297 460 l 1,7,-1
 368 460 l 1,4,-1
EndSplineSet
EndChar

StartChar: numbersign
Encoding: 35 35 4
Width: 681
GlyphClass: 5
Flags: W
LayerCount: 2
Fore
SplineSet
365 0 m 1,0,-1
 441 205 l 1,1,-1
 577 205 l 1,2,-1
 588 263 l 1,3,-1
 462 263 l 1,4,-1
 524 435 l 1,5,-1
 661 435 l 1,6,-1
 672 493 l 1,7,-1
 546 493 l 1,8,-1
 621 698 l 1,9,-1
 554 698 l 1,10,-1
 479 493 l 1,11,-1
 346 493 l 1,12,-1
 421 698 l 1,13,-1
 354 698 l 1,14,-1
 279 493 l 1,15,-1
 142 493 l 1,16,-1
 131 435 l 1,17,-1
 257 435 l 1,18,-1
 195 263 l 1,19,-1
 58 263 l 1,20,-1
 47 205 l 1,21,-1
 174 205 l 1,22,-1
 98 0 l 1,23,-1
 165 0 l 1,24,-1
 241 205 l 1,25,-1
 374 205 l 1,26,-1
 298 0 l 1,27,-1
 365 0 l 1,0,-1
395 263 m 1,28,-1
 262 263 l 1,29,-1
 324 435 l 1,30,-1
 457 435 l 1,31,-1
 395 263 l 1,28,-1
EndSplineSet
EndChar

StartChar: dollar
Encoding: 36 36 5
Width: 579
Flags: W
LayerCount: 2
Fore
SplineSet
200 69 m 1,0,1
 175 75 175 75 154 88 c 0,2,3
 108 113 108 113 72 162 c 1,4,-1
 10 110 l 1,5,6
 77 17 77 17 186 -5 c 1,7,-1
 170 -82 l 1,8,-1
 230 -82 l 1,9,-1
 244 -12 l 1,10,-1
 257 -12 l 2,11,12
 370 -12 370 -12 434 45 c 0,13,14
 488 94 488 94 496 171 c 0,15,16
 515 312 515 312 340 385 c 1,17,-1
 326 392 l 1,18,-1
 374 631 l 1,19,20
 402 625 402 625 424 613 c 0,21,22
 465 590 465 590 494 550 c 1,23,-1
 557 596 l 1,24,25
 496 685 496 685 389 705 c 1,26,-1
 404 780 l 1,27,-1
 344 780 l 1,28,-1
 330 710 l 1,29,-1
 326 710 l 2,30,31
 224 710 224 710 160 661 c 0,32,33
 109 622 109 622 98 557 c 0,34,35
 84 480 84 480 124 428 c 0,36,37
 165 374 165 374 254 335 c 1,38,-1
 200 69 l 1,0,1
271 416 m 1,39,40
 221 439 221 439 198 467 c 0,41,42
 172 498 172 498 180 545 c 0,43,44
 186 585 186 585 217 608 c 0,45,46
 253 635 253 635 315 636 c 1,47,-1
 271 416 l 1,39,40
309 310 m 1,48,49
 372 283 372 283 396 250 c 0,50,51
 414 226 414 226 414 194 c 2,52,-1
 414 192 l 2,53,54
 414 182 414 182 412 171 c 0,55,56
 406 127 406 127 375 98 c 0,57,58
 335 62 335 62 260 62 c 2,59,-1
 259 62 l 1,60,-1
 309 310 l 1,48,49
EndSplineSet
EndChar

StartChar: percent
Encoding: 37 37 6
Width: 900
Flags: W
LayerCount: 2
Fore
SplineSet
198 0 m 1,0,-1
 802 698 l 1,1,-1
 722 698 l 1,2,-1
 118 0 l 1,3,-1
 198 0 l 1,0,-1
227 314 m 0,4,5
 314 314 314 314 364.5 390.5 c 128,-1,6
 415 467 415 467 415 567 c 0,7,8
 415 635 415 635 382 672.5 c 128,-1,9
 349 710 349 710 290 710 c 0,10,11
 203 710 203 710 151 633 c 0,12,13
 102 555 102 555 102 457 c 0,14,15
 102 389 102 389 134.5 351.5 c 128,-1,16
 167 314 167 314 227 314 c 0,4,5
233 364 m 0,17,18
 169 364 169 364 168 439 c 0,19,20
 168 447 168 447 168.5 455.5 c 128,-1,21
 169 464 169 464 186 544 c 0,22,23
 210 660 210 660 284 660 c 0,24,25
 349 660 349 660 349 585 c 0,26,27
 349 577 349 577 348.5 568.5 c 128,-1,28
 348 560 348 560 331 480 c 0,29,30
 307 364 307 364 233 364 c 0,17,18
630 -12 m 0,31,32
 717 -12 717 -12 767.5 64.5 c 128,-1,33
 818 141 818 141 818 241 c 0,34,35
 818 309 818 309 785 346.5 c 128,-1,36
 752 384 752 384 693 384 c 0,37,38
 606 384 606 384 554 307 c 0,39,40
 505 229 505 229 505 131 c 0,41,42
 505 63 505 63 537.5 25.5 c 128,-1,43
 570 -12 570 -12 630 -12 c 0,31,32
636 38 m 0,44,45
 572 38 572 38 571 113 c 0,46,47
 571 121 571 121 571.5 129.5 c 128,-1,48
 572 138 572 138 589 218 c 0,49,50
 613 334 613 334 687 334 c 0,51,52
 752 334 752 334 752 259 c 0,53,54
 752 251 752 251 751.5 242.5 c 128,-1,55
 751 234 751 234 734 154 c 0,56,57
 710 38 710 38 636 38 c 0,44,45
EndSplineSet
EndChar

StartChar: ampersand
Encoding: 38 38 7
Width: 670
GlyphClass: 3
Flags: W
LayerCount: 2
Fore
SplineSet
214 -12 m 0,0,1
 340 -12 340 -12 433 85 c 1,2,-1
 494 0 l 1,3,-1
 580 0 l 1,4,-1
 477 144 l 1,5,6
 521 213 521 213 549 300 c 1,7,-1
 618 300 l 1,8,-1
 632 368 l 1,9,-1
 499 368 l 1,10,11
 478 279 478 279 436 201 c 1,12,-1
 322 361 l 1,13,14
 394 395 394 395 453 446 c 0,15,16
 514 504 514 504 514 579 c 0,17,18
 514 645 514 645 468.5 677.5 c 128,-1,19
 423 710 423 710 367 710 c 0,20,21
 280 710 280 710 225 649 c 0,22,23
 173 586 173 586 173 512 c 0,24,25
 173 444 173 444 221 379 c 1,26,27
 151 346 151 346 95 293 c 0,28,29
 37 234 37 234 37 151 c 0,30,31
 37 79 37 79 81.5 33.5 c 128,-1,32
 126 -12 126 -12 214 -12 c 0,0,1
287 410 m 1,33,34
 247 468 247 468 247 517 c 0,35,36
 247 531 247 531 250 546 c 0,37,38
 259 589 259 589 288 617 c 128,-1,39
 317 645 317 645 360 645 c 0,40,41
 394 645 394 645 416 624.5 c 128,-1,42
 438 604 438 604 438 566 c 0,43,44
 438 511 438 511 393 474.5 c 128,-1,45
 348 438 348 438 287 410 c 1,33,34
229 56 m 0,46,47
 117 56 117 56 114 163 c 0,48,49
 114 180 114 180 117 194 c 0,50,51
 128 243 128 243 165 274 c 128,-1,52
 202 305 202 305 256 330 c 1,53,-1
 394 139 l 1,54,55
 325 56 325 56 229 56 c 0,46,47
EndSplineSet
EndChar

StartChar: quotesingle
Encoding: 39 39 8
Width: 233
Flags: W
LayerCount: 2
Fore
SplineSet
192 460 m 1,0,-1
 248 740 l 1,1,-1
 177 740 l 1,2,-1
 121 460 l 1,3,-1
 192 460 l 1,0,-1
EndSplineSet
EndChar

StartChar: parenleft
Encoding: 40 40 9
Width: 328
Flags: W
LayerCount: 2
Fore
SplineSet
245 -137 m 1,0,1
 144 6 144 6 144 190 c 0,2,3
 144 240 144 240 153 283.5 c 128,-1,4
 162 327 162 327 170 369 c 0,5,6
 192 473 192 473 260.5 576.5 c 128,-1,7
 329 680 329 680 426 760 c 1,8,-1
 350 760 l 1,9,10
 240 675 240 675 160 531 c 0,11,12
 76 374 76 374 76 198 c 0,13,14
 76 89 76 89 105 4.5 c 128,-1,15
 134 -80 134 -80 178 -137 c 1,16,-1
 245 -137 l 1,0,1
EndSplineSet
EndChar

StartChar: parenright
Encoding: 41 41 10
Width: 328
GlyphClass: 3
Flags: W
LayerCount: 2
Fore
SplineSet
0 -137 m 1,0,1
 110 -52 110 -52 190 93 c 0,2,3
 274 248 274 248 274 425 c 0,4,5
 274 534 274 534 245 618.5 c 128,-1,6
 216 703 216 703 172 760 c 1,7,-1
 105 760 l 1,8,9
 206 618 206 618 206 433 c 0,10,11
 206 384 206 384 197.5 340.5 c 128,-1,12
 189 297 189 297 180 254 c 0,13,14
 158 150 158 150 89.5 46.5 c 128,-1,15
 21 -57 21 -57 -76 -137 c 1,16,-1
 0 -137 l 1,0,1
EndSplineSet
EndChar

StartChar: asterisk
Encoding: 42 42 11
Width: 452
Flags: W
LayerCount: 2
Fore
SplineSet
172 380 m 1,0,-1
 277 512 l 1,1,-1
 336 385 l 1,2,-1
 394 424 l 1,3,-1
 326 542 l 1,4,-1
 474 583 l 1,5,-1
 462 647 l 1,6,-1
 319 595 l 1,7,-1
 354 747 l 1,8,-1
 286 747 l 1,9,-1
 261 595 l 1,10,-1
 134 648 l 1,11,-1
 103 583 l 1,12,-1
 237 545 l 1,13,-1
 120 425 l 1,14,-1
 172 380 l 1,0,-1
EndSplineSet
EndChar

StartChar: plus
Encoding: 43 43 12
Width: 600
Flags: W
LayerCount: 2
Fore
SplineSet
298 62 m 1,0,-1
 340 272 l 1,1,-1
 528 272 l 1,2,-1
 541 338 l 1,3,-1
 354 338 l 1,4,-1
 396 548 l 1,5,-1
 323 548 l 1,6,-1
 281 338 l 1,7,-1
 91 338 l 1,8,-1
 78 272 l 1,9,-1
 267 272 l 1,10,-1
 225 62 l 1,11,-1
 298 62 l 1,0,-1
EndSplineSet
EndChar

StartChar: comma
Encoding: 44 44 13
Width: 273
GlyphClass: 3
Flags: W
LayerCount: 2
Fore
SplineSet
33 -133 m 1,0,1
 83 -94 83 -94 113 -44 c 0,2,3
 153 25 153 25 153 77 c 0,4,5
 153 117 153 117 104 117 c 0,6,7
 33 117 33 117 33 31 c 0,8,9
 33 3 33 3 66 -6 c 1,10,11
 38 -71 38 -71 -32 -133 c 1,12,-1
 33 -133 l 1,0,1
EndSplineSet
EndChar

StartChar: hyphen
Encoding: 45 45 14
Width: 387
Flags: W
LayerCount: 2
Fore
SplineSet
320 263 m 1,0,-1
 336 345 l 1,1,-1
 85 345 l 1,2,-1
 69 263 l 1,3,-1
 320 263 l 1,0,-1
EndSplineSet
EndChar

StartChar: period
Encoding: 46 46 15
Width: 273
Flags: W
LayerCount: 2
Fore
SplineSet
86 -12 m 0,0,1
 143 -12 143 -12 151 43 c 0,2,3
 155 61 155 61 155 77 c 0,4,5
 155 117 155 117 106 117 c 2,6,-1
 104 117 l 2,7,8
 47 117 47 117 39 62 c 0,9,10
 35 46 35 46 35 28 c 0,11,12
 35 -12 35 -12 86 -12 c 0,0,1
EndSplineSet
EndChar

StartChar: slash
Encoding: 47 47 16
Width: 378
GlyphClass: 3
Flags: W
LayerCount: 2
Fore
SplineSet
3 -151 m 1,0,-1
 432 740 l 1,1,-1
 361 740 l 1,2,-1
 -68 -151 l 1,3,-1
 3 -151 l 1,0,-1
EndSplineSet
EndChar

StartChar: zero
Encoding: 48 48 17
Width: 600
GlyphClass: 5
Flags: W
LayerCount: 2
Fore
SplineSet
255 -12 m 0,0,1
 355 -12 355 -12 428 66 c 0,2,3
 496 139 496 139 528.5 251.5 c 128,-1,4
 561 364 561 364 561 470 c 0,5,6
 561 578 561 578 515 644 c 128,-1,7
 469 710 469 710 374 710 c 0,8,9
 274 710 274 710 201 633 c 0,10,11
 134 558 134 558 101 449 c 0,12,13
 68 335 68 335 68 228 c 0,14,15
 68 120 68 120 114.5 54 c 128,-1,16
 161 -12 161 -12 255 -12 c 0,0,1
265 59 m 0,17,18
 207 59 207 59 178 100.5 c 128,-1,19
 149 142 149 142 149 214 c 0,20,21
 149 256 149 256 158 304 c 2,22,-1
 179 409 l 2,23,24
 199 513 199 513 245.5 576 c 128,-1,25
 292 639 292 639 364 639 c 0,26,27
 422 639 422 639 451 597.5 c 128,-1,28
 480 556 480 556 480 484 c 0,29,30
 480 442 480 442 471 394 c 2,31,-1
 450 289 l 2,32,33
 431 185 431 185 384 122 c 128,-1,34
 337 59 337 59 265 59 c 0,17,18
EndSplineSet
EndChar

StartChar: one
Encoding: 49 49 18
Width: 600
Flags: W
LayerCount: 2
Fore
SplineSet
333 0 m 1,0,-1
 252 0 l 1,1,-1
 375 615 l 1,2,-1
 207 523 l 1,3,-1
 224 610 l 1,4,-1
 380 698 l 1,5,-1
 472 698 l 1,6,-1
 333 0 l 1,0,-1
EndSplineSet
EndChar

StartChar: two
Encoding: 50 50 19
Width: 600
Flags: W
LayerCount: 2
Fore
SplineSet
470 0 m 1,0,-1
 485 72 l 1,1,-1
 136 72 l 1,2,-1
 352 241 l 2,3,4
 442 310 442 310 495 379 c 128,-1,5
 548 448 548 448 548 536 c 0,6,7
 548 608 548 608 498.5 659 c 128,-1,8
 449 710 449 710 363 710 c 0,9,10
 274 710 274 710 218 666 c 128,-1,11
 162 622 162 622 128 546 c 1,12,-1
 200 515 l 1,13,14
 224 574 224 574 260.5 605.5 c 128,-1,15
 297 637 297 637 355 637 c 0,16,17
 410 637 410 637 437 602 c 0,18,19
 458 573 458 573 458 535 c 0,20,21
 458 510 458 510 452 487 c 0,22,23
 438 406 438 406 310 298 c 2,24,-1
 52 90 l 1,25,-1
 34 0 l 1,26,-1
 470 0 l 1,0,-1
EndSplineSet
EndChar

StartChar: three
Encoding: 51 51 20
Width: 600
Flags: W
LayerCount: 2
Fore
SplineSet
247 -12 m 0,0,1
 361 -12 361 -12 428 53.5 c 128,-1,2
 495 119 495 119 495 219 c 0,3,4
 495 280 495 280 462.5 317 c 128,-1,5
 430 354 430 354 379 363 c 1,6,-1
 380 368 l 1,7,8
 447 382 447 382 492 430 c 0,9,10
 538 482 538 482 538 554 c 0,11,12
 538 622 538 622 487.5 666 c 128,-1,13
 437 710 437 710 357 710 c 0,14,15
 215 710 215 710 139 599 c 1,16,-1
 195 550 l 1,17,18
 247 637 247 637 347 637 c 0,19,20
 396 637 396 637 422.5 614.5 c 128,-1,21
 449 592 449 592 449 547 c 0,22,23
 449 537 449 537 446 521 c 0,24,25
 433 456 433 456 396.5 428.5 c 128,-1,26
 360 401 360 401 302 401 c 2,27,-1
 231 401 l 1,28,-1
 216 330 l 1,29,-1
 290 330 l 2,30,31
 351 330 351 330 381.5 301.5 c 128,-1,32
 412 273 412 273 412 228 c 0,33,34
 412 210 412 210 407 191 c 0,35,36
 395 127 395 127 360 94 c 128,-1,37
 325 61 325 61 254 61 c 0,38,39
 139 61 139 61 103 156 c 1,40,-1
 37 111 l 1,41,42
 56 62 56 62 110 26 c 0,43,44
 162 -12 162 -12 247 -12 c 0,0,1
EndSplineSet
EndChar

StartChar: four
Encoding: 52 52 21
Width: 600
GlyphClass: 2
Flags: W
LayerCount: 2
Fore
SplineSet
399 0 m 1,0,-1
 427 137 l 1,1,-1
 523 137 l 1,2,-1
 536 205 l 1,3,-1
 441 205 l 1,4,-1
 539 698 l 1,5,-1
 422 698 l 1,6,-1
 47 216 l 1,7,-1
 32 137 l 1,8,-1
 348 137 l 1,9,-1
 320 0 l 1,10,-1
 399 0 l 1,0,-1
362 205 m 1,11,-1
 120 205 l 1,12,-1
 439 612 l 1,13,-1
 443 612 l 1,14,-1
 362 205 l 1,11,-1
EndSplineSet
EndChar

StartChar: five
Encoding: 53 53 22
Width: 600
Flags: W
LayerCount: 2
Fore
SplineSet
263 -12 m 0,0,1
 380 -12 380 -12 453 66 c 0,2,3
 522 143 522 143 522 257 c 0,4,5
 522 341 522 341 472.5 388.5 c 128,-1,6
 423 436 423 436 349 436 c 0,7,8
 294 436 294 436 261.5 415.5 c 128,-1,9
 229 395 229 395 204 351 c 1,10,-1
 197 351 l 1,11,-1
 265 626 l 1,12,-1
 557 626 l 1,13,-1
 572 698 l 1,14,-1
 213 698 l 1,15,-1
 117 307 l 1,16,-1
 185 296 l 1,17,18
 247 365 247 365 322 365 c 0,19,20
 438 365 438 365 438 256 c 0,21,22
 438 229 438 229 432 210 c 0,23,24
 402 61 402 61 273 61 c 0,25,26
 158 61 158 61 122 156 c 1,27,-1
 56 111 l 1,28,29
 76 62 76 62 127 26 c 0,30,31
 178 -12 178 -12 263 -12 c 0,0,1
EndSplineSet
EndChar

StartChar: six
Encoding: 54 54 23
Width: 600
GlyphClass: 2
Flags: W
LayerCount: 2
Fore
SplineSet
268 -12 m 0,0,1
 376 -12 376 -12 447 60.5 c 128,-1,2
 518 133 518 133 518 245 c 0,3,4
 518 334 518 334 468 384 c 128,-1,5
 418 434 418 434 335 434 c 0,6,7
 287 434 287 434 248.5 411 c 128,-1,8
 210 388 210 388 178 335 c 1,9,-1
 174 337 l 1,10,11
 233 526 233 526 512 698 c 1,12,-1
 398 698 l 1,13,14
 266 624 266 624 171 489 c 0,15,16
 70 344 70 344 70 202 c 0,17,18
 70 99 70 99 121 43.5 c 128,-1,19
 172 -12 172 -12 268 -12 c 0,0,1
271 60 m 0,20,21
 153 60 153 60 148 185 c 0,22,23
 148 203 148 203 152 221 c 0,24,25
 165 286 165 286 205.5 324.5 c 128,-1,26
 246 363 246 363 312 363 c 0,27,28
 431 363 431 363 435 238 c 0,29,30
 435 220 435 220 431 202 c 0,31,32
 418 137 418 137 377.5 98.5 c 128,-1,33
 337 60 337 60 271 60 c 0,20,21
EndSplineSet
EndChar

StartChar: seven
Encoding: 55 55 24
Width: 600
Flags: W
LayerCount: 2
Fore
SplineSet
214 0 m 1,0,-1
 128 0 l 1,1,-1
 507 627 l 1,2,-1
 152 627 l 1,3,-1
 166 698 l 1,4,-1
 603 698 l 1,5,-1
 587 619 l 1,6,-1
 214 0 l 1,0,-1
EndSplineSet
EndChar

StartChar: eight
Encoding: 56 56 25
Width: 600
Flags: W
LayerCount: 2
Fore
SplineSet
264 -12 m 0,0,1
 384 -12 384 -12 450.5 52 c 128,-1,2
 517 116 517 116 517 222 c 0,3,4
 517 272 517 272 488.5 310 c 128,-1,5
 460 348 460 348 409 360 c 1,6,-1
 411 368 l 1,7,8
 483 388 483 388 521 440.5 c 128,-1,9
 559 493 559 493 559 551 c 0,10,11
 559 623 559 623 509.5 666.5 c 128,-1,12
 460 710 460 710 372 710 c 0,13,14
 270 710 270 710 205 652 c 128,-1,15
 140 594 140 594 140 505 c 0,16,17
 140 408 140 408 231 374 c 1,18,-1
 229 366 l 1,19,20
 143 353 143 353 98.5 295.5 c 128,-1,21
 54 238 54 238 54 170 c 0,22,23
 54 91 54 91 109 39.5 c 128,-1,24
 164 -12 164 -12 264 -12 c 0,0,1
269 59 m 0,25,26
 205 59 205 59 171 87.5 c 128,-1,27
 137 116 137 116 137 164 c 0,28,29
 137 182 137 182 142 206 c 0,30,31
 173 332 173 332 303 332 c 0,32,33
 367 332 367 332 401 303 c 128,-1,34
 435 274 435 274 435 226 c 0,35,36
 435 208 435 208 430 184 c 0,37,38
 400 59 400 59 269 59 c 0,25,26
332 400 m 0,39,40
 224 400 224 400 218 497 c 0,41,42
 218 512 218 512 221 527 c 0,43,44
 248 639 248 639 362 639 c 0,45,46
 470 639 470 639 476 542 c 0,47,48
 476 527 476 527 473 512 c 0,49,50
 446 400 446 400 332 400 c 0,39,40
EndSplineSet
EndChar

StartChar: nine
Encoding: 57 57 26
Width: 600
GlyphClass: 1
Flags: W
LayerCount: 2
Fore
SplineSet
237 0 m 1,0,1
 369 74 369 74 465 209 c 0,2,3
 565 355 565 355 565 496 c 0,4,5
 565 599 565 599 514 654.5 c 128,-1,6
 463 710 463 710 367 710 c 0,7,8
 259 710 259 710 188 636.5 c 128,-1,9
 117 563 117 563 117 453 c 0,10,11
 117 365 117 365 168 315 c 0,12,13
 218 264 218 264 300 264 c 0,14,15
 348 264 348 264 386.5 287 c 128,-1,16
 425 310 425 310 457 363 c 1,17,-1
 461 361 l 1,18,19
 430 260 430 260 340 169 c 128,-1,20
 250 78 250 78 123 0 c 1,21,-1
 237 0 l 1,0,1
323 335 m 0,22,23
 205 335 205 335 200 460 c 0,24,25
 200 478 200 478 204 496 c 0,26,27
 217 560 217 560 257.5 599 c 128,-1,28
 298 638 298 638 364 638 c 0,29,30
 483 638 483 638 487 513 c 0,31,32
 487 495 487 495 483 477 c 0,33,34
 470 413 470 413 429.5 374 c 128,-1,35
 389 335 389 335 323 335 c 0,22,23
EndSplineSet
EndChar

StartChar: colon
Encoding: 58 58 27
Width: 292
Flags: W
LayerCount: 2
Fore
SplineSet
96 -12 m 0,0,1
 153 -12 153 -12 161 43 c 0,2,3
 165 61 165 61 165 77 c 0,4,5
 165 117 165 117 116 117 c 2,6,-1
 114 117 l 2,7,8
 57 117 57 117 49 62 c 0,9,10
 45 46 45 46 45 28 c 0,11,12
 45 -12 45 -12 96 -12 c 0,0,1
178 394 m 0,13,14
 235 394 235 394 243 449 c 0,15,16
 247 467 247 467 247 483 c 0,17,18
 247 523 247 523 198 523 c 2,19,-1
 196 523 l 2,20,21
 139 523 139 523 131 468 c 0,22,23
 127 452 127 452 127 434 c 0,24,25
 127 394 127 394 178 394 c 0,13,14
EndSplineSet
EndChar

StartChar: semicolon
Encoding: 59 59 28
Width: 292
GlyphClass: 2
Flags: W
LayerCount: 2
Fore
SplineSet
43 -133 m 1,0,1
 93 -94 93 -94 123 -44 c 0,2,3
 163 25 163 25 163 77 c 0,4,5
 163 117 163 117 114 117 c 0,6,7
 43 117 43 117 43 31 c 0,8,9
 43 3 43 3 76 -6 c 1,10,11
 48 -71 48 -71 -22 -133 c 1,12,-1
 43 -133 l 1,0,1
178 394 m 0,13,14
 235 394 235 394 243 449 c 0,15,16
 247 467 247 467 247 483 c 0,17,18
 247 523 247 523 198 523 c 2,19,-1
 196 523 l 2,20,21
 139 523 139 523 131 468 c 0,22,23
 127 452 127 452 127 434 c 0,24,25
 127 394 127 394 178 394 c 0,13,14
EndSplineSet
EndChar

StartChar: less
Encoding: 60 60 29
Width: 600
Flags: W
LayerCount: 2
Fore
SplineSet
450 -12 m 1,0,-1
 466 68 l 1,1,-1
 173 273 l 1,2,-1
 175 281 l 1,3,-1
 548 480 l 1,4,-1
 565 567 l 1,5,-1
 109 318 l 1,6,-1
 94 242 l 1,7,-1
 450 -12 l 1,0,-1
EndSplineSet
EndChar

StartChar: equal
Encoding: 61 61 30
Width: 600
GlyphClass: 2
Flags: W
LayerCount: 2
Fore
SplineSet
548 374 m 1,0,-1
 561 440 l 1,1,-1
 111 440 l 1,2,-1
 98 374 l 1,3,-1
 548 374 l 1,0,-1
508 172 m 1,4,-1
 521 238 l 1,5,-1
 71 238 l 1,6,-1
 58 172 l 1,7,-1
 508 172 l 1,4,-1
EndSplineSet
EndChar

StartChar: greater
Encoding: 62 62 31
Width: 600
GlyphClass: 5
Flags: W
LayerCount: 2
Fore
SplineSet
45 -12 m 1,0,-1
 501 242 l 1,1,-1
 516 318 l 1,2,-1
 160 566 l 1,3,-1
 144 486 l 1,4,-1
 437 287 l 1,5,-1
 435 279 l 1,6,-1
 62 75 l 1,7,-1
 45 -12 l 1,0,-1
EndSplineSet
EndChar

StartChar: question
Encoding: 63 63 32
Width: 470
GlyphClass: 3
Flags: W
LayerCount: 2
Fore
SplineSet
244 208 m 1,0,-1
 266 316 l 1,1,2
 370 336 370 336 428.5 401.5 c 128,-1,3
 487 467 487 467 487 549 c 0,4,5
 487 625 487 625 438 667.5 c 128,-1,6
 389 710 389 710 307 710 c 0,7,8
 221 710 221 710 168 665.5 c 128,-1,9
 115 621 115 621 85 546 c 1,10,-1
 152 519 l 1,11,12
 172 574 172 574 207 606 c 128,-1,13
 242 638 242 638 300 638 c 0,14,15
 351 638 351 638 377 612.5 c 128,-1,16
 403 587 403 587 403 544 c 0,17,18
 403 516 403 516 400 506 c 0,19,20
 389 450 389 450 336 413 c 128,-1,21
 283 376 283 376 202 373 c 1,22,-1
 169 208 l 1,23,-1
 244 208 l 1,0,-1
170 -12 m 0,24,25
 227 -12 227 -12 235 43 c 0,26,27
 239 61 239 61 239 77 c 0,28,29
 239 117 239 117 190 117 c 2,30,-1
 188 117 l 2,31,32
 131 117 131 117 123 62 c 0,33,34
 119 46 119 46 119 28 c 0,35,36
 119 -12 119 -12 170 -12 c 0,24,25
EndSplineSet
EndChar

StartChar: at
Encoding: 64 64 33
Width: 863
Flags: W
LayerCount: 2
Fore
SplineSet
581 -121 m 1,0,-1
 593 -61 l 1,1,-1
 363 -61 l 2,2,3
 246 -61 246 -61 187.5 7 c 128,-1,4
 129 75 129 75 129 195 c 0,5,6
 129 221 129 221 135 263 c 2,7,-1
 147 322 l 2,8,9
 179 473 179 473 277 561 c 128,-1,10
 375 649 375 649 511 649 c 0,11,12
 627 649 627 649 692 584 c 0,13,14
 755 518 755 518 755 414 c 0,15,16
 755 386 755 386 751 355 c 2,17,-1
 741 305 l 2,18,19
 725 226 725 226 692.5 177 c 128,-1,20
 660 128 660 128 613 128 c 0,21,22
 577 128 577 128 577 161 c 0,23,24
 577 181 577 181 583 199 c 2,25,-1
 643 499 l 1,26,-1
 574 499 l 1,27,-1
 558 420 l 1,28,-1
 554 420 l 1,29,30
 533 509 533 509 444 509 c 0,31,32
 370 509 370 509 321 455 c 128,-1,33
 272 401 272 401 252 303 c 0,34,35
 243 256 243 256 243 227 c 0,36,37
 243 149 243 149 282 109 c 128,-1,38
 321 69 321 69 373 69 c 0,39,40
 421 69 421 69 456.5 98 c 128,-1,41
 492 127 492 127 510 171 c 1,42,-1
 514 171 l 1,43,-1
 514 159 l 2,44,45
 514 69 514 69 603 69 c 0,46,47
 688 69 688 69 741 144 c 0,48,49
 790 216 790 216 809 320 c 0,50,51
 818 383 818 383 818 408 c 0,52,53
 818 546 818 546 736.5 627 c 128,-1,54
 655 708 655 708 515 708 c 0,55,56
 349 708 349 708 228 594 c 0,57,58
 112 483 112 483 76 305 c 0,59,60
 65 235 65 235 65 194 c 0,61,62
 65 45 65 45 141 -38 c 128,-1,63
 217 -121 217 -121 360 -121 c 2,64,-1
 581 -121 l 1,0,-1
398 133 m 0,65,66
 359 133 359 133 336.5 155.5 c 128,-1,67
 314 178 314 178 314 217 c 0,68,69
 314 231 314 231 317 245 c 0,70,71
 327 293 327 293 336 340 c 128,-1,72
 345 387 345 387 376.5 416 c 128,-1,73
 408 445 408 445 456 445 c 0,74,75
 503 445 503 445 527 418 c 0,76,77
 547 396 547 396 547 372 c 0,78,79
 547 366 547 366 523 246 c 0,80,81
 513 199 513 199 479.5 166 c 128,-1,82
 446 133 446 133 398 133 c 0,65,66
EndSplineSet
EndChar

StartChar: A
Encoding: 65 65 34
Width: 623
GlyphClass: 5
Flags: W
LayerCount: 2
Fore
SplineSet
547 0 m 1,0,-1
 453 698 l 1,1,-1
 346 698 l 1,2,-1
 -27 0 l 1,3,-1
 59 0 l 1,4,-1
 167 206 l 1,5,-1
 438 206 l 1,6,-1
 464 0 l 1,7,-1
 547 0 l 1,0,-1
430 278 m 1,8,-1
 204 278 l 1,9,-1
 382 621 l 1,10,-1
 387 621 l 1,11,-1
 430 278 l 1,8,-1
EndSplineSet
EndChar

StartChar: B
Encoding: 66 66 35
Width: 627
GlyphClass: 7
Flags: W
LayerCount: 2
Fore
SplineSet
333 0 m 2,0,1
 431 0 431 0 496 70.5 c 128,-1,2
 561 141 561 141 561 238 c 0,3,4
 561 339 561 339 460 362 c 1,5,-1
 461 367 l 1,6,7
 529 385 529 385 566 435 c 128,-1,8
 603 485 603 485 603 549 c 0,9,10
 603 618 603 618 560 658 c 128,-1,11
 517 698 517 698 436 698 c 2,12,-1
 179 698 l 1,13,-1
 39 0 l 1,14,-1
 333 0 l 2,0,1
332 72 m 2,15,-1
 134 72 l 1,16,-1
 184 324 l 1,17,-1
 374 324 l 2,18,19
 475 324 475 324 476 242 c 1,20,-1
 475 228 l 1,21,-1
 467 184 l 2,22,23
 455 127 455 127 419.5 99.5 c 128,-1,24
 384 72 384 72 332 72 c 2,15,-1
367 394 m 2,25,-1
 198 394 l 1,26,-1
 244 626 l 1,27,-1
 425 626 l 2,28,29
 470 626 470 626 492 605.5 c 128,-1,30
 514 585 514 585 514 549 c 0,31,32
 514 529 514 529 507 494 c 0,33,34
 485 394 485 394 367 394 c 2,25,-1
EndSplineSet
EndChar

StartChar: C
Encoding: 67 67 36
Width: 602
Flags: W
LayerCount: 2
Fore
SplineSet
290 -12 m 0,0,1
 383 -12 383 -12 446.5 29 c 128,-1,2
 510 70 510 70 555 157 c 1,3,-1
 487 191 l 1,4,5
 454 130 454 130 410.5 95.5 c 128,-1,6
 367 61 367 61 295 61 c 0,7,8
 219 61 219 61 178 113 c 0,9,10
 136 164 136 164 136 246 c 0,11,12
 136 276 136 276 142 312 c 2,13,-1
 165 427 l 2,14,15
 185 524 185 524 244.5 580.5 c 128,-1,16
 304 637 304 637 383 637 c 0,17,18
 449 637 449 637 486.5 607 c 128,-1,19
 524 577 524 577 542 518 c 1,20,-1
 615 551 l 1,21,22
 563 710 563 710 391 710 c 0,23,24
 315 710 315 710 253.5 675 c 128,-1,25
 192 640 192 640 147 579 c 0,26,27
 55 448 55 448 55 266 c 0,28,29
 55 134 55 134 121.5 61 c 128,-1,30
 188 -12 188 -12 290 -12 c 0,0,1
EndSplineSet
EndChar

StartChar: D
Encoding: 68 68 37
Width: 652
Flags: W
LayerCount: 2
Fore
SplineSet
275 0 m 2,0,1
 358 0 358 0 423 36 c 128,-1,2
 488 72 488 72 532.5 132.5 c 128,-1,3
 577 193 577 193 600 269.5 c 128,-1,4
 623 346 623 346 623 427 c 0,5,6
 623 562 623 562 559.5 630 c 128,-1,7
 496 698 496 698 384 698 c 2,8,-1
 179 698 l 1,9,-1
 39 0 l 1,10,-1
 275 0 l 2,0,1
277 72 m 2,11,-1
 135 72 l 1,12,-1
 245 626 l 1,13,-1
 380 626 l 2,14,15
 453 626 453 626 496 582.5 c 128,-1,16
 539 539 539 539 539 455 c 0,17,18
 539 424 539 424 533 394 c 2,19,-1
 512 289 l 2,20,21
 490 183 490 183 428.5 127.5 c 128,-1,22
 367 72 367 72 277 72 c 2,11,-1
EndSplineSet
EndChar

StartChar: E
Encoding: 69 69 38
Width: 565
Flags: W
LayerCount: 2
Fore
SplineSet
467 0 m 1,0,-1
 481 72 l 1,1,-1
 135 72 l 1,2,-1
 184 318 l 1,3,-1
 481 318 l 1,4,-1
 495 390 l 1,5,-1
 199 390 l 1,6,-1
 246 626 l 1,7,-1
 575 626 l 1,8,-1
 590 698 l 1,9,-1
 179 698 l 1,10,-1
 39 0 l 1,11,-1
 467 0 l 1,0,-1
EndSplineSet
EndChar

StartChar: F
Encoding: 70 70 39
Width: 542
GlyphClass: 2
Flags: W
LayerCount: 2
Fore
SplineSet
120 0 m 1,0,-1
 184 318 l 1,1,-1
 477 318 l 1,2,-1
 491 390 l 1,3,-1
 199 390 l 1,4,-1
 246 626 l 1,5,-1
 564 626 l 1,6,-1
 579 698 l 1,7,-1
 179 698 l 1,8,-1
 39 0 l 1,9,-1
 120 0 l 1,0,-1
EndSplineSet
EndChar

StartChar: G
Encoding: 71 71 40
Width: 661
Flags: W
LayerCount: 2
Fore
SplineSet
280 -12 m 0,0,1
 357 -12 357 -12 407 21 c 128,-1,2
 457 54 457 54 479 102 c 1,3,-1
 483 102 l 1,4,-1
 462 0 l 1,5,-1
 539 0 l 1,6,-1
 611 360 l 1,7,-1
 384 360 l 1,8,-1
 368 286 l 1,9,-1
 517 286 l 1,10,-1
 506 231 l 2,11,12
 488 147 488 147 432 104 c 128,-1,13
 376 61 376 61 304 61 c 0,14,15
 142 61 142 61 136 253 c 0,16,17
 136 283 136 283 142 313 c 2,18,-1
 163 417 l 2,19,20
 185 521 185 521 245 579 c 128,-1,21
 305 637 305 637 394 637 c 0,22,23
 526 637 526 637 567 518 c 1,24,-1
 640 551 l 1,25,26
 586 710 586 710 404 710 c 0,27,28
 320 710 320 710 255 674 c 128,-1,29
 190 638 190 638 145.5 576 c 128,-1,30
 101 514 101 514 78 434 c 128,-1,31
 55 354 55 354 55 266 c 0,32,33
 55 130 55 130 117.5 59 c 128,-1,34
 180 -12 180 -12 280 -12 c 0,0,1
EndSplineSet
EndChar

StartChar: H
Encoding: 72 72 41
Width: 684
GlyphClass: 5
Flags: W
LayerCount: 2
Fore
SplineSet
541 0 m 1,0,-1
 681 698 l 1,1,-1
 600 698 l 1,2,-1
 538 390 l 1,3,-1
 199 390 l 1,4,-1
 260 698 l 1,5,-1
 179 698 l 1,6,-1
 39 0 l 1,7,-1
 120 0 l 1,8,-1
 184 318 l 1,9,-1
 523 318 l 1,10,-1
 460 0 l 1,11,-1
 541 0 l 1,0,-1
EndSplineSet
EndChar

StartChar: I
Encoding: 73 73 42
Width: 261
Flags: W
LayerCount: 2
Fore
SplineSet
120 0 m 1,0,-1
 39 0 l 1,1,-1
 177 698 l 1,2,-1
 258 698 l 1,3,-1
 120 0 l 1,0,-1
EndSplineSet
EndChar

StartChar: J
Encoding: 74 74 43
Width: 498
Flags: W
LayerCount: 2
Fore
SplineSet
171 -12 m 0,0,1
 99 -12 99 -12 52.5 30 c 128,-1,2
 6 72 6 72 3 153 c 1,3,-1
 77 168 l 1,4,5
 79 121 79 121 103 91 c 128,-1,6
 127 61 127 61 175 61 c 0,7,8
 233 61 233 61 266 95.5 c 128,-1,9
 299 130 299 130 313 198 c 2,10,-1
 413 698 l 1,11,-1
 495 698 l 1,12,-1
 392 186 l 2,13,14
 373 92 373 92 316.5 40 c 128,-1,15
 260 -12 260 -12 171 -12 c 0,0,1
EndSplineSet
EndChar

StartChar: K
Encoding: 75 75 44
Width: 615
GlyphClass: 1
Flags: W
LayerCount: 2
Fore
SplineSet
549 0 m 1,0,-1
 352 395 l 1,1,-1
 665 698 l 1,2,-1
 562 698 l 1,3,-1
 194 342 l 1,4,-1
 189 342 l 1,5,-1
 260 698 l 1,6,-1
 179 698 l 1,7,-1
 39 0 l 1,8,-1
 120 0 l 1,9,-1
 165 226 l 1,10,-1
 290 343 l 1,11,-1
 461 0 l 1,12,-1
 549 0 l 1,0,-1
EndSplineSet
EndChar

StartChar: L
Encoding: 76 76 45
Width: 489
GlyphClass: 7
Flags: W
LayerCount: 2
Fore
SplineSet
408 0 m 1,0,-1
 422 72 l 1,1,-1
 135 72 l 1,2,-1
 260 698 l 1,3,-1
 179 698 l 1,4,-1
 39 0 l 1,5,-1
 408 0 l 1,0,-1
EndSplineSet
EndChar

StartChar: M
Encoding: 77 77 46
Width: 784
GlyphClass: 1
Flags: W
LayerCount: 2
Fore
SplineSet
641 0 m 1,0,-1
 781 698 l 1,1,-1
 668 698 l 1,2,-1
 405 319 l 1,3,-1
 402 319 l 1,4,-1
 284 698 l 1,5,-1
 179 698 l 1,6,-1
 39 0 l 1,7,-1
 119 0 l 1,8,-1
 236 585 l 1,9,-1
 241 585 l 1,10,11
 308 375 308 375 377 166 c 1,12,-1
 594 469 l 1,13,-1
 675 586 l 1,14,-1
 680 586 l 1,15,-1
 561 0 l 1,16,-1
 641 0 l 1,0,-1
EndSplineSet
EndChar

StartChar: N
Encoding: 78 78 47
Width: 684
GlyphClass: 7
Flags: W
LayerCount: 2
Fore
SplineSet
541 0 m 1,0,-1
 681 698 l 1,1,-1
 602 698 l 1,2,-1
 485 111 l 1,3,-1
 480 111 l 1,4,-1
 425 278 l 1,5,-1
 273 698 l 1,6,-1
 179 698 l 1,7,-1
 39 0 l 1,8,-1
 118 0 l 1,9,-1
 235 587 l 1,10,-1
 240 587 l 1,11,-1
 295 420 l 1,12,-1
 447 0 l 1,13,-1
 541 0 l 1,0,-1
EndSplineSet
EndChar

StartChar: O
Encoding: 79 79 48
Width: 679
GlyphClass: 3
Flags: W
LayerCount: 2
Fore
SplineSet
298 -12 m 0,0,1
 381 -12 381 -12 446.5 25.5 c 128,-1,2
 512 63 512 63 558 127 c 0,3,4
 652 264 652 264 652 438 c 0,5,6
 652 567 652 567 583 640 c 0,7,8
 513 710 513 710 409 710 c 0,9,10
 326 710 326 710 260.5 672.5 c 128,-1,11
 195 635 195 635 149 572 c 0,12,13
 55 434 55 434 55 260 c 0,14,15
 55 128 55 128 125 58 c 128,-1,16
 195 -12 195 -12 298 -12 c 0,0,1
306 61 m 0,17,18
 225 61 225 61 180 108.5 c 128,-1,19
 135 156 135 156 135 236 c 0,20,21
 135 266 135 266 142 305 c 2,22,-1
 162 405 l 2,23,24
 184 515 184 515 246 576 c 128,-1,25
 308 637 308 637 401 637 c 0,26,27
 482 637 482 637 527 589.5 c 128,-1,28
 572 542 572 542 572 462 c 0,29,30
 572 432 572 432 565 393 c 2,31,-1
 545 293 l 2,32,33
 523 183 523 183 461 122 c 128,-1,34
 399 61 399 61 306 61 c 0,17,18
EndSplineSet
EndChar

StartChar: P
Encoding: 80 80 49
Width: 588
GlyphClass: 7
Flags: W
LayerCount: 2
Fore
SplineSet
120 0 m 1,0,-1
 180 298 l 1,1,-1
 367 298 l 2,2,3
 475 298 475 298 538 366 c 128,-1,4
 601 434 601 434 601 531 c 0,5,6
 601 603 601 603 560.5 650.5 c 128,-1,7
 520 698 520 698 428 698 c 2,8,-1
 179 698 l 1,9,-1
 39 0 l 1,10,-1
 120 0 l 1,0,-1
379 370 m 2,11,-1
 195 370 l 1,12,-1
 245 626 l 1,13,-1
 422 626 l 2,14,15
 475 626 475 626 496 604 c 128,-1,16
 517 582 517 582 517 545 c 0,17,18
 517 533 517 533 515 519 c 2,19,-1
 505 471 l 2,20,21
 495 421 495 421 462 395.5 c 128,-1,22
 429 370 429 370 379 370 c 2,11,-1
EndSplineSet
EndChar

StartChar: Q
Encoding: 81 81 50
Width: 679
GlyphClass: 5
Flags: W
LayerCount: 2
Fore
SplineSet
306 61 m 0,0,1
 225 61 225 61 180 108.5 c 128,-1,2
 135 156 135 156 135 236 c 0,3,4
 135 266 135 266 142 305 c 2,5,-1
 162 405 l 2,6,7
 184 515 184 515 246 576 c 128,-1,8
 308 637 308 637 401 637 c 0,9,10
 482 637 482 637 527 589.5 c 128,-1,11
 572 542 572 542 572 462 c 0,12,13
 572 432 572 432 565 393 c 2,14,-1
 545 293 l 2,15,16
 523 183 523 183 461 122 c 128,-1,17
 399 61 399 61 306 61 c 0,0,1
558 127 m 0,19,20
 652 264 652 264 652 438 c 0,21,22
 652 567 652 567 583 640 c 0,23,24
 513 710 513 710 409 710 c 0,25,26
 326 710 326 710 260.5 672.5 c 128,-1,27
 195 635 195 635 149 572 c 0,28,29
 55 434 55 434 55 260 c 0,30,31
 55 128 55 128 125 58 c 128,-1,32
 195 -12 195 -12 298 -12 c 0,33,34
 353 -12 353 -12 401 5 c 1,35,-1
 559 -99 l 1,36,-1
 611 -34 l 1,37,-1
 483 50 l 1,38,18
 525 82 525 82 558 127 c 0,19,20
EndSplineSet
EndChar

StartChar: R
Encoding: 82 82 51
Width: 625
GlyphClass: 5
Flags: W
LayerCount: 2
Fore
SplineSet
520 0 m 1,0,-1
 418 308 l 1,1,2
 503 326 503 326 552 389 c 128,-1,3
 601 452 601 452 601 531 c 0,4,5
 601 603 601 603 560.5 650.5 c 128,-1,6
 520 698 520 698 428 698 c 2,7,-1
 179 698 l 1,8,-1
 39 0 l 1,9,-1
 120 0 l 1,10,-1
 180 300 l 1,11,-1
 338 300 l 1,12,-1
 433 0 l 1,13,-1
 520 0 l 1,0,-1
379 371 m 2,14,-1
 195 371 l 1,15,-1
 245 626 l 1,16,-1
 422 626 l 2,17,18
 517 626 517 626 517 545 c 0,19,20
 517 533 517 533 515 519 c 2,21,-1
 505 471 l 2,22,23
 495 422 495 422 462 396.5 c 128,-1,24
 429 371 429 371 379 371 c 2,14,-1
EndSplineSet
EndChar

StartChar: S
Encoding: 83 83 52
Width: 581
GlyphClass: 3
Flags: W
LayerCount: 2
Fore
SplineSet
124 428 m 0,1,2
 165 374 165 374 255 335 c 2,3,-1
 308 311 l 2,4,5
 372 283 372 283 396 250 c 0,6,7
 414 226 414 226 414 194 c 2,8,-1
 414 192 l 2,9,10
 414 182 414 182 412 171 c 0,11,12
 406 127 406 127 375 98 c 0,13,14
 335 62 335 62 260 62 c 0,15,16
 199 62 199 62 153.5 87.5 c 128,-1,17
 108 113 108 113 72 162 c 1,18,-1
 10 110 l 1,19,20
 98 -12 98 -12 257 -12 c 0,21,22
 370 -12 370 -12 434 45 c 0,23,24
 488 94 488 94 496 171 c 0,25,26
 515 312 515 312 340 385 c 1,27,-1
 287 409 l 2,28,29
 225 435 225 435 198 467 c 0,30,31
 172 498 172 498 180 545 c 0,32,33
 186 585 186 585 217 608 c 0,34,35
 255 636 255 636 322 636 c 0,36,37
 383 636 383 636 424 613 c 128,-1,38
 465 590 465 590 494 550 c 1,39,-1
 557 596 l 1,40,41
 479 710 479 710 326 710 c 0,42,43
 224 710 224 710 160 661 c 0,44,45
 109 622 109 622 98 557 c 0,46,0
 84 480 84 480 124 428 c 0,1,2
EndSplineSet
EndChar

StartChar: T
Encoding: 84 84 53
Width: 557
GlyphClass: 1
Flags: W
LayerCount: 2
Fore
SplineSet
267 0 m 1,0,-1
 392 626 l 1,1,-1
 605 626 l 1,2,-1
 619 698 l 1,3,-1
 112 698 l 1,4,-1
 98 626 l 1,5,-1
 311 626 l 1,6,-1
 186 0 l 1,7,-1
 267 0 l 1,0,-1
EndSplineSet
EndChar

StartChar: U
Encoding: 85 85 54
Width: 656
GlyphClass: 3
Flags: W
LayerCount: 2
Fore
SplineSet
280 -12 m 0,0,1
 405 -12 405 -12 474 54 c 128,-1,2
 543 120 543 120 573 278 c 2,3,-1
 657 698 l 1,4,-1
 576 698 l 1,5,-1
 493 284 l 2,6,7
 470 164 470 164 421.5 112.5 c 128,-1,8
 373 61 373 61 289 61 c 0,9,10
 229 61 229 61 195 97 c 128,-1,11
 161 133 161 133 161 197 c 0,12,13
 161 214 161 214 162 230 c 0,14,15
 163 241 163 241 255 698 c 1,16,-1
 174 698 l 1,17,-1
 93 294 l 2,18,19
 82 236 82 236 82 189 c 0,20,21
 82 93 82 93 134 40.5 c 128,-1,22
 186 -12 186 -12 280 -12 c 0,0,1
EndSplineSet
EndChar

StartChar: V
Encoding: 86 86 55
Width: 593
Flags: W
LayerCount: 2
Fore
SplineSet
295 0 m 1,0,-1
 661 698 l 1,1,-1
 575 698 l 1,2,-1
 393 348 l 1,3,-1
 260 84 l 1,4,-1
 257 84 l 1,5,-1
 192 698 l 1,6,-1
 111 698 l 1,7,-1
 194 0 l 1,8,-1
 295 0 l 1,0,-1
EndSplineSet
EndChar

StartChar: W
Encoding: 87 87 56
Width: 862
Flags: W
LayerCount: 2
Fore
SplineSet
622 0 m 1,0,-1
 935 698 l 1,1,-1
 851 698 l 1,2,-1
 595 102 l 1,3,-1
 591 102 l 1,4,-1
 562 698 l 1,5,-1
 466 698 l 1,6,-1
 340 416 l 1,7,-1
 203 101 l 1,8,-1
 199 101 l 1,9,-1
 184 698 l 1,10,-1
 103 698 l 1,11,-1
 132 0 l 1,12,-1
 226 0 l 1,13,-1
 496 606 l 1,14,-1
 501 606 l 1,15,16
 514 303 514 303 529 0 c 1,17,-1
 622 0 l 1,0,-1
EndSplineSet
EndChar

StartChar: X
Encoding: 88 88 57
Width: 596
Flags: W
LayerCount: 2
Fore
SplineSet
508 0 m 1,0,-1
 360 343 l 1,1,-1
 653 698 l 1,2,-1
 559 698 l 1,3,-1
 328 411 l 1,4,-1
 324 411 l 1,5,-1
 205 698 l 1,6,-1
 120 698 l 1,7,-1
 263 358 l 1,8,-1
 -25 0 l 1,9,-1
 69 0 l 1,10,-1
 299 286 l 1,11,-1
 303 286 l 1,12,-1
 423 0 l 1,13,-1
 508 0 l 1,0,-1
EndSplineSet
EndChar

StartChar: Y
Encoding: 89 89 58
Width: 577
Flags: W
LayerCount: 2
Fore
SplineSet
277 0 m 1,0,-1
 332 273 l 1,1,-1
 651 698 l 1,2,-1
 558 698 l 1,3,-1
 308 357 l 1,4,-1
 303 357 l 1,5,-1
 187 698 l 1,6,-1
 105 698 l 1,7,-1
 251 273 l 1,8,-1
 196 0 l 1,9,-1
 277 0 l 1,0,-1
EndSplineSet
EndChar

StartChar: Z
Encoding: 90 90 59
Width: 563
Flags: W
LayerCount: 2
Fore
SplineSet
472 0 m 1,0,-1
 487 72 l 1,1,-1
 95 72 l 1,2,-1
 587 620 l 1,3,-1
 603 698 l 1,4,-1
 134 698 l 1,5,-1
 119 626 l 1,6,-1
 493 626 l 1,7,-1
 1 78 l 1,8,-1
 -15 0 l 1,9,-1
 472 0 l 1,0,-1
EndSplineSet
EndChar

StartChar: bracketleft
Encoding: 91 91 60
Width: 317
Flags: W
LayerCount: 2
Fore
SplineSet
170 -138 m 1,0,-1
 182 -77 l 1,1,-1
 93 -77 l 1,2,-1
 249 699 l 1,3,-1
 338 699 l 1,4,-1
 351 760 l 1,5,-1
 192 760 l 1,6,-1
 12 -138 l 1,7,-1
 170 -138 l 1,0,-1
EndSplineSet
EndChar

StartChar: backslash
Encoding: 92 92 61
Width: 378
Flags: W
LayerCount: 2
Fore
SplineSet
280 -151 m 1,0,-1
 209 740 l 1,1,-1
 142 740 l 1,2,-1
 213 -151 l 1,3,-1
 280 -151 l 1,0,-1
EndSplineSet
EndChar

StartChar: bracketright
Encoding: 93 93 62
Width: 316
Flags: W
LayerCount: 2
Fore
SplineSet
147 -138 m 1,0,-1
 327 760 l 1,1,-1
 169 760 l 1,2,-1
 157 699 l 1,3,-1
 246 699 l 1,4,-1
 90 -77 l 1,5,-1
 1 -77 l 1,6,-1
 -12 -138 l 1,7,-1
 147 -138 l 1,0,-1
EndSplineSet
EndChar

StartChar: asciicircum
Encoding: 94 94 63
Width: 600
Flags: W
LayerCount: 2
Fore
SplineSet
493 296 m 1,0,-1
 555 325 l 1,1,-1
 429 698 l 1,2,-1
 344 698 l 1,3,-1
 74 331 l 1,4,-1
 130 296 l 1,5,-1
 374 621 l 1,6,-1
 378 621 l 1,7,-1
 493 296 l 1,0,-1
EndSplineSet
EndChar

StartChar: underscore
Encoding: 95 95 64
Width: 548
Flags: W
LayerCount: 2
Fore
SplineSet
433 -163 m 1,0,-1
 447 -97 l 1,1,-1
 -39 -97 l 1,2,-1
 -53 -163 l 1,3,-1
 433 -163 l 1,0,-1
EndSplineSet
EndChar

StartChar: grave
Encoding: 96 96 65
Width: 593
Flags: W
LayerCount: 2
Fore
SplineSet
289 585 m 1,0,-1
 334 606 l 1,1,-1
 273 776 l 1,2,-1
 205 744 l 1,3,-1
 289 585 l 1,0,-1
EndSplineSet
EndChar

StartChar: a
Encoding: 97 97 66
Width: 583
Flags: W
LayerCount: 2
Fore
SplineSet
208 -12 m 0,0,1
 265 -12 265 -12 304 17.5 c 128,-1,2
 343 47 343 47 375 112 c 1,3,-1
 378 112 l 1,4,5
 370 75 370 75 370 62 c 0,6,7
 370 34 370 34 386.5 17 c 128,-1,8
 403 0 403 0 437 0 c 2,9,-1
 506 0 l 1,10,-1
 519 68 l 1,11,-1
 446 68 l 1,12,-1
 536 516 l 1,13,-1
 459 516 l 1,14,-1
 442 432 l 1,15,-1
 438 432 l 1,16,17
 425 480 425 480 387.5 504 c 128,-1,18
 350 528 350 528 303 528 c 0,19,20
 239 528 239 528 191.5 496.5 c 128,-1,21
 144 465 144 465 113 413.5 c 128,-1,22
 82 362 82 362 66.5 302 c 128,-1,23
 51 242 51 242 51 185 c 0,24,25
 51 93 51 93 94 40.5 c 128,-1,26
 137 -12 137 -12 208 -12 c 0,0,1
227 58 m 0,27,28
 177 58 177 58 153.5 91.5 c 128,-1,29
 130 125 130 125 130 175 c 0,30,31
 130 198 130 198 135 226 c 2,32,-1
 150 301 l 2,33,34
 165 376 165 376 205.5 417 c 128,-1,35
 246 458 246 458 312 458 c 0,36,37
 369 458 369 458 402 425 c 0,38,39
 428 398 428 398 428 369 c 0,40,41
 428 362 428 362 402 233 c 0,42,43
 388 159 388 159 337 109 c 0,44,45
 314 85 314 85 288.5 71.5 c 128,-1,46
 263 58 263 58 227 58 c 0,27,28
EndSplineSet
EndChar

StartChar: b
Encoding: 98 98 67
Width: 572
Flags: W
LayerCount: 2
Fore
SplineSet
269 -12 m 0,0,1
 333 -12 333 -12 380.5 19.5 c 128,-1,2
 428 51 428 51 459 102.5 c 128,-1,3
 490 154 490 154 505.5 214 c 128,-1,4
 521 274 521 274 521 331 c 0,5,6
 521 423 521 423 478 475.5 c 128,-1,7
 435 528 435 528 364 528 c 0,8,9
 307 528 307 528 268 498.5 c 128,-1,10
 229 469 229 469 197 404 c 1,11,-1
 194 404 l 1,12,-1
 262 740 l 1,13,-1
 185 740 l 1,14,-1
 36 0 l 1,15,-1
 113 0 l 1,16,-1
 130 84 l 1,17,-1
 134 84 l 1,18,19
 147 36 147 36 185 12 c 128,-1,20
 223 -12 223 -12 269 -12 c 0,0,1
262 58 m 0,21,22
 196 58 196 58 166 94 c 0,23,24
 146 119 146 119 146 151 c 0,25,26
 146 164 146 164 149 178 c 2,27,-1
 170 283 l 2,28,29
 186 359 186 359 235 407 c 0,30,31
 258 431 258 431 283.5 444.5 c 128,-1,32
 309 458 309 458 343 458 c 0,33,34
 395 458 395 458 418.5 425 c 128,-1,35
 442 392 442 392 442 341 c 0,36,37
 442 319 442 319 437 290 c 2,38,-1
 422 215 l 2,39,40
 388 58 388 58 262 58 c 0,21,22
EndSplineSet
EndChar

StartChar: c
Encoding: 99 99 68
Width: 488
Flags: W
LayerCount: 2
Fore
SplineSet
236 -12 m 0,0,1
 370 -12 370 -12 437 128 c 1,2,-1
 376 158 l 1,3,4
 346 101 346 101 314 79 c 128,-1,5
 282 57 282 57 244 57 c 0,6,7
 184 57 184 57 155 92 c 128,-1,8
 126 127 126 127 126 183 c 0,9,10
 126 201 126 201 130 228 c 2,11,-1
 147 312 l 2,12,13
 161 382 161 382 199.5 420.5 c 128,-1,14
 238 459 238 459 300 459 c 0,15,16
 383 459 383 459 409 378 c 1,17,-1
 473 407 l 1,18,19
 458 461 458 461 414.5 494.5 c 128,-1,20
 371 528 371 528 302 528 c 0,21,22
 188 528 188 528 117 431 c 0,23,24
 49 333 49 333 49 199 c 0,25,26
 49 103 49 103 98.5 45.5 c 128,-1,27
 148 -12 148 -12 236 -12 c 0,0,1
EndSplineSet
EndChar

StartChar: d
Encoding: 100 100 69
Width: 583
Flags: W
LayerCount: 2
Fore
SplineSet
208 -12 m 0,0,1
 265 -12 265 -12 304 17.5 c 128,-1,2
 343 47 343 47 375 112 c 1,3,-1
 378 112 l 1,4,5
 370 75 370 75 370 62 c 0,6,7
 370 34 370 34 386.5 17 c 128,-1,8
 403 0 403 0 437 0 c 2,9,-1
 506 0 l 1,10,-1
 519 68 l 1,11,-1
 446 68 l 1,12,-1
 581 740 l 1,13,-1
 504 740 l 1,14,-1
 442 432 l 1,15,-1
 438 432 l 1,16,17
 425 480 425 480 387.5 504 c 128,-1,18
 350 528 350 528 303 528 c 0,19,20
 239 528 239 528 191.5 496.5 c 128,-1,21
 144 465 144 465 113 413.5 c 128,-1,22
 82 362 82 362 66.5 302 c 128,-1,23
 51 242 51 242 51 185 c 0,24,25
 51 93 51 93 94 40.5 c 128,-1,26
 137 -12 137 -12 208 -12 c 0,0,1
229 58 m 0,27,28
 177 58 177 58 153.5 91 c 128,-1,29
 130 124 130 124 130 175 c 0,30,31
 130 198 130 198 135 226 c 2,32,-1
 150 301 l 2,33,34
 184 458 184 458 310 458 c 0,35,36
 378 458 378 458 406 422 c 0,37,38
 426 398 426 398 426 365 c 0,39,40
 426 352 426 352 423 338 c 2,41,-1
 402 233 l 2,42,43
 386 157 386 157 337 109 c 0,44,45
 314 85 314 85 288.5 71.5 c 128,-1,46
 263 58 263 58 229 58 c 0,27,28
EndSplineSet
EndChar

StartChar: e
Encoding: 101 101 70
Width: 511
Flags: W
LayerCount: 2
Fore
SplineSet
244 -12 m 0,0,1
 369 -12 369 -12 457 94 c 1,2,-1
 407 139 l 1,3,4
 341 57 341 57 249 57 c 0,5,6
 189 57 189 57 157.5 90.5 c 128,-1,7
 126 124 126 124 126 179 c 0,8,9
 126 196 126 196 129 221 c 1,10,11
 310 223 310 223 397.5 264 c 128,-1,12
 485 305 485 305 485 390 c 0,13,14
 485 457 485 457 435 494 c 0,15,16
 385 528 385 528 319 528 c 0,17,18
 258 528 258 528 208.5 502 c 128,-1,19
 159 476 159 476 124 430 c 0,20,21
 49 332 49 332 49 204 c 0,22,23
 49 98 49 98 100 43 c 128,-1,24
 151 -12 151 -12 244 -12 c 0,0,1
139 281 m 1,25,-1
 145 310 l 2,26,27
 160 380 160 380 205.5 421 c 128,-1,28
 251 462 251 462 311 462 c 0,29,30
 347 462 347 462 377 447 c 0,31,32
 406 429 406 429 406 391 c 0,33,34
 406 364 406 364 395.5 345 c 128,-1,35
 385 326 385 326 356 313 c 0,36,37
 301 287 301 287 139 281 c 1,25,-1
EndSplineSet
EndChar

StartChar: f
Encoding: 102 102 71
Width: 307
Flags: W
LayerCount: 2
Fore
SplineSet
-8 -200 m 2,0,1
 52 -200 52 -200 80 -170 c 128,-1,2
 108 -140 108 -140 118 -86 c 2,3,-1
 226 448 l 1,4,-1
 327 448 l 1,5,-1
 340 516 l 1,6,-1
 239 516 l 1,7,-1
 271 672 l 1,8,-1
 376 672 l 1,9,-1
 389 740 l 1,10,-1
 310 740 l 2,11,12
 250 740 250 740 222 710 c 128,-1,13
 194 680 194 680 183.5 625.5 c 128,-1,14
 173 571 173 571 162 516 c 1,15,-1
 77 516 l 1,16,-1
 64 448 l 1,17,-1
 149 448 l 1,18,-1
 31 -132 l 1,19,-1
 -62 -132 l 1,20,-1
 -75 -200 l 1,21,-1
 -8 -200 l 2,0,1
EndSplineSet
EndChar

StartChar: g
Encoding: 103 103 72
Width: 562
Flags: W
LayerCount: 2
Fore
SplineSet
198 -212 m 0,0,1
 68 -212 68 -212 8 -123 c 1,2,-1
 63 -75 l 1,3,4
 105 -144 105 -144 198 -144 c 0,5,6
 326 -144 326 -144 356 2 c 2,7,-1
 378 112 l 1,8,-1
 375 112 l 1,9,10
 344 48 344 48 304.5 18 c 128,-1,11
 265 -12 265 -12 208 -12 c 0,12,13
 138 -12 138 -12 94.5 41 c 128,-1,14
 51 94 51 94 51 185 c 0,15,16
 51 242 51 242 66.5 302.5 c 128,-1,17
 82 363 82 363 113 413.5 c 128,-1,18
 144 464 144 464 191.5 496 c 128,-1,19
 239 528 239 528 303 528 c 0,20,21
 350 528 350 528 388 504.5 c 128,-1,22
 426 481 426 481 438 432 c 1,23,-1
 442 432 l 1,24,-1
 459 516 l 1,25,-1
 536 516 l 1,26,-1
 431 -8 l 2,27,28
 412 -106 412 -106 354 -159 c 128,-1,29
 296 -212 296 -212 198 -212 c 0,0,1
227 58 m 0,30,31
 263 58 263 58 289 72 c 128,-1,32
 315 86 315 86 337 109 c 0,33,34
 388 160 388 160 402 233 c 0,35,36
 428 362 428 362 428 369 c 0,37,38
 428 398 428 398 399.5 428 c 128,-1,39
 371 458 371 458 312 458 c 0,40,41
 182 458 182 458 150 301 c 2,42,-1
 135 226 l 2,43,44
 130 199 130 199 130 175 c 0,45,46
 130 126 130 126 153.5 92 c 128,-1,47
 177 58 177 58 227 58 c 0,30,31
EndSplineSet
EndChar

StartChar: h
Encoding: 104 104 73
Width: 565
Flags: W
LayerCount: 2
Fore
SplineSet
495 0 m 1,0,-1
 508 68 l 1,1,-1
 435 68 l 1,2,-1
 485 318 l 2,3,4
 492 357 492 357 492 385 c 0,5,6
 492 452 492 452 459 490 c 128,-1,7
 426 528 426 528 359 528 c 0,8,9
 303 528 303 528 265 500 c 128,-1,10
 227 472 227 472 201 414 c 1,11,-1
 196 414 l 1,12,-1
 262 740 l 1,13,-1
 185 740 l 1,14,-1
 36 0 l 1,15,-1
 113 0 l 1,16,-1
 171 288 l 2,17,18
 177 319 177 319 195 355 c 0,19,20
 207 380 207 380 226 403.5 c 128,-1,21
 245 427 245 427 271.5 442.5 c 128,-1,22
 298 458 298 458 334 458 c 0,23,24
 376 458 376 458 394.5 436.5 c 128,-1,25
 413 415 413 415 413 371 c 0,26,27
 413 331 413 331 359 76 c 0,28,29
 358 71 358 71 358 58 c 0,30,31
 358 0 358 0 422 0 c 2,32,-1
 495 0 l 1,0,-1
EndSplineSet
EndChar

StartChar: i
Encoding: 105 105 74
Width: 264
Flags: W
LayerCount: 2
Fore
SplineSet
206 637 m 0,0,1
 260 637 260 637 264 696 c 1,2,-1
 264 705 l 2,3,4
 264 740 264 740 222 740 c 0,5,6
 197 740 197 740 185 730 c 0,7,8
 170 717 170 717 166 694 c 0,9,10
 164 678 164 678 164 672 c 0,11,12
 164 637 164 637 206 637 c 0,0,1
187 0 m 1,13,-1
 200 68 l 1,14,-1
 127 68 l 1,15,-1
 217 516 l 1,16,-1
 140 516 l 1,17,18
 51 72 51 72 51 63 c 0,19,20
 51 35 51 35 68.5 17.5 c 128,-1,21
 86 0 86 0 121 0 c 2,22,-1
 187 0 l 1,13,-1
EndSplineSet
EndChar

StartChar: j
Encoding: 106 106 75
Width: 253
Flags: W
LayerCount: 2
Fore
SplineSet
-20 -200 m 2,0,1
 33 -200 33 -200 58.5 -175.5 c 128,-1,2
 84 -151 84 -151 94 -98 c 2,3,-1
 217 516 l 1,4,-1
 140 516 l 1,5,-1
 10 -132 l 1,6,-1
 -73 -132 l 1,7,-1
 -87 -200 l 1,8,-1
 -20 -200 l 2,0,1
206 637 m 0,9,10
 260 637 260 637 264 696 c 1,11,-1
 264 705 l 2,12,13
 264 740 264 740 222 740 c 0,14,15
 197 740 197 740 185 730 c 0,16,17
 170 717 170 717 166 694 c 0,18,19
 164 678 164 678 164 672 c 0,20,21
 164 637 164 637 206 637 c 0,9,10
EndSplineSet
EndChar

StartChar: k
Encoding: 107 107 76
Width: 519
Flags: W
LayerCount: 2
Fore
SplineSet
460 0 m 1,0,-1
 473 68 l 1,1,-1
 407 68 l 1,2,-1
 302 308 l 1,3,-1
 532 516 l 1,4,-1
 439 516 l 1,5,-1
 265 363 l 1,6,-1
 173 275 l 1,7,-1
 168 275 l 1,8,-1
 262 740 l 1,9,-1
 185 740 l 1,10,-1
 36 0 l 1,11,-1
 113 0 l 1,12,-1
 149 181 l 1,13,-1
 240 263 l 1,14,-1
 331 54 l 2,15,16
 343 25 343 25 362 12.5 c 128,-1,17
 381 0 381 0 416 0 c 2,18,-1
 460 0 l 1,0,-1
EndSplineSet
EndChar

StartChar: l
Encoding: 108 108 77
Width: 264
Flags: W
LayerCount: 2
Fore
SplineSet
192 0 m 1,0,-1
 205 68 l 1,1,-1
 127 68 l 1,2,-1
 262 740 l 1,3,-1
 185 740 l 1,4,5
 51 72 51 72 51 63 c 0,6,7
 51 35 51 35 68.5 17.5 c 128,-1,8
 86 0 86 0 121 0 c 2,9,-1
 192 0 l 1,0,-1
EndSplineSet
EndChar

StartChar: m
Encoding: 109 109 78
Width: 848
Flags: W
LayerCount: 2
Fore
SplineSet
778 0 m 1,0,-1
 791 68 l 1,1,-1
 718 68 l 1,2,-1
 768 319 l 2,3,4
 775 355 775 355 775 386 c 0,5,6
 775 454 775 454 742.5 491 c 128,-1,7
 710 528 710 528 645 528 c 0,8,9
 531 528 531 528 484 414 c 1,10,-1
 478 414 l 1,11,12
 472 468 472 468 442 498 c 128,-1,13
 412 528 412 528 358 528 c 0,14,15
 301 528 301 528 264 500 c 128,-1,16
 227 472 227 472 201 414 c 1,17,-1
 196 414 l 1,18,-1
 217 516 l 1,19,-1
 140 516 l 1,20,-1
 36 0 l 1,21,-1
 113 0 l 1,22,-1
 171 288 l 2,23,24
 184 355 184 355 241 418 c 0,25,26
 278 458 278 458 330 458 c 0,27,28
 402 458 402 458 402 376 c 0,29,30
 402 348 402 348 396 318 c 2,31,-1
 332 0 l 1,32,-1
 409 0 l 1,33,-1
 467 288 l 2,34,35
 473 320 473 320 490 357 c 128,-1,36
 507 394 507 394 539 426 c 128,-1,37
 571 458 571 458 618 458 c 0,38,39
 660 458 660 458 678.5 437 c 128,-1,40
 697 416 697 416 697 374 c 0,41,42
 697 349 697 349 691 319 c 0,43,44
 640 65 640 65 640 57 c 0,45,46
 640 28 640 28 658 14 c 128,-1,47
 676 0 676 0 706 0 c 2,48,-1
 778 0 l 1,0,-1
EndSplineSet
EndChar

StartChar: n
Encoding: 110 110 79
Width: 565
Flags: W
LayerCount: 2
Fore
SplineSet
495 0 m 1,0,-1
 508 68 l 1,1,-1
 435 68 l 1,2,-1
 485 318 l 2,3,4
 492 357 492 357 492 385 c 0,5,6
 492 452 492 452 459 490 c 128,-1,7
 426 528 426 528 359 528 c 0,8,9
 303 528 303 528 265 500 c 128,-1,10
 227 472 227 472 201 414 c 1,11,-1
 196 414 l 1,12,-1
 217 516 l 1,13,-1
 140 516 l 1,14,-1
 36 0 l 1,15,-1
 113 0 l 1,16,-1
 171 288 l 2,17,18
 177 319 177 319 195 355 c 0,19,20
 207 380 207 380 226 403.5 c 128,-1,21
 245 427 245 427 271.5 442.5 c 128,-1,22
 298 458 298 458 334 458 c 0,23,24
 376 458 376 458 394.5 436.5 c 128,-1,25
 413 415 413 415 413 371 c 0,26,27
 413 331 413 331 359 76 c 0,28,29
 358 71 358 71 358 58 c 0,30,31
 358 0 358 0 422 0 c 2,32,-1
 495 0 l 1,0,-1
EndSplineSet
EndChar

StartChar: o
Encoding: 111 111 80
Width: 550
Flags: W
LayerCount: 2
Fore
SplineSet
235 -12 m 0,0,1
 294 -12 294 -12 343 14.5 c 128,-1,2
 392 41 392 41 427 87 c 0,3,4
 501 186 501 186 501 316 c 0,5,6
 501 420 501 420 449 475 c 0,7,8
 395 528 395 528 315 528 c 0,9,10
 256 528 256 528 207 501.5 c 128,-1,11
 158 475 158 475 123 429 c 0,12,13
 49 331 49 331 49 200 c 0,14,15
 49 98 49 98 101 43 c 128,-1,16
 153 -12 153 -12 235 -12 c 0,0,1
245 57 m 0,17,18
 186 57 186 57 155.5 90.5 c 128,-1,19
 125 124 125 124 125 178 c 0,20,21
 125 198 125 198 130 223 c 2,22,-1
 145 298 l 2,23,24
 162 377 162 377 205.5 418 c 128,-1,25
 249 459 249 459 305 459 c 0,26,27
 364 459 364 459 394.5 425.5 c 128,-1,28
 425 392 425 392 425 338 c 0,29,30
 425 319 425 319 420 293 c 2,31,-1
 405 218 l 2,32,33
 388 139 388 139 344.5 98 c 128,-1,34
 301 57 301 57 245 57 c 0,17,18
EndSplineSet
EndChar

StartChar: p
Encoding: 112 112 81
Width: 572
Flags: W
LayerCount: 2
Fore
SplineSet
73 -200 m 1,0,-1
 130 84 l 1,1,-1
 134 84 l 1,2,3
 147 36 147 36 185 12 c 128,-1,4
 223 -12 223 -12 269 -12 c 0,5,6
 333 -12 333 -12 380.5 19.5 c 128,-1,7
 428 51 428 51 459 102.5 c 128,-1,8
 490 154 490 154 505.5 214 c 128,-1,9
 521 274 521 274 521 331 c 0,10,11
 521 423 521 423 478 475.5 c 128,-1,12
 435 528 435 528 364 528 c 0,13,14
 307 528 307 528 268 498.5 c 128,-1,15
 229 469 229 469 197 404 c 1,16,-1
 194 404 l 1,17,-1
 217 516 l 1,18,-1
 140 516 l 1,19,-1
 -4 -200 l 1,20,-1
 73 -200 l 1,0,-1
262 58 m 0,21,22
 196 58 196 58 166 94 c 0,23,24
 146 119 146 119 146 151 c 0,25,26
 146 164 146 164 149 178 c 2,27,-1
 170 283 l 2,28,29
 186 359 186 359 235 407 c 0,30,31
 258 431 258 431 283.5 444.5 c 128,-1,32
 309 458 309 458 343 458 c 0,33,34
 395 458 395 458 418.5 425 c 128,-1,35
 442 392 442 392 442 341 c 0,36,37
 442 319 442 319 437 290 c 2,38,-1
 422 215 l 2,39,40
 388 58 388 58 262 58 c 0,21,22
EndSplineSet
EndChar

StartChar: q
Encoding: 113 113 82
Width: 572
Flags: W
LayerCount: 2
Fore
SplineSet
392 -200 m 1,0,-1
 536 516 l 1,1,-1
 459 516 l 1,2,-1
 442 432 l 1,3,-1
 438 432 l 1,4,5
 425 480 425 480 387.5 504 c 128,-1,6
 350 528 350 528 303 528 c 0,7,8
 239 528 239 528 191.5 496.5 c 128,-1,9
 144 465 144 465 113 413.5 c 128,-1,10
 82 362 82 362 66.5 302 c 128,-1,11
 51 242 51 242 51 185 c 0,12,13
 51 93 51 93 94 40.5 c 128,-1,14
 137 -12 137 -12 208 -12 c 0,15,16
 265 -12 265 -12 304 17.5 c 128,-1,17
 343 47 343 47 375 112 c 1,18,-1
 378 112 l 1,19,-1
 315 -200 l 1,20,-1
 392 -200 l 1,0,-1
229 58 m 0,21,22
 177 58 177 58 153.5 91 c 128,-1,23
 130 124 130 124 130 175 c 0,24,25
 130 198 130 198 135 226 c 2,26,-1
 150 301 l 2,27,28
 184 458 184 458 310 458 c 0,29,30
 378 458 378 458 406 422 c 0,31,32
 426 398 426 398 426 365 c 0,33,34
 426 352 426 352 423 338 c 2,35,-1
 402 233 l 2,36,37
 386 157 386 157 337 109 c 0,38,39
 314 85 314 85 288.5 71.5 c 128,-1,40
 263 58 263 58 229 58 c 0,21,22
EndSplineSet
EndChar

StartChar: r
Encoding: 114 114 83
Width: 364
Flags: W
LayerCount: 2
Fore
SplineSet
113 0 m 1,0,-1
 175 307 l 2,1,2
 185 361 185 361 224.5 399 c 128,-1,3
 264 437 264 437 336 437 c 2,4,-1
 372 437 l 1,5,-1
 387 516 l 1,6,-1
 355 516 l 2,7,8
 296 516 296 516 258 484 c 128,-1,9
 220 452 220 452 200 413 c 1,10,-1
 195 413 l 1,11,-1
 217 516 l 1,12,-1
 140 516 l 1,13,-1
 36 0 l 1,14,-1
 113 0 l 1,0,-1
EndSplineSet
EndChar

StartChar: s
Encoding: 115 115 84
Width: 487
Flags: W
LayerCount: 2
Fore
SplineSet
217 -12 m 0,0,1
 306 -12 306 -12 357 31 c 128,-1,2
 408 74 408 74 409 146 c 0,3,4
 409 184 409 184 384.5 221 c 128,-1,5
 360 258 360 258 279 288 c 2,6,-1
 241 301 l 2,7,8
 157 332 157 332 157 380 c 0,9,10
 157 417 157 417 182.5 438.5 c 128,-1,11
 208 460 208 460 258 460 c 0,12,13
 348 460 348 460 391 397 c 1,14,-1
 444 445 l 1,15,16
 376 528 376 528 264 528 c 0,17,18
 186 528 186 528 132.5 489.5 c 128,-1,19
 79 451 79 451 79 377 c 0,20,21
 79 330 79 330 110 298 c 0,22,23
 148 255 148 255 217 232 c 2,24,-1
 256 218 l 2,25,26
 303 199 303 199 319 175 c 0,27,28
 330 156 330 156 330 135 c 0,29,30
 330 61 330 61 223 56 c 1,31,32
 131 56 131 56 70 135 c 1,33,-1
 13 89 l 1,34,35
 90 -12 90 -12 217 -12 c 0,0,1
EndSplineSet
EndChar

StartChar: t
Encoding: 116 116 85
Width: 320
Flags: W
LayerCount: 2
Fore
SplineSet
230 0 m 1,0,-1
 243 68 l 1,1,-1
 142 68 l 1,2,-1
 219 448 l 1,3,-1
 328 448 l 1,4,-1
 341 516 l 1,5,-1
 232 516 l 1,6,-1
 260 659 l 1,7,-1
 189 659 l 1,8,-1
 170 565 l 2,9,10
 166 538 166 538 156 527 c 128,-1,11
 146 516 146 516 118 516 c 2,12,-1
 79 516 l 1,13,-1
 66 446 l 1,14,-1
 142 446 l 1,15,-1
 71 98 l 2,16,17
 67 82 67 82 67 64 c 0,18,19
 67 0 67 0 137 0 c 2,20,-1
 230 0 l 1,0,-1
EndSplineSet
EndChar

StartChar: u
Encoding: 117 117 86
Width: 562
Flags: W
LayerCount: 2
Fore
SplineSet
195 -12 m 0,0,1
 303 -12 303 -12 350 102 c 1,2,-1
 355 102 l 1,3,4
 349 72 349 72 349 63 c 0,5,6
 349 35 349 35 365.5 17.5 c 128,-1,7
 382 0 382 0 415 0 c 2,8,-1
 485 0 l 1,9,-1
 498 68 l 1,10,-1
 425 68 l 1,11,-1
 515 516 l 1,12,-1
 438 516 l 1,13,-1
 380 228 l 2,14,15
 374 199 374 199 357 164 c 0,16,17
 346 139 346 139 327 115 c 128,-1,18
 308 91 308 91 281.5 74.5 c 128,-1,19
 255 58 255 58 219 58 c 0,20,21
 177 58 177 58 159.5 80 c 128,-1,22
 142 102 142 102 142 145 c 0,23,24
 142 163 142 163 147 198 c 2,25,-1
 211 516 l 1,26,-1
 134 516 l 1,27,-1
 70 198 l 2,28,29
 63 160 63 160 63 131 c 0,30,31
 63 64 63 64 96 26 c 128,-1,32
 129 -12 129 -12 195 -12 c 0,0,1
EndSplineSet
EndChar

StartChar: v
Encoding: 118 118 87
Width: 484
Flags: W
LayerCount: 2
Fore
SplineSet
237 0 m 1,0,-1
 519 516 l 1,1,-1
 437 516 l 1,2,-1
 299 261 l 1,3,-1
 206 73 l 1,4,-1
 201 73 l 1,5,-1
 180 261 l 1,6,-1
 142 516 l 1,7,-1
 67 516 l 1,8,-1
 146 0 l 1,9,-1
 237 0 l 1,0,-1
EndSplineSet
EndChar

StartChar: w
Encoding: 119 119 88
Width: 740
Flags: W
LayerCount: 2
Fore
SplineSet
525 0 m 1,0,-1
 760 516 l 1,1,-1
 685 516 l 1,2,-1
 492 78 l 1,3,-1
 487 78 l 1,4,-1
 475 256 l 1,5,-1
 453 516 l 1,6,-1
 378 516 l 1,7,-1
 171 74 l 1,8,-1
 166 74 l 1,9,-1
 151 516 l 1,10,-1
 77 516 l 1,11,-1
 105 0 l 1,12,-1
 203 0 l 1,13,-1
 336 279 l 1,14,-1
 395 411 l 1,15,-1
 400 411 l 1,16,-1
 407 279 l 1,17,-1
 432 0 l 1,18,-1
 525 0 l 1,0,-1
EndSplineSet
EndChar

StartChar: x
Encoding: 120 120 89
Width: 494
Flags: W
LayerCount: 2
Fore
SplineSet
430 0 m 1,0,-1
 294 260 l 1,1,-1
 518 516 l 1,2,-1
 430 516 l 1,3,-1
 262 318 l 1,4,-1
 257 318 l 1,5,-1
 164 516 l 1,6,-1
 80 516 l 1,7,-1
 206 267 l 1,8,-1
 -28 0 l 1,9,-1
 60 0 l 1,10,-1
 238 210 l 1,11,-1
 243 210 l 1,12,-1
 346 0 l 1,13,-1
 430 0 l 1,0,-1
EndSplineSet
EndChar

StartChar: y
Encoding: 121 121 90
Width: 484
Flags: W
LayerCount: 2
Fore
SplineSet
60 -200 m 2,0,1
 99 -200 99 -200 123 -181 c 128,-1,2
 147 -162 147 -162 171 -117 c 2,3,-1
 520 516 l 1,4,-1
 438 516 l 1,5,-1
 300 261 l 1,6,-1
 207 73 l 1,7,-1
 202 73 l 1,8,-1
 181 261 l 1,9,-1
 143 516 l 1,10,-1
 68 516 l 1,11,-1
 150 -16 l 1,12,-1
 86 -134 l 1,13,-1
 -7 -134 l 1,14,-1
 -20 -200 l 1,15,-1
 60 -200 l 2,0,1
EndSplineSet
EndChar

StartChar: z
Encoding: 122 122 91
Width: 448
Flags: W
LayerCount: 2
Fore
SplineSet
368 0 m 1,0,-1
 381 68 l 1,1,-1
 101 68 l 1,2,-1
 444 450 l 1,3,-1
 457 516 l 1,4,-1
 98 516 l 1,5,-1
 85 448 l 1,6,-1
 351 448 l 1,7,-1
 8 66 l 1,8,-1
 -5 0 l 1,9,-1
 368 0 l 1,0,-1
EndSplineSet
EndChar

StartChar: braceleft
Encoding: 123 123 92
Width: 329
Flags: W
LayerCount: 2
Fore
SplineSet
193 -138 m 1,0,-1
 207 -75 l 1,1,-1
 116 -75 l 1,2,3
 171 202 171 202 171 211 c 0,4,5
 171 283 171 283 99 300 c 1,6,-1
 102 316 l 1,7,8
 161 324 161 324 186.5 361 c 128,-1,9
 212 398 212 398 220 446 c 2,10,-1
 270 697 l 1,11,-1
 360 697 l 1,12,-1
 371 760 l 1,13,-1
 283 760 l 2,14,15
 214 760 214 760 197 676 c 2,16,-1
 150 441 l 2,17,18
 142 399 142 399 117.5 374.5 c 128,-1,19
 93 350 93 350 43 350 c 1,20,-1
 27 272 l 1,21,22
 61 272 61 272 81 256 c 128,-1,23
 101 240 101 240 101 207 c 0,24,25
 101 197 101 197 98 181 c 2,26,-1
 52 -47 l 2,27,28
 49 -62 49 -62 49 -76 c 0,29,30
 49 -103 49 -103 65.5 -120.5 c 128,-1,31
 82 -138 82 -138 115 -138 c 2,32,-1
 193 -138 l 1,0,-1
EndSplineSet
EndChar

StartChar: bar
Encoding: 124 124 93
Width: 306
Flags: W
LayerCount: 2
Fore
SplineSet
107 -138 m 1,0,-1
 288 760 l 1,1,-1
 222 760 l 1,2,-1
 41 -138 l 1,3,-1
 107 -138 l 1,0,-1
EndSplineSet
EndChar

StartChar: braceright
Encoding: 125 125 94
Width: 329
Flags: W
LayerCount: 2
Fore
SplineSet
67 -138 m 2,0,1
 136 -138 136 -138 153 -54 c 2,2,-1
 200 181 l 2,3,4
 208 223 208 223 232.5 247.5 c 128,-1,5
 257 272 257 272 307 272 c 1,6,-1
 323 350 l 1,7,8
 289 350 289 350 269 366 c 128,-1,9
 249 382 249 382 249 415 c 0,10,11
 249 426 249 426 252 441 c 2,12,-1
 298 669 l 2,13,14
 301 684 301 684 301 698 c 0,15,16
 301 725 301 725 284.5 742.5 c 128,-1,17
 268 760 268 760 235 760 c 2,18,-1
 157 760 l 1,19,-1
 143 697 l 1,20,-1
 234 697 l 1,21,22
 179 420 179 420 179 411 c 0,23,24
 179 375 179 375 197.5 351 c 128,-1,25
 216 327 216 327 251 320 c 1,26,-1
 248 304 l 1,27,28
 148 291 148 291 130 176 c 1,29,-1
 80 -75 l 1,30,-1
 -10 -75 l 1,31,-1
 -21 -138 l 1,32,-1
 67 -138 l 2,0,1
EndSplineSet
EndChar

StartChar: asciitilde
Encoding: 126 126 95
Width: 600
Flags: W
LayerCount: 2
Fore
SplineSet
410 236 m 0,0,1
 455 236 455 236 484.5 251 c 128,-1,2
 514 266 514 266 537 290 c 1,3,-1
 513 336 l 1,4,5
 472 302 472 302 425 302 c 0,6,7
 395 302 395 302 371.5 311.5 c 128,-1,8
 348 321 348 321 324 336 c 0,9,10
 295 353 295 353 269 363.5 c 128,-1,11
 243 374 243 374 209 374 c 0,12,13
 164 374 164 374 134.5 359 c 128,-1,14
 105 344 105 344 82 320 c 1,15,-1
 106 274 l 1,16,17
 148 308 148 308 194 308 c 0,18,19
 224 308 224 308 247.5 298.5 c 128,-1,20
 271 289 271 289 295 274 c 0,21,22
 324 257 324 257 350 246.5 c 128,-1,23
 376 236 376 236 410 236 c 0,0,1
EndSplineSet
EndChar

StartChar: exclamdown
Encoding: 161 161 97
Width: 271
Flags: W
LayerCount: 2
Fore
SplineSet
89 -181 m 1,0,-1
 130 22 l 1,1,-1
 169 331 l 1,2,-1
 131 331 l 1,3,-1
 47 22 l 1,4,-1
 6 -181 l 1,5,-1
 89 -181 l 1,0,-1
165 399 m 0,6,7
 222 399 222 399 230 454 c 0,8,9
 234 472 234 472 234 488 c 0,10,11
 234 528 234 528 185 528 c 2,12,-1
 183 528 l 2,13,14
 126 528 126 528 118 473 c 0,15,16
 114 457 114 457 114 439 c 0,17,18
 114 399 114 399 165 399 c 0,6,7
EndSplineSet
EndChar

StartChar: cent
Encoding: 162 162 98
Width: 505
Flags: W
LayerCount: 2
Fore
SplineSet
223 -114 m 1,0,-1
 243 -12 l 1,1,2
 374 -4 374 -4 436 128 c 1,3,-1
 375 158 l 1,4,5
 324 57 324 57 256 55 c 1,6,-1
 335 455 l 1,7,8
 391 440 391 440 408 377 c 1,9,-1
 475 408 l 1,10,11
 446 498 446 498 351 522 c 1,12,-1
 373 630 l 1,13,-1
 305 630 l 1,14,-1
 284 526 l 1,15,16
 173 515 173 515 111 420.5 c 128,-1,17
 49 326 49 326 49 200 c 0,18,19
 49 38 49 38 178 -4 c 1,20,-1
 155 -114 l 1,21,-1
 223 -114 l 1,0,-1
192 63 m 1,22,23
 158 78 158 78 141.5 108.5 c 128,-1,24
 125 139 125 139 125 181 c 0,25,26
 125 204 125 204 129 229 c 2,27,-1
 146 312 l 2,28,29
 170 434 170 434 271 456 c 1,30,-1
 192 63 l 1,22,23
EndSplineSet
EndChar

StartChar: sterling
Encoding: 163 163 99
Width: 577
Flags: W
LayerCount: 2
Fore
SplineSet
452 0 m 1,0,-1
 467 72 l 1,1,-1
 115 72 l 1,2,-1
 117 77 l 1,3,4
 157 102 157 102 191 157.5 c 128,-1,5
 225 213 225 213 228 288 c 1,6,-1
 420 288 l 1,7,-1
 434 356 l 1,8,-1
 225 356 l 1,9,10
 220 399 220 399 220 441 c 0,11,12
 220 539 220 539 265 588.5 c 128,-1,13
 310 638 310 638 387 638 c 0,14,15
 438 638 438 638 469.5 614.5 c 128,-1,16
 501 591 501 591 521 549 c 1,17,-1
 589 594 l 1,18,19
 532 710 532 710 393 710 c 0,20,21
 278 710 278 710 207.5 636.5 c 128,-1,22
 137 563 137 563 137 449 c 0,23,24
 137 403 137 403 144 356 c 1,25,-1
 75 356 l 1,26,-1
 61 288 l 1,27,-1
 148 288 l 1,28,29
 148 231 148 231 132 189 c 0,30,31
 113 134 113 134 47 102 c 1,32,-1
 26 0 l 1,33,-1
 452 0 l 1,0,-1
EndSplineSet
EndChar

StartChar: yen
Encoding: 165 165 100
Width: 594
Flags: W
LayerCount: 2
Fore
SplineSet
285 0 m 1,0,-1
 315 145 l 1,1,-1
 485 145 l 1,2,-1
 498 211 l 1,3,-1
 327 211 l 1,4,-1
 347 308 l 1,5,-1
 518 308 l 1,6,-1
 530 374 l 1,7,-1
 396 374 l 1,8,-1
 645 698 l 1,9,-1
 551 698 l 1,10,-1
 320 386 l 1,11,-1
 316 386 l 1,12,-1
 212 698 l 1,13,-1
 127 698 l 1,14,-1
 242 374 l 1,15,-1
 112 374 l 1,16,-1
 100 308 l 1,17,-1
 267 308 l 1,18,-1
 247 211 l 1,19,-1
 80 211 l 1,20,-1
 67 145 l 1,21,-1
 235 145 l 1,22,-1
 205 0 l 1,23,-1
 285 0 l 1,0,-1
EndSplineSet
EndChar

StartChar: brokenbar
Encoding: 166 166 101
Width: 306
Flags: W
LayerCount: 2
Fore
SplineSet
216 406 m 1,0,-1
 288 760 l 1,1,-1
 222 760 l 1,2,-1
 150 406 l 1,3,-1
 216 406 l 1,0,-1
107 -138 m 1,4,-1
 179 216 l 1,5,-1
 113 216 l 1,6,-1
 41 -138 l 1,7,-1
 107 -138 l 1,4,-1
EndSplineSet
EndChar

StartChar: section
Encoding: 167 167 102
Width: 557
Flags: W
LayerCount: 2
Fore
SplineSet
197 -155 m 0,0,1
 281 -155 281 -155 343 -107 c 0,2,3
 404 -56 404 -56 404 24 c 0,4,5
 404 94 404 94 352 135 c 1,6,-1
 353 144 l 1,7,8
 414 156 414 156 452 197 c 128,-1,9
 490 238 490 238 490 301 c 0,10,11
 490 391 490 391 368 431 c 2,12,-1
 309 451 l 2,13,14
 267 465 267 465 249.5 487.5 c 128,-1,15
 232 510 232 510 232 540 c 0,16,17
 232 588 232 588 268.5 615 c 128,-1,18
 305 642 305 642 353 642 c 0,19,20
 430 642 430 642 477 597 c 1,21,-1
 531 651 l 1,22,23
 467 710 467 710 360 710 c 0,24,25
 276 710 276 710 215 662 c 0,26,27
 153 610 153 610 153 531 c 0,28,29
 153 461 153 461 205 420 c 1,30,-1
 204 411 l 1,31,32
 143 399 143 399 105 358 c 128,-1,33
 67 317 67 317 67 254 c 0,34,35
 67 164 67 164 189 124 c 2,36,-1
 248 104 l 2,37,38
 290 90 290 90 307.5 67.5 c 128,-1,39
 325 45 325 45 325 15 c 0,40,41
 325 -33 325 -33 288 -59 c 0,42,43
 252 -87 252 -87 204 -87 c 0,44,45
 128 -87 128 -87 80 -42 c 1,46,-1
 26 -96 l 1,47,48
 91 -155 91 -155 197 -155 c 0,0,1
319 154 m 1,49,50
 306 160 306 160 240 181 c 0,51,52
 192 196 192 196 169.5 218 c 128,-1,53
 147 240 147 240 147 282 c 0,54,55
 147 317 147 317 170.5 350 c 128,-1,56
 194 383 194 383 238 401 c 1,57,58
 251 395 251 395 317 374 c 0,59,60
 365 359 365 359 387.5 337 c 128,-1,61
 410 315 410 315 410 273 c 0,62,63
 410 238 410 238 386.5 205 c 128,-1,64
 363 172 363 172 319 154 c 1,49,50
EndSplineSet
EndChar

StartChar: dieresis
Encoding: 168 168 103
Width: 593
Flags: W
LayerCount: 2
Fore
SplineSet
217 618 m 0,0,1
 264 618 264 618 273 665 c 0,2,3
 276 682 276 682 276 686 c 0,4,5
 276 721 276 721 234 721 c 0,6,7
 188 721 188 721 178 674 c 0,8,9
 175 663 175 663 175 653 c 0,10,11
 175 619 175 619 217 618 c 0,0,1
399 618 m 0,12,13
 446 618 446 618 455 665 c 0,14,15
 458 682 458 682 458 686 c 0,16,17
 458 721 458 721 416 721 c 0,18,19
 370 721 370 721 360 674 c 0,20,21
 357 663 357 663 357 653 c 0,22,23
 357 619 357 619 399 618 c 0,12,13
EndSplineSet
EndChar

StartChar: copyright
Encoding: 169 169 104
Width: 784
Flags: W
LayerCount: 2
Fore
SplineSet
358 -12 m 0,0,1
 526 -12 526 -12 640 107 c 0,2,3
 693 163 693 163 722.5 238.5 c 128,-1,4
 752 314 752 314 752 404 c 0,5,6
 752 538 752 538 672.5 623 c 128,-1,7
 593 708 593 708 461 708 c 0,8,9
 293 708 293 708 180 590 c 0,10,11
 127 534 127 534 97 458 c 128,-1,12
 67 382 67 382 67 292 c 0,13,14
 67 156 67 156 147 73 c 0,15,16
 226 -12 226 -12 358 -12 c 0,0,1
362 46 m 0,17,18
 260 46 260 46 195.5 113 c 128,-1,19
 131 180 131 180 131 292 c 0,20,21
 131 330 131 330 146 400 c 0,22,23
 169 507 169 507 255.5 578.5 c 128,-1,24
 342 650 342 650 457 650 c 0,25,26
 559 650 559 650 623.5 583.5 c 128,-1,27
 688 517 688 517 688 404 c 0,28,29
 688 367 688 367 673 296 c 0,30,31
 651 190 651 190 564.5 118 c 128,-1,32
 478 46 478 46 362 46 c 0,17,18
380 155 m 0,33,34
 475 155 475 155 535 244 c 1,35,-1
 487 282 l 1,36,37
 441 216 441 216 388 216 c 0,38,39
 324 216 324 216 321 292 c 0,40,41
 321 306 321 306 324 320 c 2,42,-1
 336 379 l 2,43,44
 345 425 345 425 369.5 454 c 128,-1,45
 394 483 394 483 436 483 c 0,46,47
 495 483 495 483 510 423 c 1,48,-1
 568 447 l 1,49,50
 557 486 557 486 525 514.5 c 128,-1,51
 493 543 493 543 439 543 c 0,52,53
 355 543 355 543 302.5 472.5 c 128,-1,54
 250 402 250 402 250 301 c 0,55,56
 250 232 250 232 284.5 193.5 c 128,-1,57
 319 155 319 155 380 155 c 0,33,34
EndSplineSet
EndChar

StartChar: ordfeminine
Encoding: 170 170 105
Width: 390
Flags: W
LayerCount: 2
Fore
SplineSet
168 349 m 256,0,1
 210 349 210 349 239.5 367.5 c 128,-1,2
 269 386 269 386 284 410 c 1,3,-1
 288 410 l 1,4,5
 287 405 287 405 287 397 c 0,6,7
 287 357 287 357 337 357 c 2,8,-1
 370 357 l 1,9,-1
 381 412 l 1,10,-1
 345 412 l 1,11,-1
 376 566 l 2,12,13
 380 586 380 586 380 605 c 0,14,15
 380 658 380 658 349 684 c 128,-1,16
 318 710 318 710 265 710 c 0,17,18
 217 710 217 710 180.5 689.5 c 128,-1,19
 144 669 144 669 123 641 c 1,20,-1
 159 607 l 1,21,22
 196 659 196 659 257 659 c 0,23,24
 319 659 319 659 319 604 c 2,25,-1
 319 591 l 2,26,27
 319 586 319 586 312 551 c 1,28,-1
 242 551 l 2,29,30
 163 551 163 551 120.5 520 c 128,-1,31
 78 489 78 489 78 428 c 0,32,33
 78 393 78 393 102 371 c 128,-1,34
 126 349 126 349 168 349 c 256,0,1
189 399 m 0,35,36
 140 399 140 399 139 435 c 0,37,38
 139 507 139 507 232 507 c 2,39,-1
 303 507 l 1,40,-1
 295 467 l 2,41,42
 288 437 288 437 257.5 418 c 128,-1,43
 227 399 227 399 189 399 c 0,35,36
EndSplineSet
EndChar

StartChar: guillemotleft
Encoding: 171 171 106
Width: 499
Flags: W
LayerCount: 2
Fore
SplineSet
186 78 m 1,0,-1
 218 130 l 1,1,-1
 114 280 l 1,2,-1
 278 429 l 1,3,-1
 264 488 l 1,4,-1
 47 323 l 1,5,-1
 32 250 l 1,6,-1
 186 78 l 1,0,-1
387 78 m 1,7,-1
 419 130 l 1,8,-1
 315 280 l 1,9,-1
 479 429 l 1,10,-1
 465 488 l 1,11,-1
 248 323 l 1,12,-1
 233 250 l 1,13,-1
 387 78 l 1,7,-1
EndSplineSet
EndChar

StartChar: logicalnot
Encoding: 172 172 107
Width: 600
Flags: W
LayerCount: 2
Fore
SplineSet
490 78 m 1,0,-1
 542 339 l 1,1,-1
 82 339 l 1,2,-1
 68 273 l 1,3,-1
 462 273 l 1,4,-1
 423 78 l 1,5,-1
 490 78 l 1,0,-1
EndSplineSet
EndChar

StartChar: u00AD
Encoding: 173 173 108
Width: 387
Flags: W
LayerCount: 2
Fore
SplineSet
320 263 m 1,0,-1
 336 345 l 1,1,-1
 85 345 l 1,2,-1
 69 263 l 1,3,-1
 320 263 l 1,0,-1
EndSplineSet
EndChar

StartChar: registered
Encoding: 174 174 109
Width: 469
Flags: W
LayerCount: 2
Fore
SplineSet
263 298 m 0,0,1
 358 298 358 298 418.5 365.5 c 128,-1,2
 479 433 479 433 479 535 c 0,3,4
 479 609 479 609 428.5 659.5 c 128,-1,5
 378 710 378 710 306 710 c 0,6,7
 212 710 212 710 151 642.5 c 128,-1,8
 90 575 90 575 90 473 c 0,9,10
 90 400 90 400 140.5 349 c 128,-1,11
 191 298 191 298 263 298 c 0,0,1
267 337 m 0,12,13
 208 337 208 337 170 375.5 c 128,-1,14
 132 414 132 414 132 476 c 0,15,16
 132 481 132 481 133.5 498 c 128,-1,17
 135 515 135 515 137 527 c 0,18,19
 150 591 150 591 193.5 631 c 128,-1,20
 237 671 237 671 302 671 c 0,21,22
 361 671 361 671 399 632.5 c 128,-1,23
 437 594 437 594 437 532 c 0,24,25
 437 527 437 527 435.5 510 c 128,-1,26
 434 493 434 493 432 481 c 0,27,28
 419 417 419 417 375.5 377 c 128,-1,29
 332 337 332 337 267 337 c 0,12,13
350 400 m 1,30,-1
 320 485 l 1,31,32
 344 491 344 491 358 510.5 c 128,-1,33
 372 530 372 530 372 556 c 0,34,35
 372 577 372 577 358.5 593 c 128,-1,36
 345 609 345 609 317 609 c 2,37,-1
 235 609 l 1,38,-1
 193 400 l 1,39,-1
 232 400 l 1,40,-1
 248 481 l 1,41,-1
 283 481 l 1,42,-1
 309 400 l 1,43,-1
 350 400 l 1,30,-1
298 511 m 2,44,-1
 254 511 l 1,45,-1
 267 576 l 1,46,-1
 312 576 l 2,47,48
 331 576 331 576 331 561 c 0,49,50
 331 556 331 556 329.5 551.5 c 128,-1,51
 328 547 328 547 326 532 c 0,52,53
 321 511 321 511 298 511 c 2,44,-1
EndSplineSet
EndChar

StartChar: macron
Encoding: 175 175 110
Width: 593
Flags: W
LayerCount: 2
Fore
SplineSet
446 639 m 1,0,-1
 460 705 l 1,1,-1
 188 705 l 1,2,-1
 174 639 l 1,3,-1
 446 639 l 1,0,-1
EndSplineSet
EndChar

StartChar: degree
Encoding: 176 176 111
Width: 454
Flags: W
LayerCount: 2
Fore
SplineSet
263 366 m 0,0,1
 343 366 343 366 395 421 c 128,-1,2
 447 476 447 476 447 560 c 0,3,4
 447 626 447 626 405 668 c 128,-1,5
 363 710 363 710 303 710 c 0,6,7
 221 710 221 710 170 655 c 128,-1,8
 119 600 119 600 119 517 c 0,9,10
 119 450 119 450 161 408 c 128,-1,11
 203 366 203 366 263 366 c 0,0,1
272 430 m 0,12,13
 233 430 233 430 210 456 c 128,-1,14
 187 482 187 482 187 519 c 0,15,16
 187 572 187 572 216 609 c 128,-1,17
 245 646 245 646 294 646 c 0,18,19
 333 646 333 646 356 620 c 128,-1,20
 379 594 379 594 379 557 c 0,21,22
 379 505 379 505 350.5 467.5 c 128,-1,23
 322 430 322 430 272 430 c 0,12,13
EndSplineSet
EndChar

StartChar: plusminus
Encoding: 177 177 112
Width: 600
Flags: W
LayerCount: 2
Fore
SplineSet
317 153 m 1,0,-1
 357 353 l 1,1,-1
 544 353 l 1,2,-1
 557 419 l 1,3,-1
 370 419 l 1,4,-1
 410 619 l 1,5,-1
 337 619 l 1,6,-1
 297 419 l 1,7,-1
 107 419 l 1,8,-1
 94 353 l 1,9,-1
 284 353 l 1,10,-1
 244 153 l 1,11,-1
 317 153 l 1,0,-1
474 0 m 1,12,-1
 487 66 l 1,13,-1
 37 66 l 1,14,-1
 24 0 l 1,15,-1
 474 0 l 1,12,-1
EndSplineSet
EndChar

StartChar: u00B2
Encoding: 178 178 113
Width: 339
Flags: W
LayerCount: 2
Fore
SplineSet
306 329 m 1,0,-1
 316 378 l 1,1,-1
 124 378 l 1,2,-1
 231 453 l 2,3,4
 283 488 283 488 305 510 c 0,5,6
 350 554 350 554 350 606 c 0,7,8
 350 656 350 656 314.5 680 c 128,-1,9
 279 704 279 704 231 704 c 0,10,11
 134 704 134 704 94 614 c 1,12,-1
 145 591 l 1,13,14
 172 653 172 653 225 653 c 0,15,16
 251 653 251 653 267.5 640 c 128,-1,17
 284 627 284 627 284 604 c 0,18,19
 284 596 284 596 282 589 c 2,20,-1
 281 585 l 2,21,22
 275 552 275 552 251 530.5 c 128,-1,23
 227 509 227 509 192 486 c 2,24,-1
 57 388 l 1,25,-1
 45 329 l 1,26,-1
 306 329 l 1,0,-1
EndSplineSet
EndChar

StartChar: u00B3
Encoding: 179 179 114
Width: 339
Flags: W
LayerCount: 2
Fore
SplineSet
176 323 m 0,0,1
 242 323 242 323 282 357.5 c 128,-1,2
 322 392 322 392 322 441 c 0,3,4
 322 505 322 505 260 516 c 1,5,-1
 260 518 l 1,6,7
 296 525 296 525 322 549.5 c 128,-1,8
 348 574 348 574 348 614 c 0,9,10
 348 652 348 652 319.5 678 c 128,-1,11
 291 704 291 704 238 704 c 0,12,13
 153 704 153 704 105 641 c 1,14,-1
 141 607 l 1,15,16
 179 655 179 655 233 655 c 0,17,18
 259 655 259 655 272.5 642.5 c 128,-1,19
 286 630 286 630 286 614 c 2,20,-1
 284 599 l 2,21,22
 279 575 279 575 266 563 c 0,23,24
 245 545 245 545 207 545 c 2,25,-1
 161 545 l 1,26,-1
 151 496 l 1,27,-1
 194 496 l 2,28,29
 259 496 259 496 261 446 c 0,30,31
 261 440 261 440 260 435 c 0,32,33
 255 405 255 405 236.5 388.5 c 128,-1,34
 218 372 218 372 177 372 c 0,35,36
 113 372 113 372 89 423 c 1,37,-1
 44 392 l 1,38,39
 56 364 56 364 87.5 343.5 c 128,-1,40
 119 323 119 323 176 323 c 0,0,1
EndSplineSet
EndChar

StartChar: acute
Encoding: 180 180 115
Width: 593
Flags: W
LayerCount: 2
Fore
SplineSet
317 585 m 1,0,-1
 441 744 l 1,1,-1
 373 780 l 1,2,-1
 269 610 l 1,3,-1
 317 585 l 1,0,-1
EndSplineSet
EndChar

StartChar: mu
Encoding: 181 181 116
Width: 568
Flags: W
LayerCount: 2
Fore
SplineSet
75 -200 m 1,0,-1
 106 -46 l 1,1,-1
 116 59 l 1,2,-1
 120 59 l 1,3,4
 136 -12 136 -12 207 -12 c 0,5,6
 263 -12 263 -12 296.5 16.5 c 128,-1,7
 330 45 330 45 357 103 c 1,8,-1
 361 103 l 1,9,10
 355 70 355 70 355 63 c 0,11,12
 355 35 355 35 371.5 17.5 c 128,-1,13
 388 0 388 0 422 0 c 2,14,-1
 491 0 l 1,15,-1
 504 68 l 1,16,-1
 431 68 l 1,17,-1
 521 516 l 1,18,-1
 444 516 l 1,19,-1
 386 228 l 2,20,21
 380 199 380 199 363 164 c 0,22,23
 352 139 352 139 333 115 c 128,-1,24
 314 91 314 91 287.5 74.5 c 128,-1,25
 261 58 261 58 225 58 c 0,26,27
 183 58 183 58 165.5 80 c 128,-1,28
 148 102 148 102 148 145 c 0,29,30
 148 163 148 163 153 198 c 2,31,-1
 217 516 l 1,32,-1
 140 516 l 1,33,-1
 -3 -200 l 1,34,-1
 75 -200 l 1,0,-1
EndSplineSet
EndChar

StartChar: paragraph
Encoding: 182 182 117
Width: 629
Flags: W
LayerCount: 2
Fore
SplineSet
404 -149 m 1,0,-1
 561 632 l 1,1,-1
 625 632 l 1,2,-1
 637 698 l 1,3,-1
 326 698 l 2,4,5
 232 698 232 698 164 635.5 c 128,-1,6
 96 573 96 573 96 475 c 0,7,8
 96 405 96 405 141.5 353 c 128,-1,9
 187 301 187 301 247 301 c 1,10,-1
 156 -149 l 1,11,-1
 227 -149 l 1,12,-1
 384 632 l 1,13,-1
 490 632 l 1,14,-1
 333 -149 l 1,15,-1
 404 -149 l 1,0,-1
EndSplineSet
EndChar

StartChar: periodcentered
Encoding: 183 183 118
Width: 316
Flags: W
LayerCount: 2
Fore
SplineSet
149 240 m 0,0,1
 206 240 206 240 214 295 c 0,2,3
 218 313 218 313 218 329 c 0,4,5
 218 369 218 369 169 369 c 2,6,-1
 167 369 l 2,7,8
 110 369 110 369 102 314 c 0,9,10
 98 298 98 298 98 280 c 0,11,12
 98 240 98 240 149 240 c 0,0,1
EndSplineSet
EndChar

StartChar: cedilla
Encoding: 184 184 119
Width: 593
Flags: W
LayerCount: 2
Fore
SplineSet
279 -207 m 0,0,1
 327 -207 327 -207 357 -182.5 c 128,-1,2
 387 -158 387 -158 387 -116 c 0,3,4
 387 -60 387 -60 328 -60 c 0,5,6
 312 -60 312 -60 303 -63 c 2,7,-1
 297 -64 l 1,8,-1
 295 -62 l 1,9,-1
 321 20 l 1,10,-1
 271 20 l 1,11,-1
 242 -76 l 1,12,-1
 268 -79 l 2,13,14
 300 -83 300 -83 311.5 -92.5 c 128,-1,15
 323 -102 323 -102 323 -118 c 0,16,17
 323 -149 323 -149 277 -154 c 0,18,19
 255 -154 255 -154 240 -146.5 c 128,-1,20
 225 -139 225 -139 218 -129 c 1,21,-1
 178 -170 l 1,22,23
 189 -185 189 -185 215 -196 c 128,-1,24
 241 -207 241 -207 279 -207 c 0,0,1
EndSplineSet
EndChar

StartChar: u00B9
Encoding: 185 185 120
Width: 339
Flags: W
LayerCount: 2
Fore
SplineSet
229 329 m 1,0,-1
 169 329 l 1,1,-1
 232 641 l 1,2,-1
 143 594 l 1,3,-1
 155 652 l 1,4,-1
 240 698 l 1,5,-1
 303 698 l 1,6,-1
 229 329 l 1,0,-1
EndSplineSet
EndChar

StartChar: ordmasculine
Encoding: 186 186 121
Width: 389
Flags: W
LayerCount: 2
Fore
SplineSet
221 350 m 0,0,1
 310 350 310 350 359 421 c 0,2,3
 403 485 403 485 403 578 c 0,4,5
 403 635 403 635 368.5 672.5 c 128,-1,6
 334 710 334 710 276 710 c 0,7,8
 188 710 188 710 139 639 c 0,9,10
 94 568 94 568 94 482 c 0,11,12
 94 425 94 425 128.5 387.5 c 128,-1,13
 163 350 163 350 221 350 c 0,0,1
229 401 m 0,14,15
 157 401 157 401 155 474 c 0,16,17
 155 488 155 488 159 503 c 2,18,-1
 171 561 l 2,19,20
 180 604 180 604 204.5 631.5 c 128,-1,21
 229 659 229 659 268 659 c 0,22,23
 340 659 340 659 342 586 c 0,24,25
 342 573 342 573 338 557 c 2,26,-1
 326 499 l 2,27,28
 317 456 317 456 292.5 428.5 c 128,-1,29
 268 401 268 401 229 401 c 0,14,15
EndSplineSet
EndChar

StartChar: guillemotright
Encoding: 187 187 122
Width: 499
Flags: W
LayerCount: 2
Fore
SplineSet
240 78 m 1,0,-1
 457 243 l 1,1,-1
 472 316 l 1,2,-1
 318 488 l 1,3,-1
 286 436 l 1,4,-1
 390 286 l 1,5,-1
 226 137 l 1,6,-1
 240 78 l 1,0,-1
39 78 m 1,7,-1
 256 243 l 1,8,-1
 271 316 l 1,9,-1
 117 488 l 1,10,-1
 85 436 l 1,11,-1
 189 286 l 1,12,-1
 25 137 l 1,13,-1
 39 78 l 1,7,-1
EndSplineSet
EndChar

StartChar: onequarter
Encoding: 188 188 123
Width: 804
Flags: W
LayerCount: 2
Fore
SplineSet
142 0 m 1,0,-1
 751 698 l 1,1,-1
 678 698 l 1,2,-1
 69 0 l 1,3,-1
 142 0 l 1,0,-1
653 0 m 1,4,-1
 668 73 l 1,5,-1
 719 73 l 1,6,-1
 728 119 l 1,7,-1
 677 119 l 1,8,-1
 727 369 l 1,9,-1
 652 369 l 1,10,-1
 438 125 l 1,11,-1
 428 73 l 1,12,-1
 610 73 l 1,13,-1
 595 0 l 1,14,-1
 653 0 l 1,4,-1
619 119 m 1,15,-1
 493 119 l 1,16,-1
 652 300 l 1,17,-1
 655 300 l 1,18,-1
 619 119 l 1,15,-1
229 329 m 1,19,-1
 169 329 l 1,20,-1
 232 641 l 1,21,-1
 125 584 l 1,22,-1
 137 642 l 1,23,-1
 240 698 l 1,24,-1
 303 698 l 1,25,-1
 229 329 l 1,19,-1
EndSplineSet
EndChar

StartChar: onehalf
Encoding: 189 189 124
Width: 806
Flags: W
LayerCount: 2
Fore
SplineSet
142 0 m 1,0,-1
 751 698 l 1,1,-1
 678 698 l 1,2,-1
 69 0 l 1,3,-1
 142 0 l 1,0,-1
715 0 m 1,4,-1
 725 49 l 1,5,-1
 533 49 l 1,6,-1
 640 124 l 2,7,8
 692 159 692 159 714 181 c 0,9,10
 759 225 759 225 759 277 c 0,11,12
 759 327 759 327 723.5 351 c 128,-1,13
 688 375 688 375 640 375 c 0,14,15
 543 375 543 375 503 285 c 1,16,-1
 554 262 l 1,17,18
 581 324 581 324 634 324 c 0,19,20
 660 324 660 324 676.5 311 c 128,-1,21
 693 298 693 298 693 275 c 0,22,23
 693 267 693 267 691 260 c 2,24,-1
 690 256 l 2,25,26
 684 223 684 223 660 201.5 c 128,-1,27
 636 180 636 180 601 157 c 2,28,-1
 466 59 l 1,29,-1
 454 0 l 1,30,-1
 715 0 l 1,4,-1
229 329 m 1,31,-1
 169 329 l 1,32,-1
 232 641 l 1,33,-1
 125 584 l 1,34,-1
 137 642 l 1,35,-1
 240 698 l 1,36,-1
 303 698 l 1,37,-1
 229 329 l 1,31,-1
EndSplineSet
EndChar

StartChar: threequarters
Encoding: 190 190 125
Width: 834
Flags: W
LayerCount: 2
Fore
SplineSet
176 323 m 0,0,1
 242 323 242 323 282 357.5 c 128,-1,2
 322 392 322 392 322 441 c 0,3,4
 322 505 322 505 260 516 c 1,5,-1
 260 518 l 1,6,7
 296 525 296 525 322 549.5 c 128,-1,8
 348 574 348 574 348 614 c 0,9,10
 348 652 348 652 319.5 678 c 128,-1,11
 291 704 291 704 238 704 c 0,12,13
 153 704 153 704 105 641 c 1,14,-1
 141 607 l 1,15,16
 179 655 179 655 233 655 c 0,17,18
 259 655 259 655 272.5 642.5 c 128,-1,19
 286 630 286 630 286 614 c 2,20,-1
 284 599 l 2,21,22
 279 575 279 575 266 563 c 0,23,24
 245 545 245 545 207 545 c 2,25,-1
 161 545 l 1,26,-1
 151 496 l 1,27,-1
 194 496 l 2,28,29
 259 496 259 496 261 446 c 0,30,31
 261 440 261 440 260 435 c 0,32,33
 255 405 255 405 236.5 388.5 c 128,-1,34
 218 372 218 372 177 372 c 0,35,36
 113 372 113 372 89 423 c 1,37,-1
 44 392 l 1,38,39
 56 364 56 364 87.5 343.5 c 128,-1,40
 119 323 119 323 176 323 c 0,0,1
172 0 m 1,41,-1
 781 698 l 1,42,-1
 708 698 l 1,43,-1
 99 0 l 1,44,-1
 172 0 l 1,41,-1
683 0 m 1,45,-1
 698 73 l 1,46,-1
 749 73 l 1,47,-1
 758 119 l 1,48,-1
 707 119 l 1,49,-1
 757 369 l 1,50,-1
 682 369 l 1,51,-1
 468 125 l 1,52,-1
 458 73 l 1,53,-1
 640 73 l 1,54,-1
 625 0 l 1,55,-1
 683 0 l 1,45,-1
649 119 m 1,56,-1
 523 119 l 1,57,-1
 682 300 l 1,58,-1
 685 300 l 1,59,-1
 649 119 l 1,56,-1
EndSplineSet
EndChar

StartChar: questiondown
Encoding: 191 191 126
Width: 470
Flags: W
LayerCount: 2
Fore
SplineSet
163 -194 m 0,0,1
 320 -194 320 -194 385 -30 c 1,2,-1
 318 -3 l 1,3,4
 298 -58 298 -58 263 -90 c 128,-1,5
 228 -122 228 -122 170 -122 c 0,6,7
 119 -122 119 -122 93 -96.5 c 128,-1,8
 67 -71 67 -71 67 -28 c 0,9,10
 67 0 67 0 70 10 c 0,11,12
 81 66 81 66 134 103 c 0,13,14
 188 138 188 138 268 143 c 1,15,-1
 301 308 l 1,16,-1
 226 308 l 1,17,-1
 204 200 l 1,18,19
 101 181 101 181 42 115.5 c 128,-1,20
 -17 50 -17 50 -17 -33 c 0,21,22
 -17 -109 -17 -109 32 -151.5 c 128,-1,23
 81 -194 81 -194 163 -194 c 0,0,1
282 399 m 0,24,25
 339 399 339 399 347 454 c 0,26,27
 351 472 351 472 351 488 c 0,28,29
 351 528 351 528 302 528 c 2,30,-1
 300 528 l 2,31,32
 243 528 243 528 235 473 c 0,33,34
 231 457 231 457 231 439 c 0,35,36
 231 399 231 399 282 399 c 0,24,25
EndSplineSet
EndChar

StartChar: Agrave
Encoding: 192 192 127
Width: 623
Flags: W
LayerCount: 2
Fore
SplineSet
547 0 m 1,0,-1
 453 698 l 1,1,-1
 346 698 l 1,2,-1
 -27 0 l 1,3,-1
 59 0 l 1,4,-1
 167 206 l 1,5,-1
 438 206 l 1,6,-1
 464 0 l 1,7,-1
 547 0 l 1,0,-1
430 278 m 1,8,-1
 204 278 l 1,9,-1
 382 621 l 1,10,-1
 387 621 l 1,11,-1
 430 278 l 1,8,-1
403 755 m 1,12,-1
 449 776 l 1,13,-1
 387 948 l 1,14,-1
 319 916 l 1,15,-1
 403 755 l 1,12,-1
EndSplineSet
EndChar

StartChar: Aacute
Encoding: 193 193 128
Width: 623
Flags: W
LayerCount: 2
Fore
SplineSet
547 0 m 1,0,-1
 453 698 l 1,1,-1
 346 698 l 1,2,-1
 -27 0 l 1,3,-1
 59 0 l 1,4,-1
 167 206 l 1,5,-1
 438 206 l 1,6,-1
 464 0 l 1,7,-1
 547 0 l 1,0,-1
430 278 m 1,8,-1
 204 278 l 1,9,-1
 382 621 l 1,10,-1
 387 621 l 1,11,-1
 430 278 l 1,8,-1
421 756 m 1,12,-1
 544 914 l 1,13,-1
 476 950 l 1,14,-1
 372 781 l 1,15,-1
 421 756 l 1,12,-1
EndSplineSet
EndChar

StartChar: Acircumflex
Encoding: 194 194 129
Width: 623
Flags: W
LayerCount: 2
Fore
SplineSet
547 0 m 1,0,-1
 453 698 l 1,1,-1
 346 698 l 1,2,-1
 -27 0 l 1,3,-1
 59 0 l 1,4,-1
 167 206 l 1,5,-1
 438 206 l 1,6,-1
 464 0 l 1,7,-1
 547 0 l 1,0,-1
430 278 m 1,8,-1
 204 278 l 1,9,-1
 382 621 l 1,10,-1
 387 621 l 1,11,-1
 430 278 l 1,8,-1
293 761 m 1,12,-1
 432 877 l 1,13,-1
 525 762 l 1,14,-1
 568 792 l 1,15,-1
 486 935 l 1,16,-1
 392 935 l 1,17,-1
 253 793 l 1,18,-1
 293 761 l 1,12,-1
EndSplineSet
EndChar

StartChar: Atilde
Encoding: 195 195 130
Width: 623
Flags: W
LayerCount: 2
Fore
SplineSet
547 0 m 1,0,-1
 453 698 l 1,1,-1
 346 698 l 1,2,-1
 -27 0 l 1,3,-1
 59 0 l 1,4,-1
 167 206 l 1,5,-1
 438 206 l 1,6,-1
 464 0 l 1,7,-1
 547 0 l 1,0,-1
430 278 m 1,8,-1
 204 278 l 1,9,-1
 382 621 l 1,10,-1
 387 621 l 1,11,-1
 430 278 l 1,8,-1
487 782 m 0,12,13
 547 782 547 782 586 836 c 1,14,-1
 559 874 l 1,15,16
 542 861 542 861 528.5 854 c 128,-1,17
 515 847 515 847 499 847 c 0,18,19
 474 847 474 847 428 875 c 0,20,21
 415 883 415 883 398.5 890 c 128,-1,22
 382 897 382 897 359 897 c 0,23,24
 299 897 299 897 260 843 c 1,25,-1
 287 805 l 1,26,27
 304 818 304 818 317.5 825 c 128,-1,28
 331 832 331 832 347 832 c 0,29,30
 372 832 372 832 418 804 c 0,31,32
 431 796 431 796 447.5 789 c 128,-1,33
 464 782 464 782 487 782 c 0,12,13
EndSplineSet
EndChar

StartChar: Adieresis
Encoding: 196 196 131
Width: 623
Flags: W
LayerCount: 2
Fore
SplineSet
547 0 m 1,0,-1
 453 698 l 1,1,-1
 346 698 l 1,2,-1
 -27 0 l 1,3,-1
 59 0 l 1,4,-1
 167 206 l 1,5,-1
 438 206 l 1,6,-1
 464 0 l 1,7,-1
 547 0 l 1,0,-1
430 278 m 1,8,-1
 204 278 l 1,9,-1
 382 621 l 1,10,-1
 387 621 l 1,11,-1
 430 278 l 1,8,-1
322 787 m 0,12,13
 369 787 369 787 378 834 c 0,14,15
 381 853 381 853 381 857 c 0,16,17
 381 892 381 892 339 892 c 0,18,19
 293 892 293 892 283 845 c 0,20,21
 280 827 280 827 280 822 c 0,22,23
 280 788 280 788 322 787 c 0,12,13
504 787 m 0,24,25
 551 787 551 787 560 834 c 0,26,27
 563 853 563 853 563 857 c 0,28,29
 563 892 563 892 521 892 c 0,30,31
 475 892 475 892 465 845 c 0,32,33
 462 827 462 827 462 822 c 0,34,35
 462 788 462 788 504 787 c 0,24,25
EndSplineSet
EndChar

StartChar: Aring
Encoding: 197 197 132
Width: 623
Flags: W
LayerCount: 2
Fore
SplineSet
547 0 m 1,0,-1
 453 698 l 1,1,-1
 346 698 l 1,2,-1
 -27 0 l 1,3,-1
 59 0 l 1,4,-1
 167 206 l 1,5,-1
 438 206 l 1,6,-1
 464 0 l 1,7,-1
 547 0 l 1,0,-1
430 278 m 1,8,-1
 204 278 l 1,9,-1
 382 621 l 1,10,-1
 387 621 l 1,11,-1
 430 278 l 1,8,-1
413 746 m 0,12,13
 472 746 472 746 507 781 c 128,-1,14
 542 816 542 816 542 876 c 0,15,16
 542 919 542 919 514.5 947.5 c 128,-1,17
 487 976 487 976 442 976 c 0,18,19
 383 976 383 976 348 941 c 128,-1,20
 313 906 313 906 313 846 c 0,21,22
 313 803 313 803 340.5 774.5 c 128,-1,23
 368 746 368 746 413 746 c 0,12,13
419 794 m 0,24,25
 370 794 370 794 369 841 c 0,26,27
 369 853 369 853 373 872 c 0,28,29
 384 928 384 928 436 928 c 0,30,31
 486 928 486 928 486 881 c 0,32,33
 486 869 486 869 482 850 c 0,34,35
 472 794 472 794 419 794 c 0,24,25
EndSplineSet
EndChar

StartChar: AE
Encoding: 198 198 133
Width: 886
Flags: W
LayerCount: 2
Fore
SplineSet
788 0 m 1,0,-1
 802 72 l 1,1,-1
 456 72 l 1,2,-1
 505 318 l 1,3,-1
 802 318 l 1,4,-1
 816 390 l 1,5,-1
 520 390 l 1,6,-1
 567 626 l 1,7,-1
 896 626 l 1,8,-1
 911 698 l 1,9,-1
 440 698 l 1,10,-1
 -42 0 l 1,11,-1
 50 0 l 1,12,-1
 189 205 l 1,13,-1
 401 205 l 1,14,-1
 360 0 l 1,15,-1
 788 0 l 1,0,-1
416 276 m 1,16,-1
 239 276 l 1,17,-1
 477 631 l 1,18,-1
 487 631 l 1,19,-1
 416 276 l 1,16,-1
EndSplineSet
EndChar

StartChar: Ccedilla
Encoding: 199 199 134
Width: 602
Flags: W
LayerCount: 2
Fore
SplineSet
270 -207 m 0,0,1
 318 -207 318 -207 348 -182.5 c 128,-1,2
 378 -158 378 -158 378 -116 c 0,3,4
 378 -60 378 -60 319 -60 c 0,5,6
 303 -60 303 -60 294 -63 c 2,7,-1
 288 -64 l 1,8,-1
 286 -62 l 1,9,-1
 302 -12 l 1,10,11
 472 -8 472 -8 555 157 c 1,12,-1
 487 191 l 1,13,14
 454 130 454 130 410.5 95.5 c 128,-1,15
 367 61 367 61 295 61 c 0,16,17
 219 61 219 61 178 113 c 0,18,19
 136 164 136 164 136 246 c 0,20,21
 136 276 136 276 142 312 c 2,22,-1
 165 427 l 2,23,24
 185 524 185 524 244.5 580.5 c 128,-1,25
 304 637 304 637 383 637 c 0,26,27
 449 637 449 637 486.5 607 c 128,-1,28
 524 577 524 577 542 518 c 1,29,-1
 615 551 l 1,30,31
 563 710 563 710 391 710 c 0,32,33
 315 710 315 710 253.5 675 c 128,-1,34
 192 640 192 640 147 579 c 0,35,36
 55 448 55 448 55 266 c 0,37,38
 55 145 55 145 109.5 74.5 c 128,-1,39
 164 4 164 4 253 -10 c 1,40,-1
 233 -76 l 1,41,-1
 259 -79 l 2,42,43
 291 -83 291 -83 302.5 -92.5 c 128,-1,44
 314 -102 314 -102 314 -118 c 0,45,46
 314 -149 314 -149 268 -154 c 0,47,48
 246 -154 246 -154 231 -146.5 c 128,-1,49
 216 -139 216 -139 209 -129 c 1,50,-1
 169 -170 l 1,51,52
 180 -185 180 -185 206 -196 c 128,-1,53
 232 -207 232 -207 270 -207 c 0,0,1
EndSplineSet
EndChar

StartChar: Egrave
Encoding: 200 200 135
Width: 565
Flags: W
LayerCount: 2
Fore
SplineSet
467 0 m 1,0,-1
 481 72 l 1,1,-1
 135 72 l 1,2,-1
 184 318 l 1,3,-1
 481 318 l 1,4,-1
 495 390 l 1,5,-1
 199 390 l 1,6,-1
 246 626 l 1,7,-1
 575 626 l 1,8,-1
 590 698 l 1,9,-1
 179 698 l 1,10,-1
 39 0 l 1,11,-1
 467 0 l 1,0,-1
384 755 m 1,12,-1
 430 776 l 1,13,-1
 368 948 l 1,14,-1
 300 916 l 1,15,-1
 384 755 l 1,12,-1
EndSplineSet
EndChar

StartChar: Eacute
Encoding: 201 201 136
Width: 565
Flags: W
LayerCount: 2
Fore
SplineSet
467 0 m 1,0,-1
 481 72 l 1,1,-1
 135 72 l 1,2,-1
 184 318 l 1,3,-1
 481 318 l 1,4,-1
 495 390 l 1,5,-1
 199 390 l 1,6,-1
 246 626 l 1,7,-1
 575 626 l 1,8,-1
 590 698 l 1,9,-1
 179 698 l 1,10,-1
 39 0 l 1,11,-1
 467 0 l 1,0,-1
402 756 m 1,12,-1
 525 914 l 1,13,-1
 457 950 l 1,14,-1
 353 781 l 1,15,-1
 402 756 l 1,12,-1
EndSplineSet
EndChar

StartChar: Ecircumflex
Encoding: 202 202 137
Width: 565
Flags: W
LayerCount: 2
Fore
SplineSet
467 0 m 1,0,-1
 481 72 l 1,1,-1
 135 72 l 1,2,-1
 184 318 l 1,3,-1
 481 318 l 1,4,-1
 495 390 l 1,5,-1
 199 390 l 1,6,-1
 246 626 l 1,7,-1
 575 626 l 1,8,-1
 590 698 l 1,9,-1
 179 698 l 1,10,-1
 39 0 l 1,11,-1
 467 0 l 1,0,-1
274 761 m 1,12,-1
 413 877 l 1,13,-1
 506 762 l 1,14,-1
 549 792 l 1,15,-1
 467 935 l 1,16,-1
 373 935 l 1,17,-1
 234 793 l 1,18,-1
 274 761 l 1,12,-1
EndSplineSet
EndChar

StartChar: Edieresis
Encoding: 203 203 138
Width: 565
Flags: W
LayerCount: 2
Fore
SplineSet
467 0 m 1,0,-1
 481 72 l 1,1,-1
 135 72 l 1,2,-1
 184 318 l 1,3,-1
 481 318 l 1,4,-1
 495 390 l 1,5,-1
 199 390 l 1,6,-1
 246 626 l 1,7,-1
 575 626 l 1,8,-1
 590 698 l 1,9,-1
 179 698 l 1,10,-1
 39 0 l 1,11,-1
 467 0 l 1,0,-1
303 787 m 0,12,13
 350 787 350 787 359 834 c 0,14,15
 362 853 362 853 362 857 c 0,16,17
 362 892 362 892 320 892 c 0,18,19
 274 892 274 892 264 845 c 0,20,21
 261 827 261 827 261 822 c 0,22,23
 261 788 261 788 303 787 c 0,12,13
485 787 m 0,24,25
 532 787 532 787 541 834 c 0,26,27
 544 853 544 853 544 857 c 0,28,29
 544 892 544 892 502 892 c 0,30,31
 456 892 456 892 446 845 c 0,32,33
 443 827 443 827 443 822 c 0,34,35
 443 788 443 788 485 787 c 0,24,25
EndSplineSet
EndChar

StartChar: Igrave
Encoding: 204 204 139
Width: 261
Flags: W
LayerCount: 2
Fore
SplineSet
221 755 m 1,0,-1
 267 776 l 1,1,-1
 205 948 l 1,2,-1
 137 916 l 1,3,-1
 221 755 l 1,0,-1
120 0 m 1,4,-1
 39 0 l 1,5,-1
 177 698 l 1,6,-1
 258 698 l 1,7,-1
 120 0 l 1,4,-1
EndSplineSet
EndChar

StartChar: Iacute
Encoding: 205 205 140
Width: 261
Flags: W
LayerCount: 2
Fore
SplineSet
239 756 m 1,0,-1
 362 914 l 1,1,-1
 294 950 l 1,2,-1
 190 781 l 1,3,-1
 239 756 l 1,0,-1
120 0 m 1,4,-1
 39 0 l 1,5,-1
 177 698 l 1,6,-1
 258 698 l 1,7,-1
 120 0 l 1,4,-1
EndSplineSet
EndChar

StartChar: Icircumflex
Encoding: 206 206 141
Width: 261
Flags: W
LayerCount: 2
Fore
SplineSet
111 761 m 1,0,-1
 250 877 l 1,1,-1
 343 762 l 1,2,-1
 386 792 l 1,3,-1
 304 935 l 1,4,-1
 210 935 l 1,5,-1
 71 793 l 1,6,-1
 111 761 l 1,0,-1
120 0 m 1,7,-1
 39 0 l 1,8,-1
 177 698 l 1,9,-1
 258 698 l 1,10,-1
 120 0 l 1,7,-1
EndSplineSet
EndChar

StartChar: Idieresis
Encoding: 207 207 142
Width: 261
Flags: W
LayerCount: 2
Fore
SplineSet
140 787 m 0,0,1
 187 787 187 787 196 834 c 0,2,3
 199 853 199 853 199 857 c 0,4,5
 199 892 199 892 157 892 c 0,6,7
 111 892 111 892 101 845 c 0,8,9
 98 827 98 827 98 822 c 0,10,11
 98 788 98 788 140 787 c 0,0,1
322 787 m 0,12,13
 369 787 369 787 378 834 c 0,14,15
 381 853 381 853 381 857 c 0,16,17
 381 892 381 892 339 892 c 0,18,19
 293 892 293 892 283 845 c 0,20,21
 280 827 280 827 280 822 c 0,22,23
 280 788 280 788 322 787 c 0,12,13
120 0 m 1,24,-1
 39 0 l 1,25,-1
 177 698 l 1,26,-1
 258 698 l 1,27,-1
 120 0 l 1,24,-1
EndSplineSet
EndChar

StartChar: Eth
Encoding: 208 208 143
Width: 655
Flags: W
LayerCount: 2
Fore
SplineSet
278 0 m 2,0,1
 361 0 361 0 426 36 c 128,-1,2
 491 72 491 72 535.5 132.5 c 128,-1,3
 580 193 580 193 603 269.5 c 128,-1,4
 626 346 626 346 626 427 c 0,5,6
 626 562 626 562 562.5 630 c 128,-1,7
 499 698 499 698 387 698 c 2,8,-1
 182 698 l 1,9,-1
 123 400 l 1,10,-1
 49 400 l 1,11,-1
 36 338 l 1,12,-1
 110 338 l 1,13,-1
 42 0 l 1,14,-1
 278 0 l 2,0,1
280 72 m 2,15,-1
 138 72 l 1,16,-1
 191 338 l 1,17,-1
 323 338 l 1,18,-1
 336 400 l 1,19,-1
 203 400 l 1,20,-1
 248 626 l 1,21,-1
 383 626 l 2,22,23
 456 626 456 626 499 582 c 128,-1,24
 542 538 542 538 542 455 c 0,25,26
 542 424 542 424 536 394 c 2,27,-1
 515 289 l 2,28,29
 493 184 493 184 431.5 128 c 128,-1,30
 370 72 370 72 280 72 c 2,15,-1
EndSplineSet
EndChar

StartChar: Ntilde
Encoding: 209 209 144
Width: 684
Flags: W
LayerCount: 2
Fore
SplineSet
541 0 m 1,0,-1
 681 698 l 1,1,-1
 602 698 l 1,2,-1
 485 111 l 1,3,-1
 480 111 l 1,4,-1
 425 278 l 1,5,-1
 273 698 l 1,6,-1
 179 698 l 1,7,-1
 39 0 l 1,8,-1
 118 0 l 1,9,-1
 235 587 l 1,10,-1
 240 587 l 1,11,-1
 295 420 l 1,12,-1
 447 0 l 1,13,-1
 541 0 l 1,0,-1
522 782 m 0,14,15
 582 782 582 782 621 836 c 1,16,-1
 594 874 l 1,17,18
 577 861 577 861 563.5 854 c 128,-1,19
 550 847 550 847 534 847 c 0,20,21
 509 847 509 847 463 875 c 0,22,23
 450 883 450 883 433.5 890 c 128,-1,24
 417 897 417 897 394 897 c 0,25,26
 334 897 334 897 295 843 c 1,27,-1
 322 805 l 1,28,29
 339 818 339 818 352.5 825 c 128,-1,30
 366 832 366 832 382 832 c 0,31,32
 407 832 407 832 453 804 c 0,33,34
 466 796 466 796 482.5 789 c 128,-1,35
 499 782 499 782 522 782 c 0,14,15
EndSplineSet
EndChar

StartChar: Ograve
Encoding: 210 210 145
Width: 679
Flags: W
LayerCount: 2
Fore
SplineSet
298 -12 m 0,0,1
 381 -12 381 -12 446.5 25.5 c 128,-1,2
 512 63 512 63 558 127 c 0,3,4
 652 264 652 264 652 438 c 0,5,6
 652 567 652 567 583 640 c 0,7,8
 513 710 513 710 409 710 c 0,9,10
 326 710 326 710 260.5 672.5 c 128,-1,11
 195 635 195 635 149 572 c 0,12,13
 55 434 55 434 55 260 c 0,14,15
 55 128 55 128 125 58 c 128,-1,16
 195 -12 195 -12 298 -12 c 0,0,1
306 61 m 0,17,18
 225 61 225 61 180 108.5 c 128,-1,19
 135 156 135 156 135 236 c 0,20,21
 135 266 135 266 142 305 c 2,22,-1
 162 405 l 2,23,24
 184 515 184 515 246 576 c 128,-1,25
 308 637 308 637 401 637 c 0,26,27
 482 637 482 637 527 589.5 c 128,-1,28
 572 542 572 542 572 462 c 0,29,30
 572 432 572 432 565 393 c 2,31,-1
 545 293 l 2,32,33
 523 183 523 183 461 122 c 128,-1,34
 399 61 399 61 306 61 c 0,17,18
413 755 m 1,35,-1
 459 776 l 1,36,-1
 397 948 l 1,37,-1
 329 916 l 1,38,-1
 413 755 l 1,35,-1
EndSplineSet
EndChar

StartChar: Oacute
Encoding: 211 211 146
Width: 679
Flags: W
LayerCount: 2
Fore
SplineSet
298 -12 m 0,0,1
 381 -12 381 -12 446.5 25.5 c 128,-1,2
 512 63 512 63 558 127 c 0,3,4
 652 264 652 264 652 438 c 0,5,6
 652 567 652 567 583 640 c 0,7,8
 513 710 513 710 409 710 c 0,9,10
 326 710 326 710 260.5 672.5 c 128,-1,11
 195 635 195 635 149 572 c 0,12,13
 55 434 55 434 55 260 c 0,14,15
 55 128 55 128 125 58 c 128,-1,16
 195 -12 195 -12 298 -12 c 0,0,1
306 61 m 0,17,18
 225 61 225 61 180 108.5 c 128,-1,19
 135 156 135 156 135 236 c 0,20,21
 135 266 135 266 142 305 c 2,22,-1
 162 405 l 2,23,24
 184 515 184 515 246 576 c 128,-1,25
 308 637 308 637 401 637 c 0,26,27
 482 637 482 637 527 589.5 c 128,-1,28
 572 542 572 542 572 462 c 0,29,30
 572 432 572 432 565 393 c 2,31,-1
 545 293 l 2,32,33
 523 183 523 183 461 122 c 128,-1,34
 399 61 399 61 306 61 c 0,17,18
431 756 m 1,35,-1
 554 914 l 1,36,-1
 486 950 l 1,37,-1
 382 781 l 1,38,-1
 431 756 l 1,35,-1
EndSplineSet
EndChar

StartChar: Ocircumflex
Encoding: 212 212 147
Width: 679
Flags: W
LayerCount: 2
Fore
SplineSet
298 -12 m 0,0,1
 381 -12 381 -12 446.5 25.5 c 128,-1,2
 512 63 512 63 558 127 c 0,3,4
 652 264 652 264 652 438 c 0,5,6
 652 567 652 567 583 640 c 0,7,8
 513 710 513 710 409 710 c 0,9,10
 326 710 326 710 260.5 672.5 c 128,-1,11
 195 635 195 635 149 572 c 0,12,13
 55 434 55 434 55 260 c 0,14,15
 55 128 55 128 125 58 c 128,-1,16
 195 -12 195 -12 298 -12 c 0,0,1
306 61 m 0,17,18
 225 61 225 61 180 108.5 c 128,-1,19
 135 156 135 156 135 236 c 0,20,21
 135 266 135 266 142 305 c 2,22,-1
 162 405 l 2,23,24
 184 515 184 515 246 576 c 128,-1,25
 308 637 308 637 401 637 c 0,26,27
 482 637 482 637 527 589.5 c 128,-1,28
 572 542 572 542 572 462 c 0,29,30
 572 432 572 432 565 393 c 2,31,-1
 545 293 l 2,32,33
 523 183 523 183 461 122 c 128,-1,34
 399 61 399 61 306 61 c 0,17,18
303 761 m 1,35,-1
 442 877 l 1,36,-1
 535 762 l 1,37,-1
 578 792 l 1,38,-1
 496 935 l 1,39,-1
 402 935 l 1,40,-1
 263 793 l 1,41,-1
 303 761 l 1,35,-1
EndSplineSet
EndChar

StartChar: Otilde
Encoding: 213 213 148
Width: 679
Flags: W
LayerCount: 2
Fore
SplineSet
298 -12 m 0,0,1
 381 -12 381 -12 446.5 25.5 c 128,-1,2
 512 63 512 63 558 127 c 0,3,4
 652 264 652 264 652 438 c 0,5,6
 652 567 652 567 583 640 c 0,7,8
 513 710 513 710 409 710 c 0,9,10
 326 710 326 710 260.5 672.5 c 128,-1,11
 195 635 195 635 149 572 c 0,12,13
 55 434 55 434 55 260 c 0,14,15
 55 128 55 128 125 58 c 128,-1,16
 195 -12 195 -12 298 -12 c 0,0,1
306 61 m 0,17,18
 225 61 225 61 180 108.5 c 128,-1,19
 135 156 135 156 135 236 c 0,20,21
 135 266 135 266 142 305 c 2,22,-1
 162 405 l 2,23,24
 184 515 184 515 246 576 c 128,-1,25
 308 637 308 637 401 637 c 0,26,27
 482 637 482 637 527 589.5 c 128,-1,28
 572 542 572 542 572 462 c 0,29,30
 572 432 572 432 565 393 c 2,31,-1
 545 293 l 2,32,33
 523 183 523 183 461 122 c 128,-1,34
 399 61 399 61 306 61 c 0,17,18
497 782 m 0,35,36
 557 782 557 782 596 836 c 1,37,-1
 569 874 l 1,38,39
 552 861 552 861 538.5 854 c 128,-1,40
 525 847 525 847 509 847 c 0,41,42
 484 847 484 847 438 875 c 0,43,44
 425 883 425 883 408.5 890 c 128,-1,45
 392 897 392 897 369 897 c 0,46,47
 309 897 309 897 270 843 c 1,48,-1
 297 805 l 1,49,50
 314 818 314 818 327.5 825 c 128,-1,51
 341 832 341 832 357 832 c 0,52,53
 382 832 382 832 428 804 c 0,54,55
 441 796 441 796 457.5 789 c 128,-1,56
 474 782 474 782 497 782 c 0,35,36
EndSplineSet
EndChar

StartChar: Odieresis
Encoding: 214 214 149
Width: 679
Flags: W
LayerCount: 2
Fore
SplineSet
298 -12 m 0,0,1
 381 -12 381 -12 446.5 25.5 c 128,-1,2
 512 63 512 63 558 127 c 0,3,4
 652 264 652 264 652 438 c 0,5,6
 652 567 652 567 583 640 c 0,7,8
 513 710 513 710 409 710 c 0,9,10
 326 710 326 710 260.5 672.5 c 128,-1,11
 195 635 195 635 149 572 c 0,12,13
 55 434 55 434 55 260 c 0,14,15
 55 128 55 128 125 58 c 128,-1,16
 195 -12 195 -12 298 -12 c 0,0,1
306 61 m 0,17,18
 225 61 225 61 180 108.5 c 128,-1,19
 135 156 135 156 135 236 c 0,20,21
 135 266 135 266 142 305 c 2,22,-1
 162 405 l 2,23,24
 184 515 184 515 246 576 c 128,-1,25
 308 637 308 637 401 637 c 0,26,27
 482 637 482 637 527 589.5 c 128,-1,28
 572 542 572 542 572 462 c 0,29,30
 572 432 572 432 565 393 c 2,31,-1
 545 293 l 2,32,33
 523 183 523 183 461 122 c 128,-1,34
 399 61 399 61 306 61 c 0,17,18
332 787 m 0,35,36
 379 787 379 787 388 834 c 0,37,38
 391 853 391 853 391 857 c 0,39,40
 391 892 391 892 349 892 c 0,41,42
 303 892 303 892 293 845 c 0,43,44
 290 827 290 827 290 822 c 0,45,46
 290 788 290 788 332 787 c 0,35,36
514 787 m 0,47,48
 561 787 561 787 570 834 c 0,49,50
 573 853 573 853 573 857 c 0,51,52
 573 892 573 892 531 892 c 0,53,54
 485 892 485 892 475 845 c 0,55,56
 472 827 472 827 472 822 c 0,57,58
 472 788 472 788 514 787 c 0,47,48
EndSplineSet
EndChar

StartChar: multiply
Encoding: 215 215 150
Width: 600
Flags: W
LayerCount: 2
Fore
SplineSet
117 92 m 1,0,-1
 302 255 l 1,1,-1
 422 93 l 1,2,-1
 476 140 l 1,3,-1
 356 302 l 1,4,-1
 542 464 l 1,5,-1
 501 518 l 1,6,-1
 316 356 l 1,7,-1
 195 518 l 1,8,-1
 141 471 l 1,9,-1
 262 309 l 1,10,-1
 76 146 l 1,11,-1
 117 92 l 1,0,-1
EndSplineSet
EndChar

StartChar: Oslash
Encoding: 216 216 151
Width: 679
Flags: W
LayerCount: 2
Fore
SplineSet
54 -46 m 1,0,-1
 135 47 l 1,1,2
 201 -12 201 -12 298 -12 c 0,3,4
 381 -12 381 -12 446.5 25.5 c 128,-1,5
 512 63 512 63 558 127 c 0,6,7
 652 264 652 264 652 438 c 0,8,9
 652 534 652 534 614 596 c 1,10,-1
 704 699 l 1,11,-1
 653 744 l 1,12,-1
 572 651 l 1,13,14
 507 710 507 710 409 710 c 0,15,16
 326 710 326 710 260.5 672.5 c 128,-1,17
 195 635 195 635 149 572 c 0,18,19
 55 434 55 434 55 260 c 0,20,21
 55 164 55 164 93 102 c 1,22,-1
 3 -1 l 1,23,-1
 54 -46 l 1,0,-1
147 162 m 1,24,25
 135 196 135 196 135 236 c 0,26,27
 135 266 135 266 142 305 c 2,28,-1
 162 405 l 2,29,30
 184 515 184 515 246 576 c 128,-1,31
 308 637 308 637 401 637 c 0,32,33
 478 637 478 637 523 592 c 1,34,-1
 147 162 l 1,24,25
306 61 m 0,35,36
 230 61 230 61 184 106 c 1,37,-1
 560 536 l 1,38,39
 572 503 572 503 572 462 c 0,40,41
 572 432 572 432 565 393 c 2,42,-1
 545 293 l 2,43,44
 523 183 523 183 461 122 c 128,-1,45
 399 61 399 61 306 61 c 0,35,36
EndSplineSet
EndChar

StartChar: Ugrave
Encoding: 217 217 152
Width: 656
Flags: W
LayerCount: 2
Fore
SplineSet
280 -12 m 0,0,1
 405 -12 405 -12 474 54 c 128,-1,2
 543 120 543 120 573 278 c 2,3,-1
 657 698 l 1,4,-1
 576 698 l 1,5,-1
 493 284 l 2,6,7
 470 164 470 164 421.5 112.5 c 128,-1,8
 373 61 373 61 289 61 c 0,9,10
 229 61 229 61 195 97 c 128,-1,11
 161 133 161 133 161 197 c 0,12,13
 161 214 161 214 162 230 c 0,14,15
 163 241 163 241 255 698 c 1,16,-1
 174 698 l 1,17,-1
 93 294 l 2,18,19
 82 236 82 236 82 189 c 0,20,21
 82 93 82 93 134 40.5 c 128,-1,22
 186 -12 186 -12 280 -12 c 0,0,1
416 755 m 1,23,-1
 462 776 l 1,24,-1
 400 948 l 1,25,-1
 332 916 l 1,26,-1
 416 755 l 1,23,-1
EndSplineSet
EndChar

StartChar: Uacute
Encoding: 218 218 153
Width: 656
Flags: W
LayerCount: 2
Fore
SplineSet
280 -12 m 0,0,1
 405 -12 405 -12 474 54 c 128,-1,2
 543 120 543 120 573 278 c 2,3,-1
 657 698 l 1,4,-1
 576 698 l 1,5,-1
 493 284 l 2,6,7
 470 164 470 164 421.5 112.5 c 128,-1,8
 373 61 373 61 289 61 c 0,9,10
 229 61 229 61 195 97 c 128,-1,11
 161 133 161 133 161 197 c 0,12,13
 161 214 161 214 162 230 c 0,14,15
 163 241 163 241 255 698 c 1,16,-1
 174 698 l 1,17,-1
 93 294 l 2,18,19
 82 236 82 236 82 189 c 0,20,21
 82 93 82 93 134 40.5 c 128,-1,22
 186 -12 186 -12 280 -12 c 0,0,1
434 756 m 1,23,-1
 557 914 l 1,24,-1
 489 950 l 1,25,-1
 385 781 l 1,26,-1
 434 756 l 1,23,-1
EndSplineSet
EndChar

StartChar: Ucircumflex
Encoding: 219 219 154
Width: 656
Flags: W
LayerCount: 2
Fore
SplineSet
280 -12 m 0,0,1
 405 -12 405 -12 474 54 c 128,-1,2
 543 120 543 120 573 278 c 2,3,-1
 657 698 l 1,4,-1
 576 698 l 1,5,-1
 493 284 l 2,6,7
 470 164 470 164 421.5 112.5 c 128,-1,8
 373 61 373 61 289 61 c 0,9,10
 229 61 229 61 195 97 c 128,-1,11
 161 133 161 133 161 197 c 0,12,13
 161 214 161 214 162 230 c 0,14,15
 163 241 163 241 255 698 c 1,16,-1
 174 698 l 1,17,-1
 93 294 l 2,18,19
 82 236 82 236 82 189 c 0,20,21
 82 93 82 93 134 40.5 c 128,-1,22
 186 -12 186 -12 280 -12 c 0,0,1
306 761 m 1,23,-1
 445 877 l 1,24,-1
 538 762 l 1,25,-1
 581 792 l 1,26,-1
 499 935 l 1,27,-1
 405 935 l 1,28,-1
 266 793 l 1,29,-1
 306 761 l 1,23,-1
EndSplineSet
EndChar

StartChar: Udieresis
Encoding: 220 220 155
Width: 656
Flags: W
LayerCount: 2
Fore
SplineSet
280 -12 m 0,0,1
 405 -12 405 -12 474 54 c 128,-1,2
 543 120 543 120 573 278 c 2,3,-1
 657 698 l 1,4,-1
 576 698 l 1,5,-1
 493 284 l 2,6,7
 470 164 470 164 421.5 112.5 c 128,-1,8
 373 61 373 61 289 61 c 0,9,10
 229 61 229 61 195 97 c 128,-1,11
 161 133 161 133 161 197 c 0,12,13
 161 214 161 214 162 230 c 0,14,15
 163 241 163 241 255 698 c 1,16,-1
 174 698 l 1,17,-1
 93 294 l 2,18,19
 82 236 82 236 82 189 c 0,20,21
 82 93 82 93 134 40.5 c 128,-1,22
 186 -12 186 -12 280 -12 c 0,0,1
335 787 m 0,23,24
 382 787 382 787 391 834 c 0,25,26
 394 853 394 853 394 857 c 0,27,28
 394 892 394 892 352 892 c 0,29,30
 306 892 306 892 296 845 c 0,31,32
 293 827 293 827 293 822 c 0,33,34
 293 788 293 788 335 787 c 0,23,24
517 787 m 0,35,36
 564 787 564 787 573 834 c 0,37,38
 576 853 576 853 576 857 c 0,39,40
 576 892 576 892 534 892 c 0,41,42
 488 892 488 892 478 845 c 0,43,44
 475 827 475 827 475 822 c 0,45,46
 475 788 475 788 517 787 c 0,35,36
EndSplineSet
EndChar

StartChar: Yacute
Encoding: 221 221 156
Width: 577
Flags: W
LayerCount: 2
Fore
SplineSet
277 0 m 1,0,-1
 332 273 l 1,1,-1
 651 698 l 1,2,-1
 558 698 l 1,3,-1
 308 357 l 1,4,-1
 303 357 l 1,5,-1
 187 698 l 1,6,-1
 105 698 l 1,7,-1
 251 273 l 1,8,-1
 196 0 l 1,9,-1
 277 0 l 1,0,-1
387 756 m 1,10,-1
 510 914 l 1,11,-1
 442 950 l 1,12,-1
 338 781 l 1,13,-1
 387 756 l 1,10,-1
EndSplineSet
EndChar

StartChar: Thorn
Encoding: 222 222 157
Width: 587
Flags: W
LayerCount: 2
Fore
SplineSet
119 0 m 1,0,-1
 150 154 l 1,1,-1
 338 154 l 2,2,3
 444 154 444 154 508 222.5 c 128,-1,4
 572 291 572 291 572 388 c 0,5,6
 572 460 572 460 531.5 507 c 128,-1,7
 491 554 491 554 399 554 c 2,8,-1
 231 554 l 1,9,-1
 260 698 l 1,10,-1
 179 698 l 1,11,-1
 38 0 l 1,12,-1
 119 0 l 1,0,-1
350 226 m 2,13,-1
 165 226 l 1,14,-1
 216 482 l 1,15,-1
 393 482 l 2,16,17
 446 482 446 482 467 460 c 128,-1,18
 488 438 488 438 488 402 c 0,19,20
 488 390 488 390 486 376 c 2,21,-1
 476 328 l 2,22,23
 451 226 451 226 350 226 c 2,13,-1
EndSplineSet
EndChar

StartChar: germandbls
Encoding: 223 223 158
Width: 641
Flags: W
LayerCount: 2
Fore
SplineSet
406 -12 m 0,0,1
 484 -12 484 -12 535 33 c 128,-1,2
 586 78 586 78 586 154 c 0,3,4
 586 186 586 186 577 208 c 0,5,6
 555 263 555 263 470 287 c 1,7,-1
 431 300 l 2,8,9
 375 318 375 318 375 370 c 0,10,11
 375 412 375 412 413.5 436 c 128,-1,12
 452 460 452 460 529 460 c 2,13,-1
 574 460 l 1,14,15
 580 491 580 491 586 522 c 128,-1,16
 592 553 592 553 592 584 c 0,17,18
 592 662 592 662 542.5 707 c 128,-1,19
 493 752 493 752 415 752 c 0,20,21
 312 752 312 752 246 696 c 0,22,23
 177 637 177 637 155 516 c 1,24,-1
 71 516 l 1,25,-1
 57 446 l 1,26,-1
 141 446 l 1,27,-1
 52 0 l 1,28,-1
 130 0 l 1,29,-1
 235 527 l 2,30,31
 253 616 253 616 294 651 c 128,-1,32
 335 686 335 686 405 686 c 0,33,34
 459 686 459 686 488 660.5 c 128,-1,35
 517 635 517 635 517 584 c 0,36,37
 517 556 517 556 510 522 c 1,38,39
 414 522 414 522 357 475 c 128,-1,40
 300 428 300 428 300 366 c 0,41,42
 300 333 300 333 310 311 c 0,43,44
 333 256 333 256 419 231 c 2,45,-1
 458 218 l 2,46,47
 490 207 490 207 501 191.5 c 128,-1,48
 512 176 512 176 512 150 c 0,49,50
 512 103 512 103 482.5 79 c 128,-1,51
 453 55 453 55 406 55 c 0,52,53
 316 55 316 55 264 129 c 1,54,-1
 211 82 l 1,55,56
 243 37 243 37 294.5 12.5 c 128,-1,57
 346 -12 346 -12 406 -12 c 0,0,1
EndSplineSet
EndChar

StartChar: agrave
Encoding: 224 224 159
Width: 583
Flags: W
LayerCount: 2
Fore
SplineSet
208 -12 m 0,0,1
 265 -12 265 -12 304 17.5 c 128,-1,2
 343 47 343 47 375 112 c 1,3,-1
 378 112 l 1,4,5
 370 75 370 75 370 62 c 0,6,7
 370 34 370 34 386.5 17 c 128,-1,8
 403 0 403 0 437 0 c 2,9,-1
 506 0 l 1,10,-1
 519 68 l 1,11,-1
 446 68 l 1,12,-1
 536 516 l 1,13,-1
 459 516 l 1,14,-1
 442 432 l 1,15,-1
 438 432 l 1,16,17
 425 480 425 480 387.5 504 c 128,-1,18
 350 528 350 528 303 528 c 0,19,20
 239 528 239 528 191.5 496.5 c 128,-1,21
 144 465 144 465 113 413.5 c 128,-1,22
 82 362 82 362 66.5 302 c 128,-1,23
 51 242 51 242 51 185 c 0,24,25
 51 93 51 93 94 40.5 c 128,-1,26
 137 -12 137 -12 208 -12 c 0,0,1
227 58 m 0,27,28
 177 58 177 58 153.5 91.5 c 128,-1,29
 130 125 130 125 130 175 c 0,30,31
 130 198 130 198 135 226 c 2,32,-1
 150 301 l 2,33,34
 165 376 165 376 205.5 417 c 128,-1,35
 246 458 246 458 312 458 c 0,36,37
 369 458 369 458 402 425 c 0,38,39
 428 398 428 398 428 369 c 0,40,41
 428 362 428 362 402 233 c 0,42,43
 388 159 388 159 337 109 c 0,44,45
 314 85 314 85 288.5 71.5 c 128,-1,46
 263 58 263 58 227 58 c 0,27,28
330 585 m 1,47,-1
 375 606 l 1,48,-1
 314 776 l 1,49,-1
 246 744 l 1,50,-1
 330 585 l 1,47,-1
EndSplineSet
EndChar

StartChar: aacute
Encoding: 225 225 160
Width: 583
Flags: W
LayerCount: 2
Fore
SplineSet
208 -12 m 0,0,1
 265 -12 265 -12 304 17.5 c 128,-1,2
 343 47 343 47 375 112 c 1,3,-1
 378 112 l 1,4,5
 370 75 370 75 370 62 c 0,6,7
 370 34 370 34 386.5 17 c 128,-1,8
 403 0 403 0 437 0 c 2,9,-1
 506 0 l 1,10,-1
 519 68 l 1,11,-1
 446 68 l 1,12,-1
 536 516 l 1,13,-1
 459 516 l 1,14,-1
 442 432 l 1,15,-1
 438 432 l 1,16,17
 425 480 425 480 387.5 504 c 128,-1,18
 350 528 350 528 303 528 c 0,19,20
 239 528 239 528 191.5 496.5 c 128,-1,21
 144 465 144 465 113 413.5 c 128,-1,22
 82 362 82 362 66.5 302 c 128,-1,23
 51 242 51 242 51 185 c 0,24,25
 51 93 51 93 94 40.5 c 128,-1,26
 137 -12 137 -12 208 -12 c 0,0,1
227 58 m 0,27,28
 177 58 177 58 153.5 91.5 c 128,-1,29
 130 125 130 125 130 175 c 0,30,31
 130 198 130 198 135 226 c 2,32,-1
 150 301 l 2,33,34
 165 376 165 376 205.5 417 c 128,-1,35
 246 458 246 458 312 458 c 0,36,37
 369 458 369 458 402 425 c 0,38,39
 428 398 428 398 428 369 c 0,40,41
 428 362 428 362 402 233 c 0,42,43
 388 159 388 159 337 109 c 0,44,45
 314 85 314 85 288.5 71.5 c 128,-1,46
 263 58 263 58 227 58 c 0,27,28
358 585 m 1,47,-1
 482 744 l 1,48,-1
 414 780 l 1,49,-1
 310 610 l 1,50,-1
 358 585 l 1,47,-1
EndSplineSet
EndChar

StartChar: acircumflex
Encoding: 226 226 161
Width: 583
Flags: W
LayerCount: 2
Fore
SplineSet
208 -12 m 0,0,1
 265 -12 265 -12 304 17.5 c 128,-1,2
 343 47 343 47 375 112 c 1,3,-1
 378 112 l 1,4,5
 370 75 370 75 370 62 c 0,6,7
 370 34 370 34 386.5 17 c 128,-1,8
 403 0 403 0 437 0 c 2,9,-1
 506 0 l 1,10,-1
 519 68 l 1,11,-1
 446 68 l 1,12,-1
 536 516 l 1,13,-1
 459 516 l 1,14,-1
 442 432 l 1,15,-1
 438 432 l 1,16,17
 425 480 425 480 387.5 504 c 128,-1,18
 350 528 350 528 303 528 c 0,19,20
 239 528 239 528 191.5 496.5 c 128,-1,21
 144 465 144 465 113 413.5 c 128,-1,22
 82 362 82 362 66.5 302 c 128,-1,23
 51 242 51 242 51 185 c 0,24,25
 51 93 51 93 94 40.5 c 128,-1,26
 137 -12 137 -12 208 -12 c 0,0,1
227 58 m 0,27,28
 177 58 177 58 153.5 91.5 c 128,-1,29
 130 125 130 125 130 175 c 0,30,31
 130 198 130 198 135 226 c 2,32,-1
 150 301 l 2,33,34
 165 376 165 376 205.5 417 c 128,-1,35
 246 458 246 458 312 458 c 0,36,37
 369 458 369 458 402 425 c 0,38,39
 428 398 428 398 428 369 c 0,40,41
 428 362 428 362 402 233 c 0,42,43
 388 159 388 159 337 109 c 0,44,45
 314 85 314 85 288.5 71.5 c 128,-1,46
 263 58 263 58 227 58 c 0,27,28
226 590 m 1,47,-1
 365 706 l 1,48,-1
 458 591 l 1,49,-1
 501 622 l 1,50,-1
 419 765 l 1,51,-1
 325 765 l 1,52,-1
 187 622 l 1,53,-1
 226 590 l 1,47,-1
EndSplineSet
EndChar

StartChar: atilde
Encoding: 227 227 162
Width: 583
Flags: W
LayerCount: 2
Fore
SplineSet
208 -12 m 0,0,1
 265 -12 265 -12 304 17.5 c 128,-1,2
 343 47 343 47 375 112 c 1,3,-1
 378 112 l 1,4,5
 370 75 370 75 370 62 c 0,6,7
 370 34 370 34 386.5 17 c 128,-1,8
 403 0 403 0 437 0 c 2,9,-1
 506 0 l 1,10,-1
 519 68 l 1,11,-1
 446 68 l 1,12,-1
 536 516 l 1,13,-1
 459 516 l 1,14,-1
 442 432 l 1,15,-1
 438 432 l 1,16,17
 425 480 425 480 387.5 504 c 128,-1,18
 350 528 350 528 303 528 c 0,19,20
 239 528 239 528 191.5 496.5 c 128,-1,21
 144 465 144 465 113 413.5 c 128,-1,22
 82 362 82 362 66.5 302 c 128,-1,23
 51 242 51 242 51 185 c 0,24,25
 51 93 51 93 94 40.5 c 128,-1,26
 137 -12 137 -12 208 -12 c 0,0,1
227 58 m 0,27,28
 177 58 177 58 153.5 91.5 c 128,-1,29
 130 125 130 125 130 175 c 0,30,31
 130 198 130 198 135 226 c 2,32,-1
 150 301 l 2,33,34
 165 376 165 376 205.5 417 c 128,-1,35
 246 458 246 458 312 458 c 0,36,37
 369 458 369 458 402 425 c 0,38,39
 428 398 428 398 428 369 c 0,40,41
 428 362 428 362 402 233 c 0,42,43
 388 159 388 159 337 109 c 0,44,45
 314 85 314 85 288.5 71.5 c 128,-1,46
 263 58 263 58 227 58 c 0,27,28
421 612 m 0,47,48
 477 612 477 612 520 665 c 1,49,-1
 492 704 l 1,50,51
 475 691 475 691 462 684 c 128,-1,52
 449 677 449 677 432 677 c 0,53,54
 407 677 407 677 367 701 c 0,55,56
 353 710 353 710 336 718 c 128,-1,57
 319 726 319 726 293 726 c 0,58,59
 237 726 237 726 194 673 c 1,60,-1
 222 634 l 1,61,62
 239 647 239 647 252 654 c 128,-1,63
 265 661 265 661 282 661 c 0,64,65
 308 661 308 661 347 637 c 0,66,67
 361 628 361 628 378 620 c 128,-1,68
 395 612 395 612 421 612 c 0,47,48
EndSplineSet
EndChar

StartChar: adieresis
Encoding: 228 228 163
Width: 583
Flags: W
LayerCount: 2
Fore
SplineSet
208 -12 m 0,0,1
 265 -12 265 -12 304 17.5 c 128,-1,2
 343 47 343 47 375 112 c 1,3,-1
 378 112 l 1,4,5
 370 75 370 75 370 62 c 0,6,7
 370 34 370 34 386.5 17 c 128,-1,8
 403 0 403 0 437 0 c 2,9,-1
 506 0 l 1,10,-1
 519 68 l 1,11,-1
 446 68 l 1,12,-1
 536 516 l 1,13,-1
 459 516 l 1,14,-1
 442 432 l 1,15,-1
 438 432 l 1,16,17
 425 480 425 480 387.5 504 c 128,-1,18
 350 528 350 528 303 528 c 0,19,20
 239 528 239 528 191.5 496.5 c 128,-1,21
 144 465 144 465 113 413.5 c 128,-1,22
 82 362 82 362 66.5 302 c 128,-1,23
 51 242 51 242 51 185 c 0,24,25
 51 93 51 93 94 40.5 c 128,-1,26
 137 -12 137 -12 208 -12 c 0,0,1
227 58 m 0,27,28
 177 58 177 58 153.5 91.5 c 128,-1,29
 130 125 130 125 130 175 c 0,30,31
 130 198 130 198 135 226 c 2,32,-1
 150 301 l 2,33,34
 165 376 165 376 205.5 417 c 128,-1,35
 246 458 246 458 312 458 c 0,36,37
 369 458 369 458 402 425 c 0,38,39
 428 398 428 398 428 369 c 0,40,41
 428 362 428 362 402 233 c 0,42,43
 388 159 388 159 337 109 c 0,44,45
 314 85 314 85 288.5 71.5 c 128,-1,46
 263 58 263 58 227 58 c 0,27,28
258 618 m 0,47,48
 305 618 305 618 314 665 c 0,49,50
 317 682 317 682 317 686 c 0,51,52
 317 721 317 721 275 721 c 0,53,54
 229 721 229 721 219 674 c 0,55,56
 216 663 216 663 216 653 c 0,57,58
 216 619 216 619 258 618 c 0,47,48
440 618 m 0,59,60
 487 618 487 618 496 665 c 0,61,62
 499 682 499 682 499 686 c 0,63,64
 499 721 499 721 457 721 c 0,65,66
 411 721 411 721 401 674 c 0,67,68
 398 663 398 663 398 653 c 0,69,70
 398 619 398 619 440 618 c 0,59,60
EndSplineSet
EndChar

StartChar: aring
Encoding: 229 229 164
Width: 583
Flags: W
LayerCount: 2
Fore
SplineSet
208 -12 m 0,0,1
 265 -12 265 -12 304 17.5 c 128,-1,2
 343 47 343 47 375 112 c 1,3,-1
 378 112 l 1,4,5
 370 75 370 75 370 62 c 0,6,7
 370 34 370 34 386.5 17 c 128,-1,8
 403 0 403 0 437 0 c 2,9,-1
 506 0 l 1,10,-1
 519 68 l 1,11,-1
 446 68 l 1,12,-1
 536 516 l 1,13,-1
 459 516 l 1,14,-1
 442 432 l 1,15,-1
 438 432 l 1,16,17
 425 480 425 480 387.5 504 c 128,-1,18
 350 528 350 528 303 528 c 0,19,20
 239 528 239 528 191.5 496.5 c 128,-1,21
 144 465 144 465 113 413.5 c 128,-1,22
 82 362 82 362 66.5 302 c 128,-1,23
 51 242 51 242 51 185 c 0,24,25
 51 93 51 93 94 40.5 c 128,-1,26
 137 -12 137 -12 208 -12 c 0,0,1
227 58 m 0,27,28
 177 58 177 58 153.5 91.5 c 128,-1,29
 130 125 130 125 130 175 c 0,30,31
 130 198 130 198 135 226 c 2,32,-1
 150 301 l 2,33,34
 165 376 165 376 205.5 417 c 128,-1,35
 246 458 246 458 312 458 c 0,36,37
 369 458 369 458 402 425 c 0,38,39
 428 398 428 398 428 369 c 0,40,41
 428 362 428 362 402 233 c 0,42,43
 388 159 388 159 337 109 c 0,44,45
 314 85 314 85 288.5 71.5 c 128,-1,46
 263 58 263 58 227 58 c 0,27,28
347 576 m 0,47,48
 406 576 406 576 441 611 c 128,-1,49
 476 646 476 646 476 706 c 0,50,51
 476 749 476 749 448.5 777.5 c 128,-1,52
 421 806 421 806 376 806 c 0,53,54
 317 806 317 806 282 771 c 128,-1,55
 247 736 247 736 247 676 c 0,56,57
 247 633 247 633 274.5 604.5 c 128,-1,58
 302 576 302 576 347 576 c 0,47,48
353 624 m 0,59,60
 304 624 304 624 303 671 c 0,61,62
 303 683 303 683 307 702 c 0,63,64
 318 758 318 758 370 758 c 0,65,66
 420 758 420 758 420 711 c 0,67,68
 420 699 420 699 416 680 c 0,69,70
 406 624 406 624 353 624 c 0,59,60
EndSplineSet
EndChar

StartChar: ae
Encoding: 230 230 165
Width: 806
Flags: W
LayerCount: 2
Fore
SplineSet
185 56 m 0,0,1
 103 56 103 56 100 119 c 1,2,-1
 101 132 l 1,3,-1
 106 158 l 2,4,5
 115 196 115 196 153.5 210 c 128,-1,6
 192 224 192 224 250 225 c 2,7,-1
 349 229 l 1,8,9
 341 190 341 190 332.5 149 c 128,-1,10
 324 108 324 108 281.5 82 c 128,-1,11
 239 56 239 56 185 56 c 0,0,1
435 286 m 1,12,-1
 440 310 l 2,13,14
 455 380 455 380 499.5 421 c 128,-1,15
 544 462 544 462 611 462 c 0,16,17
 701 462 701 462 701 384 c 0,18,19
 701 361 701 361 690 344 c 128,-1,20
 679 327 679 327 650 315 c 0,21,22
 594 292 594 292 435 286 c 1,12,-1
538 -12 m 0,23,24
 665 -12 665 -12 752 94 c 1,25,-1
 702 139 l 1,26,27
 636 57 636 57 544 57 c 0,28,29
 484 57 484 57 452.5 90.5 c 128,-1,30
 421 124 421 124 421 174 c 0,31,32
 421 203 421 203 426 228 c 1,33,34
 601 229 601 229 690.5 266 c 128,-1,35
 780 303 780 303 780 390 c 0,36,37
 780 458 780 458 729 495 c 0,38,39
 677 528 677 528 615 528 c 0,40,41
 503 528 503 528 434 433 c 1,42,-1
 427 433 l 1,43,44
 397 528 397 528 281 528 c 0,45,46
 215 528 215 528 165 501 c 128,-1,47
 115 474 115 474 87 431 c 1,48,-1
 135 385 l 1,49,50
 161 421 161 421 192.5 439.5 c 128,-1,51
 224 458 224 458 270 458 c 0,52,53
 372 458 372 458 375 372 c 0,54,55
 375 361 375 361 361 286 c 1,56,-1
 254 282 l 2,57,58
 134 277 134 277 78 237 c 128,-1,59
 22 197 22 197 22 122 c 0,60,61
 22 -8 22 -8 168 -12 c 0,62,63
 228 -12 228 -12 277 14.5 c 128,-1,64
 326 41 326 41 356 94 c 1,65,-1
 363 94 l 1,66,67
 405 -12 405 -12 538 -12 c 0,23,24
EndSplineSet
EndChar

StartChar: ccedilla
Encoding: 231 231 166
Width: 488
Flags: W
LayerCount: 2
Fore
SplineSet
222 -207 m 0,0,1
 270 -207 270 -207 300 -182.5 c 128,-1,2
 330 -158 330 -158 330 -116 c 0,3,4
 330 -60 330 -60 271 -60 c 0,5,6
 255 -60 255 -60 246 -63 c 2,7,-1
 240 -64 l 1,8,-1
 238 -62 l 1,9,-1
 254 -11 l 1,10,11
 376 1 376 1 437 128 c 1,12,-1
 376 158 l 1,13,14
 346 101 346 101 314 79 c 128,-1,15
 282 57 282 57 244 57 c 0,16,17
 184 57 184 57 155 92 c 128,-1,18
 126 127 126 127 126 183 c 0,19,20
 126 201 126 201 130 228 c 2,21,-1
 147 312 l 2,22,23
 161 382 161 382 199.5 420.5 c 128,-1,24
 238 459 238 459 300 459 c 0,25,26
 383 459 383 459 409 378 c 1,27,-1
 473 407 l 1,28,29
 458 461 458 461 414.5 494.5 c 128,-1,30
 371 528 371 528 302 528 c 0,31,32
 188 528 188 528 117 431 c 0,33,34
 49 333 49 333 49 199 c 0,35,36
 49 111 49 111 89.5 56 c 128,-1,37
 130 1 130 1 205 -10 c 1,38,-1
 185 -76 l 1,39,-1
 211 -79 l 2,40,41
 243 -83 243 -83 254.5 -92.5 c 128,-1,42
 266 -102 266 -102 266 -118 c 0,43,44
 266 -149 266 -149 220 -154 c 0,45,46
 198 -154 198 -154 183 -146.5 c 128,-1,47
 168 -139 168 -139 161 -129 c 1,48,-1
 121 -170 l 1,49,50
 132 -185 132 -185 158 -196 c 128,-1,51
 184 -207 184 -207 222 -207 c 0,0,1
EndSplineSet
EndChar

StartChar: egrave
Encoding: 232 232 167
Width: 511
Flags: W
LayerCount: 2
Fore
SplineSet
244 -12 m 0,0,1
 369 -12 369 -12 457 94 c 1,2,-1
 407 139 l 1,3,4
 341 57 341 57 249 57 c 0,5,6
 189 57 189 57 157.5 90.5 c 128,-1,7
 126 124 126 124 126 179 c 0,8,9
 126 196 126 196 129 221 c 1,10,11
 310 223 310 223 397.5 264 c 128,-1,12
 485 305 485 305 485 390 c 0,13,14
 485 457 485 457 435 494 c 0,15,16
 385 528 385 528 319 528 c 0,17,18
 258 528 258 528 208.5 502 c 128,-1,19
 159 476 159 476 124 430 c 0,20,21
 49 332 49 332 49 204 c 0,22,23
 49 98 49 98 100 43 c 128,-1,24
 151 -12 151 -12 244 -12 c 0,0,1
139 281 m 1,25,-1
 145 310 l 2,26,27
 160 380 160 380 205.5 421 c 128,-1,28
 251 462 251 462 311 462 c 0,29,30
 347 462 347 462 377 447 c 0,31,32
 406 429 406 429 406 391 c 0,33,34
 406 364 406 364 395.5 345 c 128,-1,35
 385 326 385 326 356 313 c 0,36,37
 301 287 301 287 139 281 c 1,25,-1
320 585 m 1,38,-1
 365 606 l 1,39,-1
 304 776 l 1,40,-1
 236 744 l 1,41,-1
 320 585 l 1,38,-1
EndSplineSet
EndChar

StartChar: eacute
Encoding: 233 233 168
Width: 511
Flags: W
LayerCount: 2
Fore
SplineSet
244 -12 m 0,0,1
 369 -12 369 -12 457 94 c 1,2,-1
 407 139 l 1,3,4
 341 57 341 57 249 57 c 0,5,6
 189 57 189 57 157.5 90.5 c 128,-1,7
 126 124 126 124 126 179 c 0,8,9
 126 196 126 196 129 221 c 1,10,11
 310 223 310 223 397.5 264 c 128,-1,12
 485 305 485 305 485 390 c 0,13,14
 485 457 485 457 435 494 c 0,15,16
 385 528 385 528 319 528 c 0,17,18
 258 528 258 528 208.5 502 c 128,-1,19
 159 476 159 476 124 430 c 0,20,21
 49 332 49 332 49 204 c 0,22,23
 49 98 49 98 100 43 c 128,-1,24
 151 -12 151 -12 244 -12 c 0,0,1
139 281 m 1,25,-1
 145 310 l 2,26,27
 160 380 160 380 205.5 421 c 128,-1,28
 251 462 251 462 311 462 c 0,29,30
 347 462 347 462 377 447 c 0,31,32
 406 429 406 429 406 391 c 0,33,34
 406 364 406 364 395.5 345 c 128,-1,35
 385 326 385 326 356 313 c 0,36,37
 301 287 301 287 139 281 c 1,25,-1
348 585 m 1,38,-1
 472 744 l 1,39,-1
 404 780 l 1,40,-1
 300 610 l 1,41,-1
 348 585 l 1,38,-1
EndSplineSet
EndChar

StartChar: ecircumflex
Encoding: 234 234 169
Width: 511
Flags: W
LayerCount: 2
Fore
SplineSet
244 -12 m 0,0,1
 369 -12 369 -12 457 94 c 1,2,-1
 407 139 l 1,3,4
 341 57 341 57 249 57 c 0,5,6
 189 57 189 57 157.5 90.5 c 128,-1,7
 126 124 126 124 126 179 c 0,8,9
 126 196 126 196 129 221 c 1,10,11
 310 223 310 223 397.5 264 c 128,-1,12
 485 305 485 305 485 390 c 0,13,14
 485 457 485 457 435 494 c 0,15,16
 385 528 385 528 319 528 c 0,17,18
 258 528 258 528 208.5 502 c 128,-1,19
 159 476 159 476 124 430 c 0,20,21
 49 332 49 332 49 204 c 0,22,23
 49 98 49 98 100 43 c 128,-1,24
 151 -12 151 -12 244 -12 c 0,0,1
139 281 m 1,25,-1
 145 310 l 2,26,27
 160 380 160 380 205.5 421 c 128,-1,28
 251 462 251 462 311 462 c 0,29,30
 347 462 347 462 377 447 c 0,31,32
 406 429 406 429 406 391 c 0,33,34
 406 364 406 364 395.5 345 c 128,-1,35
 385 326 385 326 356 313 c 0,36,37
 301 287 301 287 139 281 c 1,25,-1
216 590 m 1,38,-1
 355 706 l 1,39,-1
 448 591 l 1,40,-1
 491 622 l 1,41,-1
 409 765 l 1,42,-1
 315 765 l 1,43,-1
 177 622 l 1,44,-1
 216 590 l 1,38,-1
EndSplineSet
EndChar

StartChar: edieresis
Encoding: 235 235 170
Width: 511
Flags: W
LayerCount: 2
Fore
SplineSet
244 -12 m 0,0,1
 369 -12 369 -12 457 94 c 1,2,-1
 407 139 l 1,3,4
 341 57 341 57 249 57 c 0,5,6
 189 57 189 57 157.5 90.5 c 128,-1,7
 126 124 126 124 126 179 c 0,8,9
 126 196 126 196 129 221 c 1,10,11
 310 223 310 223 397.5 264 c 128,-1,12
 485 305 485 305 485 390 c 0,13,14
 485 457 485 457 435 494 c 0,15,16
 385 528 385 528 319 528 c 0,17,18
 258 528 258 528 208.5 502 c 128,-1,19
 159 476 159 476 124 430 c 0,20,21
 49 332 49 332 49 204 c 0,22,23
 49 98 49 98 100 43 c 128,-1,24
 151 -12 151 -12 244 -12 c 0,0,1
139 281 m 1,25,-1
 145 310 l 2,26,27
 160 380 160 380 205.5 421 c 128,-1,28
 251 462 251 462 311 462 c 0,29,30
 347 462 347 462 377 447 c 0,31,32
 406 429 406 429 406 391 c 0,33,34
 406 364 406 364 395.5 345 c 128,-1,35
 385 326 385 326 356 313 c 0,36,37
 301 287 301 287 139 281 c 1,25,-1
248 618 m 0,38,39
 295 618 295 618 304 665 c 0,40,41
 307 682 307 682 307 686 c 0,42,43
 307 721 307 721 265 721 c 0,44,45
 219 721 219 721 209 674 c 0,46,47
 206 663 206 663 206 653 c 0,48,49
 206 619 206 619 248 618 c 0,38,39
430 618 m 0,50,51
 477 618 477 618 486 665 c 0,52,53
 489 682 489 682 489 686 c 0,54,55
 489 721 489 721 447 721 c 0,56,57
 401 721 401 721 391 674 c 0,58,59
 388 663 388 663 388 653 c 0,60,61
 388 619 388 619 430 618 c 0,50,51
EndSplineSet
EndChar

StartChar: igrave
Encoding: 236 236 171
Width: 264
Flags: W
LayerCount: 2
Fore
SplineSet
187 0 m 1,0,-1
 200 68 l 1,1,-1
 127 68 l 1,2,-1
 217 516 l 1,3,-1
 140 516 l 1,4,5
 51 71 51 71 51 63 c 0,6,7
 51 35 51 35 68 17.5 c 128,-1,8
 85 0 85 0 120 0 c 2,9,-1
 187 0 l 1,0,-1
184 585 m 1,10,-1
 229 606 l 1,11,-1
 168 776 l 1,12,-1
 100 744 l 1,13,-1
 184 585 l 1,10,-1
EndSplineSet
EndChar

StartChar: iacute
Encoding: 237 237 172
Width: 264
Flags: W
LayerCount: 2
Fore
SplineSet
187 0 m 1,0,-1
 200 68 l 1,1,-1
 127 68 l 1,2,-1
 217 516 l 1,3,-1
 140 516 l 1,4,5
 51 71 51 71 51 63 c 0,6,7
 51 35 51 35 68 17.5 c 128,-1,8
 85 0 85 0 120 0 c 2,9,-1
 187 0 l 1,0,-1
212 585 m 1,10,-1
 336 744 l 1,11,-1
 268 780 l 1,12,-1
 164 610 l 1,13,-1
 212 585 l 1,10,-1
EndSplineSet
EndChar

StartChar: icircumflex
Encoding: 238 238 173
Width: 264
Flags: W
LayerCount: 2
Fore
SplineSet
187 0 m 1,0,-1
 200 68 l 1,1,-1
 127 68 l 1,2,-1
 217 516 l 1,3,-1
 140 516 l 1,4,5
 51 71 51 71 51 63 c 0,6,7
 51 35 51 35 68 17.5 c 128,-1,8
 85 0 85 0 120 0 c 2,9,-1
 187 0 l 1,0,-1
80 590 m 1,10,-1
 219 706 l 1,11,-1
 312 591 l 1,12,-1
 355 622 l 1,13,-1
 273 765 l 1,14,-1
 179 765 l 1,15,-1
 41 622 l 1,16,-1
 80 590 l 1,10,-1
EndSplineSet
EndChar

StartChar: idieresis
Encoding: 239 239 174
Width: 264
Flags: W
LayerCount: 2
Fore
SplineSet
187 0 m 1,0,-1
 200 68 l 1,1,-1
 127 68 l 1,2,-1
 217 516 l 1,3,-1
 140 516 l 1,4,5
 51 71 51 71 51 63 c 0,6,7
 51 35 51 35 68 17.5 c 128,-1,8
 85 0 85 0 120 0 c 2,9,-1
 187 0 l 1,0,-1
112 618 m 0,10,11
 159 618 159 618 168 665 c 0,12,13
 171 682 171 682 171 686 c 0,14,15
 171 721 171 721 129 721 c 0,16,17
 83 721 83 721 73 674 c 0,18,19
 70 663 70 663 70 653 c 0,20,21
 70 619 70 619 112 618 c 0,10,11
294 618 m 0,22,23
 341 618 341 618 350 665 c 0,24,25
 353 682 353 682 353 686 c 0,26,27
 353 721 353 721 311 721 c 0,28,29
 265 721 265 721 255 674 c 0,30,31
 252 663 252 663 252 653 c 0,32,33
 252 619 252 619 294 618 c 0,22,23
EndSplineSet
EndChar

StartChar: eth
Encoding: 240 240 175
Width: 563
Flags: W
LayerCount: 2
Fore
SplineSet
236 -12 m 0,0,1
 361 -12 361 -12 436 88.5 c 128,-1,2
 511 189 511 189 511 357 c 0,3,4
 511 407 511 407 503 450 c 0,5,6
 481 571 481 571 416 652 c 1,7,-1
 502 707 l 1,8,-1
 474 753 l 1,9,-1
 381 692 l 1,10,11
 353 721 353 721 330 740 c 1,12,-1
 216 740 l 1,13,14
 281 703 281 703 325 656 c 1,15,-1
 244 603 l 1,16,-1
 270 559 l 1,17,-1
 359 616 l 1,18,19
 425 525 425 525 435 416 c 1,20,-1
 430 414 l 1,21,22
 400 505 400 505 293 505 c 0,23,24
 240 505 240 505 195.5 480.5 c 128,-1,25
 151 456 151 456 119 413 c 0,26,27
 49 320 49 320 49 198 c 0,28,29
 49 104 49 104 99 47 c 0,30,31
 148 -12 148 -12 236 -12 c 0,0,1
249 58 m 0,32,33
 191 58 191 58 157.5 88.5 c 128,-1,34
 124 119 124 119 124 174 c 0,35,36
 124 189 124 189 128 207 c 2,37,-1
 143 282 l 2,38,39
 158 351 158 351 200 393 c 128,-1,40
 242 435 242 435 301 435 c 0,41,42
 359 435 359 435 392.5 404.5 c 128,-1,43
 426 374 426 374 426 319 c 0,44,45
 426 304 426 304 422 287 c 2,46,-1
 407 211 l 2,47,48
 392 142 392 142 350.5 100 c 128,-1,49
 309 58 309 58 249 58 c 0,32,33
EndSplineSet
EndChar

StartChar: ntilde
Encoding: 241 241 176
Width: 565
Flags: W
LayerCount: 2
Fore
SplineSet
495 0 m 1,0,-1
 508 68 l 1,1,-1
 435 68 l 1,2,-1
 485 318 l 2,3,4
 492 357 492 357 492 385 c 0,5,6
 492 452 492 452 459 490 c 128,-1,7
 426 528 426 528 359 528 c 0,8,9
 303 528 303 528 265 500 c 128,-1,10
 227 472 227 472 201 414 c 1,11,-1
 196 414 l 1,12,-1
 217 516 l 1,13,-1
 140 516 l 1,14,-1
 36 0 l 1,15,-1
 113 0 l 1,16,-1
 171 288 l 2,17,18
 177 319 177 319 195 355 c 0,19,20
 207 380 207 380 226 403.5 c 128,-1,21
 245 427 245 427 271.5 442.5 c 128,-1,22
 298 458 298 458 334 458 c 0,23,24
 376 458 376 458 394.5 436.5 c 128,-1,25
 413 415 413 415 413 371 c 0,26,27
 413 331 413 331 359 76 c 0,28,29
 358 71 358 71 358 58 c 0,30,31
 358 0 358 0 422 0 c 2,32,-1
 495 0 l 1,0,-1
425 612 m 0,33,34
 481 612 481 612 524 665 c 1,35,-1
 496 704 l 1,36,37
 479 691 479 691 466 684 c 128,-1,38
 453 677 453 677 436 677 c 0,39,40
 411 677 411 677 371 701 c 0,41,42
 357 710 357 710 340 718 c 128,-1,43
 323 726 323 726 297 726 c 0,44,45
 241 726 241 726 198 673 c 1,46,-1
 226 634 l 1,47,48
 243 647 243 647 256 654 c 128,-1,49
 269 661 269 661 286 661 c 0,50,51
 312 661 312 661 351 637 c 0,52,53
 365 628 365 628 382 620 c 128,-1,54
 399 612 399 612 425 612 c 0,33,34
EndSplineSet
EndChar

StartChar: ograve
Encoding: 242 242 177
Width: 550
Flags: W
LayerCount: 2
Fore
SplineSet
235 -12 m 0,0,1
 294 -12 294 -12 343 14.5 c 128,-1,2
 392 41 392 41 427 87 c 0,3,4
 501 186 501 186 501 316 c 0,5,6
 501 420 501 420 449 475 c 0,7,8
 395 528 395 528 315 528 c 0,9,10
 256 528 256 528 207 501.5 c 128,-1,11
 158 475 158 475 123 429 c 0,12,13
 49 331 49 331 49 200 c 0,14,15
 49 98 49 98 101 43 c 128,-1,16
 153 -12 153 -12 235 -12 c 0,0,1
245 57 m 0,17,18
 186 57 186 57 155.5 90.5 c 128,-1,19
 125 124 125 124 125 178 c 0,20,21
 125 198 125 198 130 223 c 2,22,-1
 145 298 l 2,23,24
 162 377 162 377 205.5 418 c 128,-1,25
 249 459 249 459 305 459 c 0,26,27
 364 459 364 459 394.5 425.5 c 128,-1,28
 425 392 425 392 425 338 c 0,29,30
 425 319 425 319 420 293 c 2,31,-1
 405 218 l 2,32,33
 388 139 388 139 344.5 98 c 128,-1,34
 301 57 301 57 245 57 c 0,17,18
317 585 m 1,35,-1
 362 606 l 1,36,-1
 301 776 l 1,37,-1
 233 744 l 1,38,-1
 317 585 l 1,35,-1
EndSplineSet
EndChar

StartChar: oacute
Encoding: 243 243 178
Width: 550
Flags: W
LayerCount: 2
Fore
SplineSet
235 -12 m 0,0,1
 294 -12 294 -12 343 14.5 c 128,-1,2
 392 41 392 41 427 87 c 0,3,4
 501 186 501 186 501 316 c 0,5,6
 501 420 501 420 449 475 c 0,7,8
 395 528 395 528 315 528 c 0,9,10
 256 528 256 528 207 501.5 c 128,-1,11
 158 475 158 475 123 429 c 0,12,13
 49 331 49 331 49 200 c 0,14,15
 49 98 49 98 101 43 c 128,-1,16
 153 -12 153 -12 235 -12 c 0,0,1
245 57 m 0,17,18
 186 57 186 57 155.5 90.5 c 128,-1,19
 125 124 125 124 125 178 c 0,20,21
 125 198 125 198 130 223 c 2,22,-1
 145 298 l 2,23,24
 162 377 162 377 205.5 418 c 128,-1,25
 249 459 249 459 305 459 c 0,26,27
 364 459 364 459 394.5 425.5 c 128,-1,28
 425 392 425 392 425 338 c 0,29,30
 425 319 425 319 420 293 c 2,31,-1
 405 218 l 2,32,33
 388 139 388 139 344.5 98 c 128,-1,34
 301 57 301 57 245 57 c 0,17,18
345 585 m 1,35,-1
 469 744 l 1,36,-1
 401 780 l 1,37,-1
 297 610 l 1,38,-1
 345 585 l 1,35,-1
EndSplineSet
EndChar

StartChar: ocircumflex
Encoding: 244 244 179
Width: 550
Flags: W
LayerCount: 2
Fore
SplineSet
235 -12 m 0,0,1
 294 -12 294 -12 343 14.5 c 128,-1,2
 392 41 392 41 427 87 c 0,3,4
 501 186 501 186 501 316 c 0,5,6
 501 420 501 420 449 475 c 0,7,8
 395 528 395 528 315 528 c 0,9,10
 256 528 256 528 207 501.5 c 128,-1,11
 158 475 158 475 123 429 c 0,12,13
 49 331 49 331 49 200 c 0,14,15
 49 98 49 98 101 43 c 128,-1,16
 153 -12 153 -12 235 -12 c 0,0,1
245 57 m 0,17,18
 186 57 186 57 155.5 90.5 c 128,-1,19
 125 124 125 124 125 178 c 0,20,21
 125 198 125 198 130 223 c 2,22,-1
 145 298 l 2,23,24
 162 377 162 377 205.5 418 c 128,-1,25
 249 459 249 459 305 459 c 0,26,27
 364 459 364 459 394.5 425.5 c 128,-1,28
 425 392 425 392 425 338 c 0,29,30
 425 319 425 319 420 293 c 2,31,-1
 405 218 l 2,32,33
 388 139 388 139 344.5 98 c 128,-1,34
 301 57 301 57 245 57 c 0,17,18
213 590 m 1,35,-1
 352 706 l 1,36,-1
 445 591 l 1,37,-1
 488 622 l 1,38,-1
 406 765 l 1,39,-1
 312 765 l 1,40,-1
 174 622 l 1,41,-1
 213 590 l 1,35,-1
EndSplineSet
EndChar

StartChar: otilde
Encoding: 245 245 180
Width: 550
Flags: W
LayerCount: 2
Fore
SplineSet
235 -12 m 0,0,1
 294 -12 294 -12 343 14.5 c 128,-1,2
 392 41 392 41 427 87 c 0,3,4
 501 186 501 186 501 316 c 0,5,6
 501 420 501 420 449 475 c 0,7,8
 395 528 395 528 315 528 c 0,9,10
 256 528 256 528 207 501.5 c 128,-1,11
 158 475 158 475 123 429 c 0,12,13
 49 331 49 331 49 200 c 0,14,15
 49 98 49 98 101 43 c 128,-1,16
 153 -12 153 -12 235 -12 c 0,0,1
245 57 m 0,17,18
 186 57 186 57 155.5 90.5 c 128,-1,19
 125 124 125 124 125 178 c 0,20,21
 125 198 125 198 130 223 c 2,22,-1
 145 298 l 2,23,24
 162 377 162 377 205.5 418 c 128,-1,25
 249 459 249 459 305 459 c 0,26,27
 364 459 364 459 394.5 425.5 c 128,-1,28
 425 392 425 392 425 338 c 0,29,30
 425 319 425 319 420 293 c 2,31,-1
 405 218 l 2,32,33
 388 139 388 139 344.5 98 c 128,-1,34
 301 57 301 57 245 57 c 0,17,18
408 612 m 0,35,36
 464 612 464 612 507 665 c 1,37,-1
 479 704 l 1,38,39
 462 691 462 691 449 684 c 128,-1,40
 436 677 436 677 419 677 c 0,41,42
 394 677 394 677 354 701 c 0,43,44
 340 710 340 710 323 718 c 128,-1,45
 306 726 306 726 280 726 c 0,46,47
 224 726 224 726 181 673 c 1,48,-1
 209 634 l 1,49,50
 226 647 226 647 239 654 c 128,-1,51
 252 661 252 661 269 661 c 0,52,53
 295 661 295 661 334 637 c 0,54,55
 348 628 348 628 365 620 c 128,-1,56
 382 612 382 612 408 612 c 0,35,36
EndSplineSet
EndChar

StartChar: odieresis
Encoding: 246 246 181
Width: 550
Flags: W
LayerCount: 2
Fore
SplineSet
235 -12 m 0,0,1
 294 -12 294 -12 343 14.5 c 128,-1,2
 392 41 392 41 427 87 c 0,3,4
 501 186 501 186 501 316 c 0,5,6
 501 420 501 420 449 475 c 0,7,8
 395 528 395 528 315 528 c 0,9,10
 256 528 256 528 207 501.5 c 128,-1,11
 158 475 158 475 123 429 c 0,12,13
 49 331 49 331 49 200 c 0,14,15
 49 98 49 98 101 43 c 128,-1,16
 153 -12 153 -12 235 -12 c 0,0,1
245 57 m 0,17,18
 186 57 186 57 155.5 90.5 c 128,-1,19
 125 124 125 124 125 178 c 0,20,21
 125 198 125 198 130 223 c 2,22,-1
 145 298 l 2,23,24
 162 377 162 377 205.5 418 c 128,-1,25
 249 459 249 459 305 459 c 0,26,27
 364 459 364 459 394.5 425.5 c 128,-1,28
 425 392 425 392 425 338 c 0,29,30
 425 319 425 319 420 293 c 2,31,-1
 405 218 l 2,32,33
 388 139 388 139 344.5 98 c 128,-1,34
 301 57 301 57 245 57 c 0,17,18
245 618 m 0,35,36
 292 618 292 618 301 665 c 0,37,38
 304 682 304 682 304 686 c 0,39,40
 304 721 304 721 262 721 c 0,41,42
 216 721 216 721 206 674 c 0,43,44
 203 663 203 663 203 653 c 0,45,46
 203 619 203 619 245 618 c 0,35,36
427 618 m 0,47,48
 474 618 474 618 483 665 c 0,49,50
 486 682 486 682 486 686 c 0,51,52
 486 721 486 721 444 721 c 0,53,54
 398 721 398 721 388 674 c 0,55,56
 385 663 385 663 385 653 c 0,57,58
 385 619 385 619 427 618 c 0,47,48
EndSplineSet
EndChar

StartChar: divide
Encoding: 247 247 182
Width: 600
Flags: W
LayerCount: 2
Fore
SplineSet
527 273 m 1,0,-1
 541 339 l 1,1,-1
 91 339 l 1,2,-1
 77 273 l 1,3,-1
 527 273 l 1,0,-1
263 54 m 0,4,5
 322 54 322 54 328 106 c 0,6,7
 332 122 332 122 332 134 c 0,8,9
 332 172 332 172 282 172 c 0,10,11
 224 172 224 172 217 120 c 0,12,13
 213 104 213 104 213 92 c 0,14,15
 213 54 213 54 263 54 c 0,4,5
338 440 m 0,16,17
 397 440 397 440 403 492 c 0,18,19
 407 508 407 508 407 520 c 0,20,21
 407 558 407 558 357 558 c 0,22,23
 299 558 299 558 292 506 c 0,24,25
 288 490 288 490 288 478 c 0,26,27
 288 440 288 440 338 440 c 0,16,17
EndSplineSet
EndChar

StartChar: oslash
Encoding: 248 248 183
Width: 550
Flags: W
LayerCount: 2
Fore
SplineSet
22 -41 m 1,0,-1
 102 42 l 1,1,2
 153 -12 153 -12 235 -12 c 0,3,4
 294 -12 294 -12 343 14.5 c 128,-1,5
 392 41 392 41 427 87 c 0,6,7
 501 186 501 186 501 316 c 0,8,9
 501 384 501 384 479 428 c 1,10,-1
 567 519 l 1,11,-1
 528 557 l 1,12,-1
 448 474 l 1,13,14
 398 528 398 528 315 528 c 0,15,16
 256 528 256 528 207 501.5 c 128,-1,17
 158 475 158 475 123 429 c 0,18,19
 49 331 49 331 49 200 c 0,20,21
 49 133 49 133 71 88 c 1,22,-1
 -17 -3 l 1,23,-1
 22 -41 l 1,0,-1
245 57 m 0,24,25
 184 57 184 57 152 94 c 1,26,-1
 422 371 l 1,27,28
 425 358 425 358 425 338 c 2,29,-1
 425 325 l 2,30,31
 424 312 424 312 405 218 c 0,32,33
 388 139 388 139 344.5 98 c 128,-1,34
 301 57 301 57 245 57 c 0,24,25
128 145 m 1,35,36
 125 159 125 159 125 178 c 2,37,-1
 125 191 l 2,38,39
 126 204 126 204 145 298 c 0,40,41
 162 377 162 377 205.5 418 c 128,-1,42
 249 459 249 459 305 459 c 0,43,44
 367 459 367 459 398 422 c 1,45,-1
 128 145 l 1,35,36
EndSplineSet
EndChar

StartChar: ugrave
Encoding: 249 249 184
Width: 562
Flags: W
LayerCount: 2
Fore
SplineSet
195 -12 m 0,0,1
 303 -12 303 -12 350 102 c 1,2,-1
 355 102 l 1,3,4
 349 72 349 72 349 63 c 0,5,6
 349 35 349 35 365.5 17.5 c 128,-1,7
 382 0 382 0 415 0 c 2,8,-1
 485 0 l 1,9,-1
 498 68 l 1,10,-1
 425 68 l 1,11,-1
 515 516 l 1,12,-1
 438 516 l 1,13,-1
 380 228 l 2,14,15
 374 199 374 199 357 164 c 0,16,17
 346 139 346 139 327 115 c 128,-1,18
 308 91 308 91 281.5 74.5 c 128,-1,19
 255 58 255 58 219 58 c 0,20,21
 177 58 177 58 159.5 80 c 128,-1,22
 142 102 142 102 142 145 c 0,23,24
 142 163 142 163 147 198 c 2,25,-1
 211 516 l 1,26,-1
 134 516 l 1,27,-1
 70 198 l 2,28,29
 63 160 63 160 63 131 c 0,30,31
 63 64 63 64 96 26 c 128,-1,32
 129 -12 129 -12 195 -12 c 0,0,1
326 585 m 1,33,-1
 371 606 l 1,34,-1
 310 776 l 1,35,-1
 242 744 l 1,36,-1
 326 585 l 1,33,-1
EndSplineSet
EndChar

StartChar: uacute
Encoding: 250 250 185
Width: 562
Flags: W
LayerCount: 2
Fore
SplineSet
195 -12 m 0,0,1
 303 -12 303 -12 350 102 c 1,2,-1
 355 102 l 1,3,4
 349 72 349 72 349 63 c 0,5,6
 349 35 349 35 365.5 17.5 c 128,-1,7
 382 0 382 0 415 0 c 2,8,-1
 485 0 l 1,9,-1
 498 68 l 1,10,-1
 425 68 l 1,11,-1
 515 516 l 1,12,-1
 438 516 l 1,13,-1
 380 228 l 2,14,15
 374 199 374 199 357 164 c 0,16,17
 346 139 346 139 327 115 c 128,-1,18
 308 91 308 91 281.5 74.5 c 128,-1,19
 255 58 255 58 219 58 c 0,20,21
 177 58 177 58 159.5 80 c 128,-1,22
 142 102 142 102 142 145 c 0,23,24
 142 163 142 163 147 198 c 2,25,-1
 211 516 l 1,26,-1
 134 516 l 1,27,-1
 70 198 l 2,28,29
 63 160 63 160 63 131 c 0,30,31
 63 64 63 64 96 26 c 128,-1,32
 129 -12 129 -12 195 -12 c 0,0,1
354 585 m 1,33,-1
 478 744 l 1,34,-1
 410 780 l 1,35,-1
 306 610 l 1,36,-1
 354 585 l 1,33,-1
EndSplineSet
EndChar

StartChar: ucircumflex
Encoding: 251 251 186
Width: 562
Flags: W
LayerCount: 2
Fore
SplineSet
195 -12 m 0,0,1
 303 -12 303 -12 350 102 c 1,2,-1
 355 102 l 1,3,4
 349 72 349 72 349 63 c 0,5,6
 349 35 349 35 365.5 17.5 c 128,-1,7
 382 0 382 0 415 0 c 2,8,-1
 485 0 l 1,9,-1
 498 68 l 1,10,-1
 425 68 l 1,11,-1
 515 516 l 1,12,-1
 438 516 l 1,13,-1
 380 228 l 2,14,15
 374 199 374 199 357 164 c 0,16,17
 346 139 346 139 327 115 c 128,-1,18
 308 91 308 91 281.5 74.5 c 128,-1,19
 255 58 255 58 219 58 c 0,20,21
 177 58 177 58 159.5 80 c 128,-1,22
 142 102 142 102 142 145 c 0,23,24
 142 163 142 163 147 198 c 2,25,-1
 211 516 l 1,26,-1
 134 516 l 1,27,-1
 70 198 l 2,28,29
 63 160 63 160 63 131 c 0,30,31
 63 64 63 64 96 26 c 128,-1,32
 129 -12 129 -12 195 -12 c 0,0,1
222 590 m 1,33,-1
 361 706 l 1,34,-1
 454 591 l 1,35,-1
 497 622 l 1,36,-1
 415 765 l 1,37,-1
 321 765 l 1,38,-1
 183 622 l 1,39,-1
 222 590 l 1,33,-1
EndSplineSet
EndChar

StartChar: udieresis
Encoding: 252 252 187
Width: 562
Flags: W
LayerCount: 2
Fore
SplineSet
195 -12 m 0,0,1
 303 -12 303 -12 350 102 c 1,2,-1
 355 102 l 1,3,4
 349 72 349 72 349 63 c 0,5,6
 349 35 349 35 365.5 17.5 c 128,-1,7
 382 0 382 0 415 0 c 2,8,-1
 485 0 l 1,9,-1
 498 68 l 1,10,-1
 425 68 l 1,11,-1
 515 516 l 1,12,-1
 438 516 l 1,13,-1
 380 228 l 2,14,15
 374 199 374 199 357 164 c 0,16,17
 346 139 346 139 327 115 c 128,-1,18
 308 91 308 91 281.5 74.5 c 128,-1,19
 255 58 255 58 219 58 c 0,20,21
 177 58 177 58 159.5 80 c 128,-1,22
 142 102 142 102 142 145 c 0,23,24
 142 163 142 163 147 198 c 2,25,-1
 211 516 l 1,26,-1
 134 516 l 1,27,-1
 70 198 l 2,28,29
 63 160 63 160 63 131 c 0,30,31
 63 64 63 64 96 26 c 128,-1,32
 129 -12 129 -12 195 -12 c 0,0,1
254 618 m 0,33,34
 301 618 301 618 310 665 c 0,35,36
 313 682 313 682 313 686 c 0,37,38
 313 721 313 721 271 721 c 0,39,40
 225 721 225 721 215 674 c 0,41,42
 212 663 212 663 212 653 c 0,43,44
 212 619 212 619 254 618 c 0,33,34
436 618 m 0,45,46
 483 618 483 618 492 665 c 0,47,48
 495 682 495 682 495 686 c 0,49,50
 495 721 495 721 453 721 c 0,51,52
 407 721 407 721 397 674 c 0,53,54
 394 663 394 663 394 653 c 0,55,56
 394 619 394 619 436 618 c 0,45,46
EndSplineSet
EndChar

StartChar: yacute
Encoding: 253 253 188
Width: 484
Flags: W
LayerCount: 2
Fore
SplineSet
60 -200 m 2,0,1
 99 -200 99 -200 123 -181 c 128,-1,2
 147 -162 147 -162 171 -117 c 2,3,-1
 520 516 l 1,4,-1
 438 516 l 1,5,-1
 300 261 l 1,6,-1
 207 73 l 1,7,-1
 202 73 l 1,8,-1
 181 261 l 1,9,-1
 143 516 l 1,10,-1
 68 516 l 1,11,-1
 150 -16 l 1,12,-1
 86 -134 l 1,13,-1
 -7 -134 l 1,14,-1
 -20 -200 l 1,15,-1
 60 -200 l 2,0,1
321 585 m 1,16,-1
 445 744 l 1,17,-1
 377 780 l 1,18,-1
 273 610 l 1,19,-1
 321 585 l 1,16,-1
EndSplineSet
EndChar

StartChar: thorn
Encoding: 254 254 189
Width: 572
Flags: W
LayerCount: 2
Fore
SplineSet
73 -200 m 1,0,-1
 130 84 l 1,1,-1
 134 84 l 1,2,3
 147 36 147 36 185 12 c 128,-1,4
 223 -12 223 -12 269 -12 c 0,5,6
 333 -12 333 -12 380.5 19.5 c 128,-1,7
 428 51 428 51 459 102.5 c 128,-1,8
 490 154 490 154 505.5 214 c 128,-1,9
 521 274 521 274 521 331 c 0,10,11
 521 423 521 423 478 475.5 c 128,-1,12
 435 528 435 528 364 528 c 0,13,14
 307 528 307 528 268 498.5 c 128,-1,15
 229 469 229 469 197 404 c 1,16,-1
 194 404 l 1,17,-1
 262 740 l 1,18,-1
 185 740 l 1,19,-1
 -4 -200 l 1,20,-1
 73 -200 l 1,0,-1
262 58 m 0,21,22
 196 58 196 58 166 94 c 0,23,24
 146 119 146 119 146 151 c 0,25,26
 146 164 146 164 149 178 c 2,27,-1
 170 283 l 2,28,29
 186 359 186 359 235 407 c 0,30,31
 258 431 258 431 283.5 444.5 c 128,-1,32
 309 458 309 458 345 458 c 0,33,34
 395 458 395 458 418.5 424.5 c 128,-1,35
 442 391 442 391 442 341 c 0,36,37
 442 319 442 319 437 290 c 2,38,-1
 422 215 l 2,39,40
 388 58 388 58 262 58 c 0,21,22
EndSplineSet
EndChar

StartChar: ydieresis
Encoding: 255 255 190
Width: 484
Flags: W
LayerCount: 2
Fore
SplineSet
60 -200 m 2,0,1
 99 -200 99 -200 123 -181 c 128,-1,2
 147 -162 147 -162 171 -117 c 2,3,-1
 520 516 l 1,4,-1
 438 516 l 1,5,-1
 300 261 l 1,6,-1
 207 73 l 1,7,-1
 202 73 l 1,8,-1
 181 261 l 1,9,-1
 143 516 l 1,10,-1
 68 516 l 1,11,-1
 150 -16 l 1,12,-1
 86 -134 l 1,13,-1
 -7 -134 l 1,14,-1
 -20 -200 l 1,15,-1
 60 -200 l 2,0,1
221 618 m 0,16,17
 268 618 268 618 277 665 c 0,18,19
 280 682 280 682 280 686 c 0,20,21
 280 721 280 721 238 721 c 0,22,23
 192 721 192 721 182 674 c 0,24,25
 179 663 179 663 179 653 c 0,26,27
 179 619 179 619 221 618 c 0,16,17
403 618 m 0,28,29
 450 618 450 618 459 665 c 0,30,31
 462 682 462 682 462 686 c 0,32,33
 462 721 462 721 420 721 c 0,34,35
 374 721 374 721 364 674 c 0,36,37
 361 663 361 663 361 653 c 0,38,39
 361 619 361 619 403 618 c 0,28,29
EndSplineSet
EndChar

StartChar: Amacron
Encoding: 256 256 191
Width: 623
Flags: W
LayerCount: 2
Fore
SplineSet
547 0 m 1,0,-1
 453 698 l 1,1,-1
 346 698 l 1,2,-1
 -27 0 l 1,3,-1
 59 0 l 1,4,-1
 167 206 l 1,5,-1
 438 206 l 1,6,-1
 464 0 l 1,7,-1
 547 0 l 1,0,-1
430 278 m 1,8,-1
 204 278 l 1,9,-1
 382 621 l 1,10,-1
 387 621 l 1,11,-1
 430 278 l 1,8,-1
552 809 m 1,12,-1
 566 875 l 1,13,-1
 294 875 l 1,14,-1
 280 809 l 1,15,-1
 552 809 l 1,12,-1
EndSplineSet
EndChar

StartChar: amacron
Encoding: 257 257 192
Width: 583
Flags: W
LayerCount: 2
Fore
SplineSet
208 -12 m 0,0,1
 265 -12 265 -12 304 17.5 c 128,-1,2
 343 47 343 47 375 112 c 1,3,-1
 378 112 l 1,4,5
 370 75 370 75 370 62 c 0,6,7
 370 34 370 34 386.5 17 c 128,-1,8
 403 0 403 0 437 0 c 2,9,-1
 506 0 l 1,10,-1
 519 68 l 1,11,-1
 446 68 l 1,12,-1
 536 516 l 1,13,-1
 459 516 l 1,14,-1
 442 432 l 1,15,-1
 438 432 l 1,16,17
 425 480 425 480 387.5 504 c 128,-1,18
 350 528 350 528 303 528 c 0,19,20
 239 528 239 528 191.5 496.5 c 128,-1,21
 144 465 144 465 113 413.5 c 128,-1,22
 82 362 82 362 66.5 302 c 128,-1,23
 51 242 51 242 51 185 c 0,24,25
 51 93 51 93 94 40.5 c 128,-1,26
 137 -12 137 -12 208 -12 c 0,0,1
227 58 m 0,27,28
 177 58 177 58 153.5 91.5 c 128,-1,29
 130 125 130 125 130 175 c 0,30,31
 130 198 130 198 135 226 c 2,32,-1
 150 301 l 2,33,34
 165 376 165 376 205.5 417 c 128,-1,35
 246 458 246 458 312 458 c 0,36,37
 369 458 369 458 402 425 c 0,38,39
 428 398 428 398 428 369 c 0,40,41
 428 362 428 362 402 233 c 0,42,43
 388 159 388 159 337 109 c 0,44,45
 314 85 314 85 288.5 71.5 c 128,-1,46
 263 58 263 58 227 58 c 0,27,28
487 639 m 1,47,-1
 501 705 l 1,48,-1
 229 705 l 1,49,-1
 215 639 l 1,50,-1
 487 639 l 1,47,-1
EndSplineSet
EndChar

StartChar: Abreve
Encoding: 258 258 193
Width: 623
Flags: W
LayerCount: 2
Fore
SplineSet
547 0 m 1,0,-1
 453 698 l 1,1,-1
 346 698 l 1,2,-1
 -27 0 l 1,3,-1
 59 0 l 1,4,-1
 167 206 l 1,5,-1
 438 206 l 1,6,-1
 464 0 l 1,7,-1
 547 0 l 1,0,-1
430 278 m 1,8,-1
 204 278 l 1,9,-1
 382 621 l 1,10,-1
 387 621 l 1,11,-1
 430 278 l 1,8,-1
415 766 m 0,12,13
 480 766 480 766 525 812 c 0,14,15
 564 855 564 855 582 900 c 1,16,-1
 534 920 l 1,17,-1
 517 898 l 2,18,19
 489 860 489 860 466.5 843.5 c 128,-1,20
 444 827 444 827 417 827 c 0,21,22
 388 827 388 827 371.5 845 c 128,-1,23
 355 863 355 863 340 898 c 2,24,-1
 330 920 l 1,25,-1
 284 900 l 1,26,27
 288 857 288 857 316 813 c 0,28,29
 348 766 348 766 415 766 c 0,12,13
EndSplineSet
EndChar

StartChar: abreve
Encoding: 259 259 194
Width: 583
Flags: W
LayerCount: 2
Fore
SplineSet
208 -12 m 0,0,1
 265 -12 265 -12 304 17.5 c 128,-1,2
 343 47 343 47 375 112 c 1,3,-1
 378 112 l 1,4,5
 370 75 370 75 370 62 c 0,6,7
 370 34 370 34 386.5 17 c 128,-1,8
 403 0 403 0 437 0 c 2,9,-1
 506 0 l 1,10,-1
 519 68 l 1,11,-1
 446 68 l 1,12,-1
 536 516 l 1,13,-1
 459 516 l 1,14,-1
 442 432 l 1,15,-1
 438 432 l 1,16,17
 425 480 425 480 387.5 504 c 128,-1,18
 350 528 350 528 303 528 c 0,19,20
 239 528 239 528 191.5 496.5 c 128,-1,21
 144 465 144 465 113 413.5 c 128,-1,22
 82 362 82 362 66.5 302 c 128,-1,23
 51 242 51 242 51 185 c 0,24,25
 51 93 51 93 94 40.5 c 128,-1,26
 137 -12 137 -12 208 -12 c 0,0,1
227 58 m 0,27,28
 177 58 177 58 153.5 91.5 c 128,-1,29
 130 125 130 125 130 175 c 0,30,31
 130 198 130 198 135 226 c 2,32,-1
 150 301 l 2,33,34
 165 376 165 376 205.5 417 c 128,-1,35
 246 458 246 458 312 458 c 0,36,37
 369 458 369 458 402 425 c 0,38,39
 428 398 428 398 428 369 c 0,40,41
 428 362 428 362 402 233 c 0,42,43
 388 159 388 159 337 109 c 0,44,45
 314 85 314 85 288.5 71.5 c 128,-1,46
 263 58 263 58 227 58 c 0,27,28
347 596 m 0,47,48
 412 596 412 596 457 642 c 0,49,50
 496 685 496 685 514 730 c 1,51,-1
 466 750 l 1,52,-1
 449 728 l 2,53,54
 421 690 421 690 398.5 673.5 c 128,-1,55
 376 657 376 657 349 657 c 0,56,57
 320 657 320 657 303.5 675 c 128,-1,58
 287 693 287 693 272 728 c 2,59,-1
 262 750 l 1,60,-1
 216 730 l 1,61,62
 220 687 220 687 248 643 c 0,63,64
 280 596 280 596 347 596 c 0,47,48
EndSplineSet
EndChar

StartChar: Aogonek
Encoding: 260 260 195
Width: 623
Flags: W
LayerCount: 2
Fore
SplineSet
457 -207 m 0,0,1
 521 -207 521 -207 553 -170 c 1,2,-1
 516 -126 l 1,3,4
 486 -153 486 -153 462 -153 c 0,5,6
 448 -153 448 -153 438.5 -145.5 c 128,-1,7
 429 -138 429 -138 429 -122 c 0,8,9
 429 -114 429 -114 433 -104 c 0,10,11
 446 -68 446 -68 547 0 c 1,12,-1
 453 698 l 1,13,-1
 346 698 l 1,14,-1
 -27 0 l 1,15,-1
 59 0 l 1,16,-1
 167 206 l 1,17,-1
 438 206 l 1,18,-1
 464 0 l 1,19,-1
 485 0 l 1,20,-1
 486 -5 l 1,21,22
 428 -31 428 -31 394.5 -60.5 c 128,-1,23
 361 -90 361 -90 361 -132 c 0,24,25
 361 -172 361 -172 390.5 -189.5 c 128,-1,26
 420 -207 420 -207 457 -207 c 0,0,1
430 278 m 1,27,-1
 204 278 l 1,28,-1
 382 621 l 1,29,-1
 387 621 l 1,30,-1
 430 278 l 1,27,-1
EndSplineSet
EndChar

StartChar: aogonek
Encoding: 261 261 196
Width: 583
Flags: W
LayerCount: 2
Fore
SplineSet
416 -207 m 0,0,1
 480 -207 480 -207 512 -170 c 1,2,-1
 475 -126 l 1,3,4
 445 -153 445 -153 421 -153 c 0,5,6
 407 -153 407 -153 397.5 -145.5 c 128,-1,7
 388 -138 388 -138 388 -122 c 0,8,9
 388 -114 388 -114 392 -104 c 0,10,11
 405 -68 405 -68 506 0 c 1,12,-1
 519 68 l 1,13,-1
 446 68 l 1,14,-1
 536 516 l 1,15,-1
 459 516 l 1,16,-1
 442 432 l 1,17,-1
 438 432 l 1,18,19
 425 480 425 480 387.5 504 c 128,-1,20
 350 528 350 528 303 528 c 0,21,22
 239 528 239 528 191.5 496.5 c 128,-1,23
 144 465 144 465 113 413.5 c 128,-1,24
 82 362 82 362 66.5 302 c 128,-1,25
 51 242 51 242 51 185 c 0,26,27
 51 93 51 93 94 40.5 c 128,-1,28
 137 -12 137 -12 208 -12 c 0,29,30
 265 -12 265 -12 304 17.5 c 128,-1,31
 343 47 343 47 375 112 c 1,32,-1
 378 112 l 1,33,34
 370 75 370 75 370 62 c 0,35,36
 370 34 370 34 386.5 17 c 128,-1,37
 403 0 403 0 437 0 c 2,38,-1
 444 0 l 1,39,-1
 445 -5 l 1,40,41
 387 -31 387 -31 353.5 -60.5 c 128,-1,42
 320 -90 320 -90 320 -132 c 0,43,44
 320 -172 320 -172 349.5 -189.5 c 128,-1,45
 379 -207 379 -207 416 -207 c 0,0,1
227 58 m 0,46,47
 177 58 177 58 153.5 91.5 c 128,-1,48
 130 125 130 125 130 175 c 0,49,50
 130 198 130 198 135 226 c 2,51,-1
 150 301 l 2,52,53
 165 376 165 376 205.5 417 c 128,-1,54
 246 458 246 458 312 458 c 0,55,56
 369 458 369 458 402 425 c 0,57,58
 428 398 428 398 428 369 c 0,59,60
 428 362 428 362 402 233 c 0,61,62
 388 159 388 159 337 109 c 0,63,64
 314 85 314 85 288.5 71.5 c 128,-1,65
 263 58 263 58 227 58 c 0,46,47
EndSplineSet
EndChar

StartChar: Cacute
Encoding: 262 262 197
Width: 602
Flags: W
LayerCount: 2
Fore
SplineSet
290 -12 m 0,0,1
 383 -12 383 -12 446.5 29 c 128,-1,2
 510 70 510 70 555 157 c 1,3,-1
 487 191 l 1,4,5
 454 130 454 130 410.5 95.5 c 128,-1,6
 367 61 367 61 295 61 c 0,7,8
 219 61 219 61 178 113 c 0,9,10
 136 164 136 164 136 246 c 0,11,12
 136 276 136 276 142 312 c 2,13,-1
 165 427 l 2,14,15
 185 524 185 524 244.5 580.5 c 128,-1,16
 304 637 304 637 383 637 c 0,17,18
 449 637 449 637 486.5 607 c 128,-1,19
 524 577 524 577 542 518 c 1,20,-1
 615 551 l 1,21,22
 563 710 563 710 391 710 c 0,23,24
 315 710 315 710 253.5 675 c 128,-1,25
 192 640 192 640 147 579 c 0,26,27
 55 448 55 448 55 266 c 0,28,29
 55 134 55 134 121.5 61 c 128,-1,30
 188 -12 188 -12 290 -12 c 0,0,1
418 756 m 1,31,-1
 541 914 l 1,32,-1
 473 950 l 1,33,-1
 369 781 l 1,34,-1
 418 756 l 1,31,-1
EndSplineSet
EndChar

StartChar: cacute
Encoding: 263 263 198
Width: 488
Flags: W
LayerCount: 2
Fore
SplineSet
236 -12 m 0,0,1
 370 -12 370 -12 437 128 c 1,2,-1
 376 158 l 1,3,4
 346 101 346 101 314 79 c 128,-1,5
 282 57 282 57 244 57 c 0,6,7
 184 57 184 57 155 92 c 128,-1,8
 126 127 126 127 126 183 c 0,9,10
 126 201 126 201 130 228 c 2,11,-1
 147 312 l 2,12,13
 161 382 161 382 199.5 420.5 c 128,-1,14
 238 459 238 459 300 459 c 0,15,16
 383 459 383 459 409 378 c 1,17,-1
 473 407 l 1,18,19
 458 461 458 461 414.5 494.5 c 128,-1,20
 371 528 371 528 302 528 c 0,21,22
 188 528 188 528 117 431 c 0,23,24
 49 333 49 333 49 199 c 0,25,26
 49 103 49 103 98.5 45.5 c 128,-1,27
 148 -12 148 -12 236 -12 c 0,0,1
333 585 m 1,28,-1
 457 744 l 1,29,-1
 389 780 l 1,30,-1
 285 610 l 1,31,-1
 333 585 l 1,28,-1
EndSplineSet
EndChar

StartChar: Ccircumflex
Encoding: 264 264 199
Width: 602
Flags: W
LayerCount: 2
Fore
SplineSet
290 -12 m 0,0,1
 383 -12 383 -12 446.5 29 c 128,-1,2
 510 70 510 70 555 157 c 1,3,-1
 487 191 l 1,4,5
 454 130 454 130 410.5 95.5 c 128,-1,6
 367 61 367 61 295 61 c 0,7,8
 219 61 219 61 178 113 c 0,9,10
 136 164 136 164 136 246 c 0,11,12
 136 276 136 276 142 312 c 2,13,-1
 165 427 l 2,14,15
 185 524 185 524 244.5 580.5 c 128,-1,16
 304 637 304 637 383 637 c 0,17,18
 449 637 449 637 486.5 607 c 128,-1,19
 524 577 524 577 542 518 c 1,20,-1
 615 551 l 1,21,22
 563 710 563 710 391 710 c 0,23,24
 315 710 315 710 253.5 675 c 128,-1,25
 192 640 192 640 147 579 c 0,26,27
 55 448 55 448 55 266 c 0,28,29
 55 134 55 134 121.5 61 c 128,-1,30
 188 -12 188 -12 290 -12 c 0,0,1
290 761 m 1,31,-1
 429 877 l 1,32,-1
 522 762 l 1,33,-1
 565 792 l 1,34,-1
 483 935 l 1,35,-1
 389 935 l 1,36,-1
 250 793 l 1,37,-1
 290 761 l 1,31,-1
EndSplineSet
EndChar

StartChar: ccircumflex
Encoding: 265 265 200
Width: 488
Flags: W
LayerCount: 2
Fore
SplineSet
236 -12 m 0,0,1
 370 -12 370 -12 437 128 c 1,2,-1
 376 158 l 1,3,4
 346 101 346 101 314 79 c 128,-1,5
 282 57 282 57 244 57 c 0,6,7
 184 57 184 57 155 92 c 128,-1,8
 126 127 126 127 126 183 c 0,9,10
 126 201 126 201 130 228 c 2,11,-1
 147 312 l 2,12,13
 161 382 161 382 199.5 420.5 c 128,-1,14
 238 459 238 459 300 459 c 0,15,16
 383 459 383 459 409 378 c 1,17,-1
 473 407 l 1,18,19
 458 461 458 461 414.5 494.5 c 128,-1,20
 371 528 371 528 302 528 c 0,21,22
 188 528 188 528 117 431 c 0,23,24
 49 333 49 333 49 199 c 0,25,26
 49 103 49 103 98.5 45.5 c 128,-1,27
 148 -12 148 -12 236 -12 c 0,0,1
201 590 m 1,28,-1
 340 706 l 1,29,-1
 433 591 l 1,30,-1
 476 622 l 1,31,-1
 394 765 l 1,32,-1
 300 765 l 1,33,-1
 162 622 l 1,34,-1
 201 590 l 1,28,-1
EndSplineSet
EndChar

StartChar: Cdotaccent
Encoding: 266 266 201
Width: 602
Flags: W
LayerCount: 2
Fore
SplineSet
290 -12 m 0,0,1
 383 -12 383 -12 446.5 29 c 128,-1,2
 510 70 510 70 555 157 c 1,3,-1
 487 191 l 1,4,5
 454 130 454 130 410.5 95.5 c 128,-1,6
 367 61 367 61 295 61 c 0,7,8
 219 61 219 61 178 113 c 0,9,10
 136 164 136 164 136 246 c 0,11,12
 136 276 136 276 142 312 c 2,13,-1
 165 427 l 2,14,15
 185 524 185 524 244.5 580.5 c 128,-1,16
 304 637 304 637 383 637 c 0,17,18
 449 637 449 637 486.5 607 c 128,-1,19
 524 577 524 577 542 518 c 1,20,-1
 615 551 l 1,21,22
 563 710 563 710 391 710 c 0,23,24
 315 710 315 710 253.5 675 c 128,-1,25
 192 640 192 640 147 579 c 0,26,27
 55 448 55 448 55 266 c 0,28,29
 55 134 55 134 121.5 61 c 128,-1,30
 188 -12 188 -12 290 -12 c 0,0,1
412 787 m 0,31,32
 459 787 459 787 468 834 c 0,33,34
 471 851 471 851 471 855 c 0,35,36
 471 890 471 890 429 890 c 0,37,38
 383 890 383 890 373 843 c 0,39,40
 370 832 370 832 370 822 c 0,41,42
 370 788 370 788 412 787 c 0,31,32
EndSplineSet
EndChar

StartChar: cdotaccent
Encoding: 267 267 202
Width: 488
Flags: W
LayerCount: 2
Fore
SplineSet
236 -12 m 0,0,1
 370 -12 370 -12 437 128 c 1,2,-1
 376 158 l 1,3,4
 346 101 346 101 314 79 c 128,-1,5
 282 57 282 57 244 57 c 0,6,7
 184 57 184 57 155 92 c 128,-1,8
 126 127 126 127 126 183 c 0,9,10
 126 201 126 201 130 228 c 2,11,-1
 147 312 l 2,12,13
 161 382 161 382 199.5 420.5 c 128,-1,14
 238 459 238 459 300 459 c 0,15,16
 383 459 383 459 409 378 c 1,17,-1
 473 407 l 1,18,19
 458 461 458 461 414.5 494.5 c 128,-1,20
 371 528 371 528 302 528 c 0,21,22
 188 528 188 528 117 431 c 0,23,24
 49 333 49 333 49 199 c 0,25,26
 49 103 49 103 98.5 45.5 c 128,-1,27
 148 -12 148 -12 236 -12 c 0,0,1
326 616 m 0,28,29
 373 616 373 616 382 663 c 0,30,31
 385 680 385 680 385 684 c 0,32,33
 385 719 385 719 343 719 c 0,34,35
 297 719 297 719 287 672 c 0,36,37
 284 661 284 661 284 651 c 0,38,39
 284 617 284 617 326 616 c 0,28,29
EndSplineSet
EndChar

StartChar: Ccaron
Encoding: 268 268 203
Width: 602
Flags: W
LayerCount: 2
Fore
SplineSet
290 -12 m 0,0,1
 383 -12 383 -12 446.5 29 c 128,-1,2
 510 70 510 70 555 157 c 1,3,-1
 487 191 l 1,4,5
 454 130 454 130 410.5 95.5 c 128,-1,6
 367 61 367 61 295 61 c 0,7,8
 219 61 219 61 178 113 c 0,9,10
 136 164 136 164 136 246 c 0,11,12
 136 276 136 276 142 312 c 2,13,-1
 165 427 l 2,14,15
 185 524 185 524 244.5 580.5 c 128,-1,16
 304 637 304 637 383 637 c 0,17,18
 449 637 449 637 486.5 607 c 128,-1,19
 524 577 524 577 542 518 c 1,20,-1
 615 551 l 1,21,22
 563 710 563 710 391 710 c 0,23,24
 315 710 315 710 253.5 675 c 128,-1,25
 192 640 192 640 147 579 c 0,26,27
 55 448 55 448 55 266 c 0,28,29
 55 134 55 134 121.5 61 c 128,-1,30
 188 -12 188 -12 290 -12 c 0,0,1
456 769 m 1,31,-1
 595 912 l 1,32,-1
 554 944 l 1,33,-1
 414 827 l 1,34,-1
 324 943 l 1,35,-1
 280 912 l 1,36,-1
 362 769 l 1,37,-1
 456 769 l 1,31,-1
EndSplineSet
EndChar

StartChar: ccaron
Encoding: 269 269 204
Width: 488
Flags: W
LayerCount: 2
Fore
SplineSet
236 -12 m 0,0,1
 370 -12 370 -12 437 128 c 1,2,-1
 376 158 l 1,3,4
 346 101 346 101 314 79 c 128,-1,5
 282 57 282 57 244 57 c 0,6,7
 184 57 184 57 155 92 c 128,-1,8
 126 127 126 127 126 183 c 0,9,10
 126 201 126 201 130 228 c 2,11,-1
 147 312 l 2,12,13
 161 382 161 382 199.5 420.5 c 128,-1,14
 238 459 238 459 300 459 c 0,15,16
 383 459 383 459 409 378 c 1,17,-1
 473 407 l 1,18,19
 458 461 458 461 414.5 494.5 c 128,-1,20
 371 528 371 528 302 528 c 0,21,22
 188 528 188 528 117 431 c 0,23,24
 49 333 49 333 49 199 c 0,25,26
 49 103 49 103 98.5 45.5 c 128,-1,27
 148 -12 148 -12 236 -12 c 0,0,1
370 599 m 1,28,-1
 508 742 l 1,29,-1
 467 774 l 1,30,-1
 327 657 l 1,31,-1
 237 773 l 1,32,-1
 193 742 l 1,33,-1
 275 599 l 1,34,-1
 370 599 l 1,28,-1
EndSplineSet
EndChar

StartChar: Dcaron
Encoding: 270 270 205
Width: 652
Flags: W
LayerCount: 2
Fore
SplineSet
275 0 m 2,0,1
 358 0 358 0 423 36 c 128,-1,2
 488 72 488 72 532.5 132.5 c 128,-1,3
 577 193 577 193 600 269.5 c 128,-1,4
 623 346 623 346 623 427 c 0,5,6
 623 562 623 562 559.5 630 c 128,-1,7
 496 698 496 698 384 698 c 2,8,-1
 179 698 l 1,9,-1
 39 0 l 1,10,-1
 275 0 l 2,0,1
277 72 m 2,11,-1
 135 72 l 1,12,-1
 245 626 l 1,13,-1
 380 626 l 2,14,15
 453 626 453 626 496 582.5 c 128,-1,16
 539 539 539 539 539 455 c 0,17,18
 539 424 539 424 533 394 c 2,19,-1
 512 289 l 2,20,21
 490 183 490 183 428.5 127.5 c 128,-1,22
 367 72 367 72 277 72 c 2,11,-1
441 769 m 1,23,-1
 580 912 l 1,24,-1
 539 944 l 1,25,-1
 399 827 l 1,26,-1
 309 943 l 1,27,-1
 265 912 l 1,28,-1
 347 769 l 1,29,-1
 441 769 l 1,23,-1
EndSplineSet
EndChar

StartChar: dcaron
Encoding: 271 271 206
Width: 587
Flags: W
LayerCount: 2
Fore
SplineSet
208 -12 m 0,0,1
 265 -12 265 -12 304 17.5 c 128,-1,2
 343 47 343 47 375 112 c 1,3,-1
 378 112 l 1,4,5
 370 75 370 75 370 62 c 0,6,7
 370 34 370 34 386.5 17 c 128,-1,8
 403 0 403 0 437 0 c 2,9,-1
 506 0 l 1,10,-1
 519 68 l 1,11,-1
 446 68 l 1,12,-1
 581 740 l 1,13,-1
 504 740 l 1,14,-1
 442 432 l 1,15,-1
 438 432 l 1,16,17
 425 480 425 480 387.5 504 c 128,-1,18
 350 528 350 528 303 528 c 0,19,20
 239 528 239 528 191.5 496.5 c 128,-1,21
 144 465 144 465 113 413.5 c 128,-1,22
 82 362 82 362 66.5 302 c 128,-1,23
 51 242 51 242 51 185 c 0,24,25
 51 93 51 93 94 40.5 c 128,-1,26
 137 -12 137 -12 208 -12 c 0,0,1
229 58 m 0,27,28
 177 58 177 58 153.5 91 c 128,-1,29
 130 124 130 124 130 175 c 0,30,31
 130 198 130 198 135 226 c 2,32,-1
 150 301 l 2,33,34
 184 458 184 458 310 458 c 0,35,36
 378 458 378 458 406 422 c 0,37,38
 426 398 426 398 426 365 c 0,39,40
 426 352 426 352 423 338 c 2,41,-1
 402 233 l 2,42,43
 386 157 386 157 337 109 c 0,44,45
 314 85 314 85 288.5 71.5 c 128,-1,46
 263 58 263 58 229 58 c 0,27,28
664 555 m 1,47,-1
 739 740 l 1,48,-1
 646 740 l 1,49,-1
 611 555 l 1,50,-1
 664 555 l 1,47,-1
EndSplineSet
EndChar

StartChar: Dcroat
Encoding: 272 272 207
Width: 655
Flags: W
LayerCount: 2
Fore
SplineSet
278 0 m 2,0,1
 361 0 361 0 426 36 c 128,-1,2
 491 72 491 72 535.5 132.5 c 128,-1,3
 580 193 580 193 603 269.5 c 128,-1,4
 626 346 626 346 626 427 c 0,5,6
 626 562 626 562 562.5 630 c 128,-1,7
 499 698 499 698 387 698 c 2,8,-1
 182 698 l 1,9,-1
 123 400 l 1,10,-1
 49 400 l 1,11,-1
 36 338 l 1,12,-1
 110 338 l 1,13,-1
 42 0 l 1,14,-1
 278 0 l 2,0,1
280 72 m 2,15,-1
 138 72 l 1,16,-1
 191 338 l 1,17,-1
 323 338 l 1,18,-1
 336 400 l 1,19,-1
 203 400 l 1,20,-1
 248 626 l 1,21,-1
 383 626 l 2,22,23
 456 626 456 626 499 582 c 128,-1,24
 542 538 542 538 542 455 c 0,25,26
 542 424 542 424 536 394 c 2,27,-1
 515 289 l 2,28,29
 493 184 493 184 431.5 128 c 128,-1,30
 370 72 370 72 280 72 c 2,15,-1
EndSplineSet
EndChar

StartChar: dcroat
Encoding: 273 273 208
Width: 583
Flags: W
LayerCount: 2
Fore
SplineSet
208 -12 m 0,0,1
 265 -12 265 -12 304 17.5 c 128,-1,2
 343 47 343 47 375 112 c 1,3,-1
 378 112 l 1,4,5
 370 75 370 75 370 62 c 0,6,7
 370 34 370 34 386.5 17 c 128,-1,8
 403 0 403 0 437 0 c 2,9,-1
 506 0 l 1,10,-1
 519 68 l 1,11,-1
 446 68 l 1,12,-1
 554 609 l 1,13,-1
 614 609 l 1,14,-1
 626 669 l 1,15,-1
 566 669 l 1,16,-1
 581 740 l 1,17,-1
 504 740 l 1,18,-1
 489 669 l 1,19,-1
 343 669 l 1,20,-1
 331 609 l 1,21,-1
 477 609 l 1,22,-1
 442 432 l 1,23,-1
 438 432 l 1,24,25
 425 480 425 480 387.5 504 c 128,-1,26
 350 528 350 528 303 528 c 0,27,28
 239 528 239 528 191.5 496.5 c 128,-1,29
 144 465 144 465 113 413.5 c 128,-1,30
 82 362 82 362 66.5 302 c 128,-1,31
 51 242 51 242 51 185 c 0,32,33
 51 93 51 93 94 40.5 c 128,-1,34
 137 -12 137 -12 208 -12 c 0,0,1
229 58 m 0,35,36
 177 58 177 58 153.5 91 c 128,-1,37
 130 124 130 124 130 175 c 0,38,39
 130 198 130 198 135 226 c 2,40,-1
 150 301 l 2,41,42
 184 458 184 458 310 458 c 0,43,44
 378 458 378 458 406 422 c 0,45,46
 426 398 426 398 426 365 c 0,47,48
 426 352 426 352 423 338 c 2,49,-1
 402 233 l 2,50,51
 386 157 386 157 337 109 c 0,52,53
 314 85 314 85 288.5 71.5 c 128,-1,54
 263 58 263 58 229 58 c 0,35,36
EndSplineSet
EndChar

StartChar: Emacron
Encoding: 274 274 209
Width: 565
Flags: W
LayerCount: 2
Fore
SplineSet
467 0 m 1,0,-1
 481 72 l 1,1,-1
 135 72 l 1,2,-1
 184 318 l 1,3,-1
 481 318 l 1,4,-1
 495 390 l 1,5,-1
 199 390 l 1,6,-1
 246 626 l 1,7,-1
 575 626 l 1,8,-1
 590 698 l 1,9,-1
 179 698 l 1,10,-1
 39 0 l 1,11,-1
 467 0 l 1,0,-1
533 809 m 1,12,-1
 547 875 l 1,13,-1
 275 875 l 1,14,-1
 261 809 l 1,15,-1
 533 809 l 1,12,-1
EndSplineSet
EndChar

StartChar: emacron
Encoding: 275 275 210
Width: 511
Flags: W
LayerCount: 2
Fore
SplineSet
244 -12 m 0,0,1
 369 -12 369 -12 457 94 c 1,2,-1
 407 139 l 1,3,4
 341 57 341 57 249 57 c 0,5,6
 189 57 189 57 157.5 90.5 c 128,-1,7
 126 124 126 124 126 179 c 0,8,9
 126 196 126 196 129 221 c 1,10,11
 310 223 310 223 397.5 264 c 128,-1,12
 485 305 485 305 485 390 c 0,13,14
 485 457 485 457 435 494 c 0,15,16
 385 528 385 528 319 528 c 0,17,18
 258 528 258 528 208.5 502 c 128,-1,19
 159 476 159 476 124 430 c 0,20,21
 49 332 49 332 49 204 c 0,22,23
 49 98 49 98 100 43 c 128,-1,24
 151 -12 151 -12 244 -12 c 0,0,1
139 281 m 1,25,-1
 145 310 l 2,26,27
 160 380 160 380 205.5 421 c 128,-1,28
 251 462 251 462 311 462 c 0,29,30
 347 462 347 462 377 447 c 0,31,32
 406 429 406 429 406 391 c 0,33,34
 406 364 406 364 395.5 345 c 128,-1,35
 385 326 385 326 356 313 c 0,36,37
 301 287 301 287 139 281 c 1,25,-1
477 639 m 1,38,-1
 491 705 l 1,39,-1
 219 705 l 1,40,-1
 205 639 l 1,41,-1
 477 639 l 1,38,-1
EndSplineSet
EndChar

StartChar: Ebreve
Encoding: 276 276 211
Width: 565
Flags: W
LayerCount: 2
Fore
SplineSet
467 0 m 1,0,-1
 481 72 l 1,1,-1
 135 72 l 1,2,-1
 184 318 l 1,3,-1
 481 318 l 1,4,-1
 495 390 l 1,5,-1
 199 390 l 1,6,-1
 246 626 l 1,7,-1
 575 626 l 1,8,-1
 590 698 l 1,9,-1
 179 698 l 1,10,-1
 39 0 l 1,11,-1
 467 0 l 1,0,-1
396 766 m 0,12,13
 461 766 461 766 506 812 c 0,14,15
 545 855 545 855 563 900 c 1,16,-1
 515 920 l 1,17,-1
 498 898 l 2,18,19
 470 860 470 860 447.5 843.5 c 128,-1,20
 425 827 425 827 398 827 c 0,21,22
 369 827 369 827 352.5 845 c 128,-1,23
 336 863 336 863 321 898 c 2,24,-1
 311 920 l 1,25,-1
 265 900 l 1,26,27
 269 857 269 857 297 813 c 0,28,29
 329 766 329 766 396 766 c 0,12,13
EndSplineSet
EndChar

StartChar: ebreve
Encoding: 277 277 212
Width: 511
Flags: W
LayerCount: 2
Fore
SplineSet
244 -12 m 0,0,1
 369 -12 369 -12 457 94 c 1,2,-1
 407 139 l 1,3,4
 341 57 341 57 249 57 c 0,5,6
 189 57 189 57 157.5 90.5 c 128,-1,7
 126 124 126 124 126 179 c 0,8,9
 126 196 126 196 129 221 c 1,10,11
 310 223 310 223 397.5 264 c 128,-1,12
 485 305 485 305 485 390 c 0,13,14
 485 457 485 457 435 494 c 0,15,16
 385 528 385 528 319 528 c 0,17,18
 258 528 258 528 208.5 502 c 128,-1,19
 159 476 159 476 124 430 c 0,20,21
 49 332 49 332 49 204 c 0,22,23
 49 98 49 98 100 43 c 128,-1,24
 151 -12 151 -12 244 -12 c 0,0,1
139 281 m 1,25,-1
 145 310 l 2,26,27
 160 380 160 380 205.5 421 c 128,-1,28
 251 462 251 462 311 462 c 0,29,30
 347 462 347 462 377 447 c 0,31,32
 406 429 406 429 406 391 c 0,33,34
 406 364 406 364 395.5 345 c 128,-1,35
 385 326 385 326 356 313 c 0,36,37
 301 287 301 287 139 281 c 1,25,-1
337 596 m 0,38,39
 402 596 402 596 447 642 c 0,40,41
 486 685 486 685 504 730 c 1,42,-1
 456 750 l 1,43,-1
 439 728 l 2,44,45
 411 690 411 690 388.5 673.5 c 128,-1,46
 366 657 366 657 339 657 c 0,47,48
 310 657 310 657 293.5 675 c 128,-1,49
 277 693 277 693 262 728 c 2,50,-1
 252 750 l 1,51,-1
 206 730 l 1,52,53
 210 687 210 687 238 643 c 0,54,55
 270 596 270 596 337 596 c 0,38,39
EndSplineSet
EndChar

StartChar: Edotaccent
Encoding: 278 278 213
Width: 565
Flags: W
LayerCount: 2
Fore
SplineSet
467 0 m 1,0,-1
 481 72 l 1,1,-1
 135 72 l 1,2,-1
 184 318 l 1,3,-1
 481 318 l 1,4,-1
 495 390 l 1,5,-1
 199 390 l 1,6,-1
 246 626 l 1,7,-1
 575 626 l 1,8,-1
 590 698 l 1,9,-1
 179 698 l 1,10,-1
 39 0 l 1,11,-1
 467 0 l 1,0,-1
396 787 m 0,12,13
 443 787 443 787 452 834 c 0,14,15
 455 851 455 851 455 855 c 0,16,17
 455 890 455 890 413 890 c 0,18,19
 367 890 367 890 357 843 c 0,20,21
 354 832 354 832 354 822 c 0,22,23
 354 788 354 788 396 787 c 0,12,13
EndSplineSet
EndChar

StartChar: edotaccent
Encoding: 279 279 214
Width: 511
Flags: W
LayerCount: 2
Fore
SplineSet
244 -12 m 0,0,1
 369 -12 369 -12 457 94 c 1,2,-1
 407 139 l 1,3,4
 341 57 341 57 249 57 c 0,5,6
 189 57 189 57 157.5 90.5 c 128,-1,7
 126 124 126 124 126 179 c 0,8,9
 126 196 126 196 129 221 c 1,10,11
 310 223 310 223 397.5 264 c 128,-1,12
 485 305 485 305 485 390 c 0,13,14
 485 457 485 457 435 494 c 0,15,16
 385 528 385 528 319 528 c 0,17,18
 258 528 258 528 208.5 502 c 128,-1,19
 159 476 159 476 124 430 c 0,20,21
 49 332 49 332 49 204 c 0,22,23
 49 98 49 98 100 43 c 128,-1,24
 151 -12 151 -12 244 -12 c 0,0,1
139 281 m 1,25,-1
 145 310 l 2,26,27
 160 380 160 380 205.5 421 c 128,-1,28
 251 462 251 462 311 462 c 0,29,30
 347 462 347 462 377 447 c 0,31,32
 406 429 406 429 406 391 c 0,33,34
 406 364 406 364 395.5 345 c 128,-1,35
 385 326 385 326 356 313 c 0,36,37
 301 287 301 287 139 281 c 1,25,-1
341 616 m 0,38,39
 388 616 388 616 397 663 c 0,40,41
 400 680 400 680 400 684 c 0,42,43
 400 719 400 719 358 719 c 0,44,45
 312 719 312 719 302 672 c 0,46,47
 299 661 299 661 299 651 c 0,48,49
 299 617 299 617 341 616 c 0,38,39
EndSplineSet
EndChar

StartChar: Eogonek
Encoding: 280 280 215
Width: 565
Flags: W
LayerCount: 2
Fore
SplineSet
377 -207 m 0,0,1
 441 -207 441 -207 473 -170 c 1,2,-1
 436 -126 l 1,3,4
 406 -153 406 -153 382 -153 c 0,5,6
 368 -153 368 -153 358.5 -145.5 c 128,-1,7
 349 -138 349 -138 349 -122 c 0,8,9
 349 -114 349 -114 353 -104 c 0,10,11
 366 -68 366 -68 467 0 c 1,12,-1
 481 72 l 1,13,-1
 135 72 l 1,14,-1
 184 318 l 1,15,-1
 481 318 l 1,16,-1
 495 390 l 1,17,-1
 199 390 l 1,18,-1
 246 626 l 1,19,-1
 575 626 l 1,20,-1
 590 698 l 1,21,-1
 179 698 l 1,22,-1
 39 0 l 1,23,-1
 405 0 l 1,24,-1
 406 -5 l 1,25,26
 348 -31 348 -31 314.5 -60.5 c 128,-1,27
 281 -90 281 -90 281 -132 c 0,28,29
 281 -172 281 -172 310.5 -189.5 c 128,-1,30
 340 -207 340 -207 377 -207 c 0,0,1
EndSplineSet
EndChar

StartChar: eogonek
Encoding: 281 281 216
Width: 511
Flags: W
LayerCount: 2
Fore
SplineSet
232 -207 m 0,0,1
 296 -207 296 -207 328 -170 c 1,2,-1
 291 -126 l 1,3,4
 261 -153 261 -153 237 -153 c 0,5,6
 223 -153 223 -153 213.5 -145.5 c 128,-1,7
 204 -138 204 -138 204 -122 c 0,8,9
 204 -63 204 -63 353 14 c 0,10,11
 419 47 419 47 457 94 c 1,12,-1
 407 139 l 1,13,14
 341 57 341 57 249 57 c 0,15,16
 189 57 189 57 157.5 90.5 c 128,-1,17
 126 124 126 124 126 179 c 0,18,19
 126 196 126 196 129 221 c 1,20,21
 310 223 310 223 397.5 264 c 128,-1,22
 485 305 485 305 485 390 c 0,23,24
 485 457 485 457 435 494 c 0,25,26
 385 528 385 528 319 528 c 0,27,28
 258 528 258 528 208.5 502 c 128,-1,29
 159 476 159 476 124 430 c 0,30,31
 49 332 49 332 49 204 c 0,32,33
 49 98 49 98 100 43 c 128,-1,34
 151 -12 151 -12 244 -12 c 1,35,-1
 245 -15 l 1,36,37
 194 -38 194 -38 165 -66 c 128,-1,38
 136 -94 136 -94 136 -132 c 0,39,40
 136 -172 136 -172 165.5 -189.5 c 128,-1,41
 195 -207 195 -207 232 -207 c 0,0,1
139 281 m 1,42,-1
 145 310 l 2,43,44
 160 380 160 380 205.5 421 c 128,-1,45
 251 462 251 462 311 462 c 0,46,47
 347 462 347 462 377 447 c 0,48,49
 406 429 406 429 406 391 c 0,50,51
 406 364 406 364 395.5 345 c 128,-1,52
 385 326 385 326 356 313 c 0,53,54
 301 287 301 287 139 281 c 1,42,-1
EndSplineSet
EndChar

StartChar: Ecaron
Encoding: 282 282 217
Width: 565
Flags: W
LayerCount: 2
Fore
SplineSet
467 0 m 1,0,-1
 481 72 l 1,1,-1
 135 72 l 1,2,-1
 184 318 l 1,3,-1
 481 318 l 1,4,-1
 495 390 l 1,5,-1
 199 390 l 1,6,-1
 246 626 l 1,7,-1
 575 626 l 1,8,-1
 590 698 l 1,9,-1
 179 698 l 1,10,-1
 39 0 l 1,11,-1
 467 0 l 1,0,-1
440 769 m 1,12,-1
 579 912 l 1,13,-1
 538 944 l 1,14,-1
 398 827 l 1,15,-1
 308 943 l 1,16,-1
 264 912 l 1,17,-1
 346 769 l 1,18,-1
 440 769 l 1,12,-1
EndSplineSet
EndChar

StartChar: ecaron
Encoding: 283 283 218
Width: 511
Flags: W
LayerCount: 2
Fore
SplineSet
244 -12 m 0,0,1
 369 -12 369 -12 457 94 c 1,2,-1
 407 139 l 1,3,4
 341 57 341 57 249 57 c 0,5,6
 189 57 189 57 157.5 90.5 c 128,-1,7
 126 124 126 124 126 179 c 0,8,9
 126 196 126 196 129 221 c 1,10,11
 310 223 310 223 397.5 264 c 128,-1,12
 485 305 485 305 485 390 c 0,13,14
 485 457 485 457 435 494 c 0,15,16
 385 528 385 528 319 528 c 0,17,18
 258 528 258 528 208.5 502 c 128,-1,19
 159 476 159 476 124 430 c 0,20,21
 49 332 49 332 49 204 c 0,22,23
 49 98 49 98 100 43 c 128,-1,24
 151 -12 151 -12 244 -12 c 0,0,1
139 281 m 1,25,-1
 145 310 l 2,26,27
 160 380 160 380 205.5 421 c 128,-1,28
 251 462 251 462 311 462 c 0,29,30
 347 462 347 462 377 447 c 0,31,32
 406 429 406 429 406 391 c 0,33,34
 406 364 406 364 395.5 345 c 128,-1,35
 385 326 385 326 356 313 c 0,36,37
 301 287 301 287 139 281 c 1,25,-1
385 599 m 1,38,-1
 523 742 l 1,39,-1
 482 774 l 1,40,-1
 342 657 l 1,41,-1
 252 773 l 1,42,-1
 208 742 l 1,43,-1
 290 599 l 1,44,-1
 385 599 l 1,38,-1
EndSplineSet
EndChar

StartChar: Gcircumflex
Encoding: 284 284 219
Width: 661
Flags: W
LayerCount: 2
Fore
SplineSet
280 -12 m 0,0,1
 357 -12 357 -12 407 21 c 128,-1,2
 457 54 457 54 479 102 c 1,3,-1
 483 102 l 1,4,-1
 462 0 l 1,5,-1
 539 0 l 1,6,-1
 611 360 l 1,7,-1
 384 360 l 1,8,-1
 368 286 l 1,9,-1
 517 286 l 1,10,-1
 506 231 l 2,11,12
 488 147 488 147 432 104 c 128,-1,13
 376 61 376 61 304 61 c 0,14,15
 142 61 142 61 136 253 c 0,16,17
 136 283 136 283 142 313 c 2,18,-1
 163 417 l 2,19,20
 185 521 185 521 245 579 c 128,-1,21
 305 637 305 637 394 637 c 0,22,23
 526 637 526 637 567 518 c 1,24,-1
 640 551 l 1,25,26
 586 710 586 710 404 710 c 0,27,28
 320 710 320 710 255 674 c 128,-1,29
 190 638 190 638 145.5 576 c 128,-1,30
 101 514 101 514 78 434 c 128,-1,31
 55 354 55 354 55 266 c 0,32,33
 55 130 55 130 117.5 59 c 128,-1,34
 180 -12 180 -12 280 -12 c 0,0,1
307 761 m 1,35,-1
 446 877 l 1,36,-1
 539 762 l 1,37,-1
 582 792 l 1,38,-1
 500 935 l 1,39,-1
 406 935 l 1,40,-1
 267 793 l 1,41,-1
 307 761 l 1,35,-1
EndSplineSet
EndChar

StartChar: gcircumflex
Encoding: 285 285 220
Width: 562
Flags: W
LayerCount: 2
Fore
SplineSet
227 590 m 1,0,-1
 188 622 l 1,1,-1
 326 765 l 1,2,-1
 420 765 l 1,3,-1
 502 622 l 1,4,-1
 459 591 l 1,5,-1
 366 706 l 1,6,-1
 227 590 l 1,0,-1
198 -212 m 0,7,8
 68 -212 68 -212 8 -123 c 1,9,-1
 63 -75 l 1,10,11
 105 -144 105 -144 198 -144 c 0,12,13
 326 -144 326 -144 356 2 c 2,14,-1
 378 112 l 1,15,-1
 375 112 l 1,16,17
 344 48 344 48 304.5 18 c 128,-1,18
 265 -12 265 -12 208 -12 c 0,19,20
 138 -12 138 -12 94.5 41 c 128,-1,21
 51 94 51 94 51 185 c 0,22,23
 51 242 51 242 66.5 302.5 c 128,-1,24
 82 363 82 363 113 413.5 c 128,-1,25
 144 464 144 464 191.5 496 c 128,-1,26
 239 528 239 528 303 528 c 0,27,28
 350 528 350 528 388 504.5 c 128,-1,29
 426 481 426 481 438 432 c 1,30,-1
 442 432 l 1,31,-1
 459 516 l 1,32,-1
 536 516 l 1,33,-1
 431 -8 l 2,34,35
 412 -106 412 -106 354 -159 c 128,-1,36
 296 -212 296 -212 198 -212 c 0,7,8
227 58 m 0,37,38
 263 58 263 58 289 72 c 128,-1,39
 315 86 315 86 337 109 c 0,40,41
 388 160 388 160 402 233 c 0,42,43
 428 362 428 362 428 369 c 0,44,45
 428 398 428 398 399.5 428 c 128,-1,46
 371 458 371 458 312 458 c 0,47,48
 182 458 182 458 150 301 c 2,49,-1
 135 226 l 2,50,51
 130 199 130 199 130 175 c 0,52,53
 130 126 130 126 153.5 92 c 128,-1,54
 177 58 177 58 227 58 c 0,37,38
EndSplineSet
EndChar

StartChar: Gbreve
Encoding: 286 286 221
Width: 661
Flags: W
LayerCount: 2
Fore
SplineSet
280 -12 m 0,0,1
 357 -12 357 -12 407 21 c 128,-1,2
 457 54 457 54 479 102 c 1,3,-1
 483 102 l 1,4,-1
 462 0 l 1,5,-1
 539 0 l 1,6,-1
 611 360 l 1,7,-1
 384 360 l 1,8,-1
 368 286 l 1,9,-1
 517 286 l 1,10,-1
 506 231 l 2,11,12
 488 147 488 147 432 104 c 128,-1,13
 376 61 376 61 304 61 c 0,14,15
 142 61 142 61 136 253 c 0,16,17
 136 283 136 283 142 313 c 2,18,-1
 163 417 l 2,19,20
 185 521 185 521 245 579 c 128,-1,21
 305 637 305 637 394 637 c 0,22,23
 526 637 526 637 567 518 c 1,24,-1
 640 551 l 1,25,26
 586 710 586 710 404 710 c 0,27,28
 320 710 320 710 255 674 c 128,-1,29
 190 638 190 638 145.5 576 c 128,-1,30
 101 514 101 514 78 434 c 128,-1,31
 55 354 55 354 55 266 c 0,32,33
 55 130 55 130 117.5 59 c 128,-1,34
 180 -12 180 -12 280 -12 c 0,0,1
429 766 m 0,35,36
 494 766 494 766 539 812 c 0,37,38
 578 855 578 855 596 900 c 1,39,-1
 548 920 l 1,40,-1
 531 898 l 2,41,42
 503 860 503 860 480.5 843.5 c 128,-1,43
 458 827 458 827 431 827 c 0,44,45
 402 827 402 827 385.5 845 c 128,-1,46
 369 863 369 863 354 898 c 2,47,-1
 344 920 l 1,48,-1
 298 900 l 1,49,50
 302 857 302 857 330 813 c 0,51,52
 362 766 362 766 429 766 c 0,35,36
EndSplineSet
EndChar

StartChar: gbreve
Encoding: 287 287 222
Width: 562
Flags: W
LayerCount: 2
Fore
SplineSet
348 596 m 256,0,1
 299 596 299 596 272 618.5 c 128,-1,2
 245 641 245 641 232.5 671.5 c 128,-1,3
 220 702 220 702 217 730 c 1,4,-1
 263 750 l 1,5,-1
 273 728 l 2,6,7
 288 693 288 693 304.5 675 c 128,-1,8
 321 657 321 657 350 657 c 0,9,10
 377 657 377 657 399.5 673.5 c 128,-1,11
 422 690 422 690 450 728 c 2,12,-1
 467 750 l 1,13,-1
 515 730 l 1,14,15
 502 702 502 702 481.5 671 c 128,-1,16
 461 640 461 640 429 618 c 128,-1,17
 397 596 397 596 348 596 c 256,0,1
198 -212 m 0,18,19
 68 -212 68 -212 8 -123 c 1,20,-1
 63 -75 l 1,21,22
 105 -144 105 -144 198 -144 c 0,23,24
 326 -144 326 -144 356 2 c 2,25,-1
 378 112 l 1,26,-1
 375 112 l 1,27,28
 344 48 344 48 304.5 18 c 128,-1,29
 265 -12 265 -12 208 -12 c 0,30,31
 138 -12 138 -12 94.5 41 c 128,-1,32
 51 94 51 94 51 185 c 0,33,34
 51 242 51 242 66.5 302.5 c 128,-1,35
 82 363 82 363 113 413.5 c 128,-1,36
 144 464 144 464 191.5 496 c 128,-1,37
 239 528 239 528 303 528 c 0,38,39
 350 528 350 528 388 504.5 c 128,-1,40
 426 481 426 481 438 432 c 1,41,-1
 442 432 l 1,42,-1
 459 516 l 1,43,-1
 536 516 l 1,44,-1
 431 -8 l 2,45,46
 412 -106 412 -106 354 -159 c 128,-1,47
 296 -212 296 -212 198 -212 c 0,18,19
227 58 m 0,48,49
 263 58 263 58 289 72 c 128,-1,50
 315 86 315 86 337 109 c 0,51,52
 388 160 388 160 402 233 c 0,53,54
 428 362 428 362 428 369 c 0,55,56
 428 398 428 398 399.5 428 c 128,-1,57
 371 458 371 458 312 458 c 0,58,59
 182 458 182 458 150 301 c 2,60,-1
 135 226 l 2,61,62
 130 199 130 199 130 175 c 0,63,64
 130 126 130 126 153.5 92 c 128,-1,65
 177 58 177 58 227 58 c 0,48,49
EndSplineSet
EndChar

StartChar: Gdotaccent
Encoding: 288 288 223
Width: 661
Flags: W
LayerCount: 2
Fore
SplineSet
280 -12 m 0,0,1
 357 -12 357 -12 407 21 c 128,-1,2
 457 54 457 54 479 102 c 1,3,-1
 483 102 l 1,4,-1
 462 0 l 1,5,-1
 539 0 l 1,6,-1
 611 360 l 1,7,-1
 384 360 l 1,8,-1
 368 286 l 1,9,-1
 517 286 l 1,10,-1
 506 231 l 2,11,12
 488 147 488 147 432 104 c 128,-1,13
 376 61 376 61 304 61 c 0,14,15
 142 61 142 61 136 253 c 0,16,17
 136 283 136 283 142 313 c 2,18,-1
 163 417 l 2,19,20
 185 521 185 521 245 579 c 128,-1,21
 305 637 305 637 394 637 c 0,22,23
 526 637 526 637 567 518 c 1,24,-1
 640 551 l 1,25,26
 586 710 586 710 404 710 c 0,27,28
 320 710 320 710 255 674 c 128,-1,29
 190 638 190 638 145.5 576 c 128,-1,30
 101 514 101 514 78 434 c 128,-1,31
 55 354 55 354 55 266 c 0,32,33
 55 130 55 130 117.5 59 c 128,-1,34
 180 -12 180 -12 280 -12 c 0,0,1
429 787 m 0,35,36
 476 787 476 787 485 834 c 0,37,38
 488 851 488 851 488 855 c 0,39,40
 488 890 488 890 446 890 c 0,41,42
 400 890 400 890 390 843 c 0,43,44
 387 832 387 832 387 822 c 0,45,46
 387 788 387 788 429 787 c 0,35,36
EndSplineSet
EndChar

StartChar: gdotaccent
Encoding: 289 289 224
Width: 562
Flags: W
LayerCount: 2
Fore
SplineSet
352 616 m 0,0,1
 313 616 313 616 310 651 c 0,2,3
 310 656 310 656 313 672 c 0,4,5
 320 719 320 719 369 719 c 0,6,7
 408 719 408 719 411 684 c 0,8,9
 411 679 411 679 408 663 c 0,10,11
 402 616 402 616 352 616 c 0,0,1
198 -212 m 0,12,13
 68 -212 68 -212 8 -123 c 1,14,-1
 63 -75 l 1,15,16
 105 -144 105 -144 198 -144 c 0,17,18
 326 -144 326 -144 356 2 c 2,19,-1
 378 112 l 1,20,-1
 375 112 l 1,21,22
 344 48 344 48 304.5 18 c 128,-1,23
 265 -12 265 -12 208 -12 c 0,24,25
 138 -12 138 -12 94.5 41 c 128,-1,26
 51 94 51 94 51 185 c 0,27,28
 51 242 51 242 66.5 302.5 c 128,-1,29
 82 363 82 363 113 413.5 c 128,-1,30
 144 464 144 464 191.5 496 c 128,-1,31
 239 528 239 528 303 528 c 0,32,33
 350 528 350 528 388 504.5 c 128,-1,34
 426 481 426 481 438 432 c 1,35,-1
 442 432 l 1,36,-1
 459 516 l 1,37,-1
 536 516 l 1,38,-1
 431 -8 l 2,39,40
 412 -106 412 -106 354 -159 c 128,-1,41
 296 -212 296 -212 198 -212 c 0,12,13
227 58 m 0,42,43
 263 58 263 58 289 72 c 128,-1,44
 315 86 315 86 337 109 c 0,45,46
 388 160 388 160 402 233 c 0,47,48
 428 362 428 362 428 369 c 0,49,50
 428 398 428 398 399.5 428 c 128,-1,51
 371 458 371 458 312 458 c 0,52,53
 182 458 182 458 150 301 c 2,54,-1
 135 226 l 2,55,56
 130 199 130 199 130 175 c 0,57,58
 130 126 130 126 153.5 92 c 128,-1,59
 177 58 177 58 227 58 c 0,42,43
EndSplineSet
EndChar

StartChar: u0122
Encoding: 290 290 225
Width: 661
Flags: W
LayerCount: 2
Fore
SplineSet
280 -12 m 0,0,1
 357 -12 357 -12 407 21 c 128,-1,2
 457 54 457 54 479 102 c 1,3,-1
 483 102 l 1,4,-1
 462 0 l 1,5,-1
 539 0 l 1,6,-1
 611 360 l 1,7,-1
 384 360 l 1,8,-1
 368 286 l 1,9,-1
 517 286 l 1,10,-1
 506 231 l 2,11,12
 488 147 488 147 432 104 c 128,-1,13
 376 61 376 61 304 61 c 0,14,15
 142 61 142 61 136 253 c 0,16,17
 136 283 136 283 142 313 c 2,18,-1
 163 417 l 2,19,20
 185 521 185 521 245 579 c 128,-1,21
 305 637 305 637 394 637 c 0,22,23
 526 637 526 637 567 518 c 1,24,-1
 640 551 l 1,25,26
 586 710 586 710 404 710 c 0,27,28
 320 710 320 710 255 674 c 128,-1,29
 190 638 190 638 145.5 576 c 128,-1,30
 101 514 101 514 78 434 c 128,-1,31
 55 354 55 354 55 266 c 0,32,33
 55 130 55 130 117.5 59 c 128,-1,34
 180 -12 180 -12 280 -12 c 0,0,1
232 -245 m 1,35,36
 285 -197 285 -197 302 -126 c 2,37,-1
 305 -110 l 1,38,-1
 305 -102 l 2,39,40
 305 -67 305 -67 263 -66 c 0,41,42
 217 -66 217 -66 207 -112 c 2,43,-1
 206 -116 l 2,44,45
 204 -130 204 -130 204 -136 c 0,46,47
 204 -164 204 -164 232 -169 c 1,48,49
 223 -189 223 -189 211 -206 c 128,-1,50
 199 -223 199 -223 176 -245 c 1,51,-1
 232 -245 l 1,35,36
EndSplineSet
EndChar

StartChar: u0123
Encoding: 291 291 226
Width: 562
Flags: W
LayerCount: 2
Fore
SplineSet
347 595 m 0,0,1
 305 595 305 595 305 629 c 0,2,3
 305 638 305 638 308 655 c 0,4,5
 325 727 325 727 378 774 c 1,6,-1
 434 774 l 1,7,8
 411 752 411 752 399 735 c 128,-1,9
 387 718 387 718 378 698 c 1,10,11
 406 694 406 694 406 665 c 0,12,13
 406 658 406 658 403 641 c 0,14,15
 397 595 397 595 347 595 c 0,0,1
198 -212 m 0,16,17
 68 -212 68 -212 8 -123 c 1,18,-1
 63 -75 l 1,19,20
 105 -144 105 -144 198 -144 c 0,21,22
 326 -144 326 -144 356 2 c 2,23,-1
 378 112 l 1,24,-1
 375 112 l 1,25,26
 344 48 344 48 304.5 18 c 128,-1,27
 265 -12 265 -12 208 -12 c 0,28,29
 138 -12 138 -12 94.5 41 c 128,-1,30
 51 94 51 94 51 185 c 0,31,32
 51 242 51 242 66.5 302.5 c 128,-1,33
 82 363 82 363 113 413.5 c 128,-1,34
 144 464 144 464 191.5 496 c 128,-1,35
 239 528 239 528 303 528 c 0,36,37
 350 528 350 528 388 504.5 c 128,-1,38
 426 481 426 481 438 432 c 1,39,-1
 442 432 l 1,40,-1
 459 516 l 1,41,-1
 536 516 l 1,42,-1
 431 -8 l 2,43,44
 412 -106 412 -106 354 -159 c 128,-1,45
 296 -212 296 -212 198 -212 c 0,16,17
227 58 m 0,46,47
 263 58 263 58 289 72 c 128,-1,48
 315 86 315 86 337 109 c 0,49,50
 388 160 388 160 402 233 c 0,51,52
 428 362 428 362 428 369 c 0,53,54
 428 398 428 398 399.5 428 c 128,-1,55
 371 458 371 458 312 458 c 0,56,57
 182 458 182 458 150 301 c 2,58,-1
 135 226 l 2,59,60
 130 199 130 199 130 175 c 0,61,62
 130 126 130 126 153.5 92 c 128,-1,63
 177 58 177 58 227 58 c 0,46,47
EndSplineSet
EndChar

StartChar: Hcircumflex
Encoding: 292 292 227
Width: 684
Flags: W
LayerCount: 2
Fore
SplineSet
541 0 m 1,0,-1
 681 698 l 1,1,-1
 600 698 l 1,2,-1
 538 390 l 1,3,-1
 199 390 l 1,4,-1
 260 698 l 1,5,-1
 179 698 l 1,6,-1
 39 0 l 1,7,-1
 120 0 l 1,8,-1
 184 318 l 1,9,-1
 523 318 l 1,10,-1
 460 0 l 1,11,-1
 541 0 l 1,0,-1
328 761 m 1,12,-1
 467 877 l 1,13,-1
 560 762 l 1,14,-1
 603 792 l 1,15,-1
 521 935 l 1,16,-1
 427 935 l 1,17,-1
 288 793 l 1,18,-1
 328 761 l 1,12,-1
EndSplineSet
EndChar

StartChar: hcircumflex
Encoding: 293 293 228
Width: 565
Flags: W
LayerCount: 2
Fore
SplineSet
495 0 m 1,0,-1
 508 68 l 1,1,-1
 435 68 l 1,2,-1
 485 318 l 2,3,4
 492 357 492 357 492 385 c 0,5,6
 492 452 492 452 459 490 c 128,-1,7
 426 528 426 528 359 528 c 0,8,9
 303 528 303 528 265 500 c 128,-1,10
 227 472 227 472 201 414 c 1,11,-1
 196 414 l 1,12,-1
 262 740 l 1,13,-1
 185 740 l 1,14,-1
 36 0 l 1,15,-1
 113 0 l 1,16,-1
 171 288 l 2,17,18
 177 319 177 319 195 355 c 0,19,20
 207 380 207 380 226 403.5 c 128,-1,21
 245 427 245 427 271.5 442.5 c 128,-1,22
 298 458 298 458 334 458 c 0,23,24
 376 458 376 458 394.5 436.5 c 128,-1,25
 413 415 413 415 413 371 c 0,26,27
 413 331 413 331 359 76 c 0,28,29
 358 71 358 71 358 58 c 0,30,31
 358 0 358 0 422 0 c 2,32,-1
 495 0 l 1,0,-1
111 748 m 1,33,-1
 250 864 l 1,34,-1
 343 749 l 1,35,-1
 386 780 l 1,36,-1
 304 923 l 1,37,-1
 210 923 l 1,38,-1
 72 780 l 1,39,-1
 111 748 l 1,33,-1
EndSplineSet
EndChar

StartChar: Hbar
Encoding: 294 294 229
Width: 690
Flags: W
LayerCount: 2
Fore
SplineSet
544 0 m 1,0,-1
 648 520 l 1,1,-1
 714 520 l 1,2,-1
 727 582 l 1,3,-1
 661 582 l 1,4,-1
 684 698 l 1,5,-1
 603 698 l 1,6,-1
 580 582 l 1,7,-1
 240 582 l 1,8,-1
 263 698 l 1,9,-1
 182 698 l 1,10,-1
 159 582 l 1,11,-1
 93 582 l 1,12,-1
 80 520 l 1,13,-1
 146 520 l 1,14,-1
 42 0 l 1,15,-1
 123 0 l 1,16,-1
 187 318 l 1,17,-1
 526 318 l 1,18,-1
 463 0 l 1,19,-1
 544 0 l 1,0,-1
541 390 m 1,20,-1
 201 390 l 1,21,-1
 227 520 l 1,22,-1
 567 520 l 1,23,-1
 541 390 l 1,20,-1
EndSplineSet
EndChar

StartChar: hbar
Encoding: 295 295 230
Width: 565
Flags: W
LayerCount: 2
Fore
SplineSet
495 0 m 1,0,-1
 508 68 l 1,1,-1
 435 68 l 1,2,-1
 485 318 l 2,3,4
 492 357 492 357 492 385 c 0,5,6
 492 452 492 452 459 490 c 128,-1,7
 426 528 426 528 359 528 c 0,8,9
 303 528 303 528 265 500 c 128,-1,10
 227 472 227 472 201 414 c 1,11,-1
 196 414 l 1,12,-1
 236 610 l 1,13,-1
 380 610 l 1,14,-1
 392 670 l 1,15,-1
 248 670 l 1,16,-1
 262 740 l 1,17,-1
 185 740 l 1,18,-1
 171 670 l 1,19,-1
 109 670 l 1,20,-1
 97 610 l 1,21,-1
 159 610 l 1,22,-1
 36 0 l 1,23,-1
 113 0 l 1,24,-1
 171 288 l 2,25,26
 177 319 177 319 195 355 c 0,27,28
 207 380 207 380 226 403.5 c 128,-1,29
 245 427 245 427 271.5 442.5 c 128,-1,30
 298 458 298 458 334 458 c 0,31,32
 376 458 376 458 394.5 436.5 c 128,-1,33
 413 415 413 415 413 371 c 0,34,35
 413 331 413 331 359 76 c 0,36,37
 358 71 358 71 358 58 c 0,38,39
 358 0 358 0 422 0 c 2,40,-1
 495 0 l 1,0,-1
EndSplineSet
EndChar

StartChar: Itilde
Encoding: 296 296 231
Width: 261
Flags: W
LayerCount: 2
Fore
SplineSet
305 782 m 0,0,1
 365 782 365 782 404 836 c 1,2,-1
 377 874 l 1,3,4
 360 861 360 861 346.5 854 c 128,-1,5
 333 847 333 847 317 847 c 0,6,7
 292 847 292 847 246 875 c 0,8,9
 233 883 233 883 216.5 890 c 128,-1,10
 200 897 200 897 177 897 c 0,11,12
 117 897 117 897 78 843 c 1,13,-1
 105 805 l 1,14,15
 122 818 122 818 135.5 825 c 128,-1,16
 149 832 149 832 165 832 c 0,17,18
 190 832 190 832 236 804 c 0,19,20
 249 796 249 796 265.5 789 c 128,-1,21
 282 782 282 782 305 782 c 0,0,1
120 0 m 1,22,-1
 39 0 l 1,23,-1
 177 698 l 1,24,-1
 258 698 l 1,25,-1
 120 0 l 1,22,-1
EndSplineSet
EndChar

StartChar: itilde
Encoding: 297 297 232
Width: 264
Flags: W
LayerCount: 2
Fore
SplineSet
187 0 m 1,0,-1
 200 68 l 1,1,-1
 127 68 l 1,2,-1
 217 516 l 1,3,-1
 140 516 l 1,4,5
 51 71 51 71 51 63 c 0,6,7
 51 35 51 35 68 17.5 c 128,-1,8
 85 0 85 0 120 0 c 2,9,-1
 187 0 l 1,0,-1
275 612 m 0,10,11
 331 612 331 612 374 665 c 1,12,-1
 346 704 l 1,13,14
 329 691 329 691 316 684 c 128,-1,15
 303 677 303 677 286 677 c 0,16,17
 261 677 261 677 221 701 c 0,18,19
 207 710 207 710 190 718 c 128,-1,20
 173 726 173 726 147 726 c 0,21,22
 91 726 91 726 48 673 c 1,23,-1
 76 634 l 1,24,25
 93 647 93 647 106 654 c 128,-1,26
 119 661 119 661 136 661 c 0,27,28
 162 661 162 661 201 637 c 0,29,30
 215 628 215 628 232 620 c 128,-1,31
 249 612 249 612 275 612 c 0,10,11
EndSplineSet
EndChar

StartChar: Imacron
Encoding: 298 298 233
Width: 261
Flags: W
LayerCount: 2
Fore
SplineSet
370 809 m 1,0,-1
 384 875 l 1,1,-1
 112 875 l 1,2,-1
 98 809 l 1,3,-1
 370 809 l 1,0,-1
120 0 m 1,4,-1
 39 0 l 1,5,-1
 177 698 l 1,6,-1
 258 698 l 1,7,-1
 120 0 l 1,4,-1
EndSplineSet
EndChar

StartChar: imacron
Encoding: 299 299 234
Width: 264
Flags: W
LayerCount: 2
Fore
SplineSet
187 0 m 1,0,-1
 200 68 l 1,1,-1
 127 68 l 1,2,-1
 217 516 l 1,3,-1
 140 516 l 1,4,5
 51 71 51 71 51 63 c 0,6,7
 51 35 51 35 68 17.5 c 128,-1,8
 85 0 85 0 120 0 c 2,9,-1
 187 0 l 1,0,-1
341 639 m 1,10,-1
 355 705 l 1,11,-1
 83 705 l 1,12,-1
 69 639 l 1,13,-1
 341 639 l 1,10,-1
EndSplineSet
EndChar

StartChar: Ibreve
Encoding: 300 300 235
Width: 261
Flags: W
LayerCount: 2
Fore
SplineSet
233 766 m 0,0,1
 298 766 298 766 343 812 c 0,2,3
 382 855 382 855 400 900 c 1,4,-1
 352 920 l 1,5,-1
 335 898 l 2,6,7
 307 860 307 860 284.5 843.5 c 128,-1,8
 262 827 262 827 235 827 c 0,9,10
 206 827 206 827 189.5 845 c 128,-1,11
 173 863 173 863 158 898 c 2,12,-1
 148 920 l 1,13,-1
 102 900 l 1,14,15
 106 857 106 857 134 813 c 0,16,17
 166 766 166 766 233 766 c 0,0,1
120 0 m 1,18,-1
 39 0 l 1,19,-1
 177 698 l 1,20,-1
 258 698 l 1,21,-1
 120 0 l 1,18,-1
EndSplineSet
EndChar

StartChar: ibreve
Encoding: 301 301 236
Width: 264
Flags: W
LayerCount: 2
Fore
SplineSet
187 0 m 1,0,-1
 200 68 l 1,1,-1
 127 68 l 1,2,-1
 217 516 l 1,3,-1
 140 516 l 1,4,5
 51 71 51 71 51 63 c 0,6,7
 51 35 51 35 68 17.5 c 128,-1,8
 85 0 85 0 120 0 c 2,9,-1
 187 0 l 1,0,-1
201 596 m 0,10,11
 266 596 266 596 311 642 c 0,12,13
 350 685 350 685 368 730 c 1,14,-1
 320 750 l 1,15,-1
 303 728 l 2,16,17
 275 690 275 690 252.5 673.5 c 128,-1,18
 230 657 230 657 203 657 c 0,19,20
 174 657 174 657 157.5 675 c 128,-1,21
 141 693 141 693 126 728 c 2,22,-1
 116 750 l 1,23,-1
 70 730 l 1,24,25
 74 687 74 687 102 643 c 0,26,27
 134 596 134 596 201 596 c 0,10,11
EndSplineSet
EndChar

StartChar: Iogonek
Encoding: 302 302 237
Width: 261
Flags: W
LayerCount: 2
Fore
SplineSet
30 -207 m 0,0,1
 94 -207 94 -207 126 -170 c 1,2,-1
 89 -126 l 1,3,4
 59 -153 59 -153 35 -153 c 0,5,6
 21 -153 21 -153 11.5 -145.5 c 128,-1,7
 2 -138 2 -138 2 -122 c 0,8,9
 2 -114 2 -114 6 -104 c 0,10,11
 19 -68 19 -68 120 0 c 1,12,-1
 258 698 l 1,13,-1
 177 698 l 1,14,-1
 39 0 l 1,15,-1
 58 0 l 1,16,-1
 59 -5 l 1,17,18
 1 -31 1 -31 -32.5 -60.5 c 128,-1,19
 -66 -90 -66 -90 -66 -132 c 0,20,21
 -66 -172 -66 -172 -36.5 -189.5 c 128,-1,22
 -7 -207 -7 -207 30 -207 c 0,0,1
EndSplineSet
EndChar

StartChar: iogonek
Encoding: 303 303 238
Width: 264
Flags: W
LayerCount: 2
Fore
SplineSet
97 -207 m 0,0,1
 161 -207 161 -207 193 -170 c 1,2,-1
 156 -126 l 1,3,4
 126 -153 126 -153 102 -153 c 0,5,6
 88 -153 88 -153 78.5 -145.5 c 128,-1,7
 69 -138 69 -138 69 -122 c 0,8,9
 69 -114 69 -114 73 -104 c 0,10,11
 86 -68 86 -68 187 0 c 1,12,-1
 200 68 l 1,13,-1
 127 68 l 1,14,-1
 217 516 l 1,15,-1
 140 516 l 1,16,17
 51 72 51 72 51 63 c 0,18,19
 51 0 51 0 127 0 c 1,20,-1
 128 -5 l 1,21,22
 70 -31 70 -31 35.5 -60.5 c 128,-1,23
 1 -90 1 -90 1 -132 c 0,24,25
 1 -172 1 -172 30.5 -189.5 c 128,-1,26
 60 -207 60 -207 97 -207 c 0,0,1
206 637 m 0,27,28
 260 637 260 637 264 696 c 1,29,-1
 264 705 l 2,30,31
 264 740 264 740 222 740 c 0,32,33
 197 740 197 740 185 730 c 0,34,35
 170 717 170 717 166 694 c 0,36,37
 164 678 164 678 164 672 c 0,38,39
 164 637 164 637 206 637 c 0,27,28
EndSplineSet
EndChar

StartChar: Idotaccent
Encoding: 304 304 239
Width: 261
Flags: W
LayerCount: 2
Fore
SplineSet
233 787 m 0,0,1
 280 787 280 787 289 834 c 0,2,3
 292 851 292 851 292 855 c 0,4,5
 292 890 292 890 250 890 c 0,6,7
 204 890 204 890 194 843 c 0,8,9
 191 832 191 832 191 822 c 0,10,11
 191 788 191 788 233 787 c 0,0,1
120 0 m 1,12,-1
 39 0 l 1,13,-1
 177 698 l 1,14,-1
 258 698 l 1,15,-1
 120 0 l 1,12,-1
EndSplineSet
EndChar

StartChar: dotlessi
Encoding: 305 305 240
Width: 264
Flags: W
LayerCount: 2
Fore
SplineSet
187 0 m 1,0,-1
 200 68 l 1,1,-1
 127 68 l 1,2,-1
 217 516 l 1,3,-1
 140 516 l 1,4,5
 51 71 51 71 51 63 c 0,6,7
 51 35 51 35 68 17.5 c 128,-1,8
 85 0 85 0 120 0 c 2,9,-1
 187 0 l 1,0,-1
EndSplineSet
EndChar

StartChar: ij
Encoding: 307 307 242
Width: 512
Flags: W
LayerCount: 2
Fore
SplineSet
206 637 m 0,0,1
 260 637 260 637 264 696 c 1,2,-1
 264 705 l 2,3,4
 264 740 264 740 222 740 c 0,5,6
 197 740 197 740 185 730 c 0,7,8
 170 717 170 717 166 694 c 0,9,10
 164 678 164 678 164 672 c 0,11,12
 164 637 164 637 206 637 c 0,0,1
187 0 m 1,13,-1
 200 68 l 1,14,-1
 127 68 l 1,15,-1
 217 516 l 1,16,-1
 140 516 l 1,17,18
 51 72 51 72 51 63 c 0,19,20
 51 35 51 35 68.5 17.5 c 128,-1,21
 86 0 86 0 121 0 c 2,22,-1
 187 0 l 1,13,-1
239 -200 m 2,23,24
 292 -200 292 -200 317.5 -175.5 c 128,-1,25
 343 -151 343 -151 353 -98 c 2,26,-1
 476 516 l 1,27,-1
 399 516 l 1,28,-1
 269 -132 l 1,29,-1
 186 -132 l 1,30,-1
 172 -200 l 1,31,-1
 239 -200 l 2,23,24
465 637 m 0,32,33
 519 637 519 637 523 696 c 1,34,-1
 523 705 l 2,35,36
 523 740 523 740 481 740 c 0,37,38
 456 740 456 740 444 730 c 0,39,40
 429 717 429 717 425 694 c 0,41,42
 423 678 423 678 423 672 c 0,43,44
 423 637 423 637 465 637 c 0,32,33
EndSplineSet
EndChar

StartChar: Jcircumflex
Encoding: 308 308 243
Width: 498
Flags: W
LayerCount: 2
Fore
SplineSet
223 761 m 1,0,-1
 362 877 l 1,1,-1
 455 762 l 1,2,-1
 498 792 l 1,3,-1
 416 935 l 1,4,-1
 322 935 l 1,5,-1
 183 793 l 1,6,-1
 223 761 l 1,0,-1
171 -12 m 0,7,8
 99 -12 99 -12 52.5 30 c 128,-1,9
 6 72 6 72 3 153 c 1,10,-1
 77 168 l 1,11,12
 79 121 79 121 103 91 c 128,-1,13
 127 61 127 61 175 61 c 0,14,15
 233 61 233 61 266 95.5 c 128,-1,16
 299 130 299 130 313 198 c 2,17,-1
 413 698 l 1,18,-1
 495 698 l 1,19,-1
 392 186 l 2,20,21
 373 92 373 92 316.5 40 c 128,-1,22
 260 -12 260 -12 171 -12 c 0,7,8
EndSplineSet
EndChar

StartChar: jcircumflex
Encoding: 309 309 244
Width: 253
Flags: W
LayerCount: 2
Fore
SplineSet
-20 -200 m 2,0,1
 33 -200 33 -200 58.5 -175.5 c 128,-1,2
 84 -151 84 -151 94 -98 c 2,3,-1
 217 516 l 1,4,-1
 140 516 l 1,5,-1
 10 -132 l 1,6,-1
 -73 -132 l 1,7,-1
 -87 -200 l 1,8,-1
 -20 -200 l 2,0,1
80 590 m 1,9,-1
 219 706 l 1,10,-1
 312 591 l 1,11,-1
 355 622 l 1,12,-1
 273 765 l 1,13,-1
 179 765 l 1,14,-1
 41 622 l 1,15,-1
 80 590 l 1,9,-1
EndSplineSet
EndChar

StartChar: u0136
Encoding: 310 310 245
Width: 615
Flags: W
LayerCount: 2
Fore
SplineSet
549 0 m 1,0,-1
 352 395 l 1,1,-1
 665 698 l 1,2,-1
 562 698 l 1,3,-1
 194 342 l 1,4,-1
 189 342 l 1,5,-1
 260 698 l 1,6,-1
 179 698 l 1,7,-1
 39 0 l 1,8,-1
 120 0 l 1,9,-1
 165 226 l 1,10,-1
 290 343 l 1,11,-1
 461 0 l 1,12,-1
 549 0 l 1,0,-1
213 -245 m 1,13,14
 266 -197 266 -197 283 -126 c 2,15,-1
 286 -110 l 1,16,-1
 286 -102 l 2,17,18
 286 -67 286 -67 244 -66 c 0,19,20
 198 -66 198 -66 188 -112 c 2,21,-1
 187 -116 l 2,22,23
 185 -130 185 -130 185 -136 c 0,24,25
 185 -164 185 -164 213 -169 c 1,26,27
 204 -189 204 -189 192 -206 c 128,-1,28
 180 -223 180 -223 157 -245 c 1,29,-1
 213 -245 l 1,13,14
EndSplineSet
EndChar

StartChar: u0137
Encoding: 311 311 246
Width: 519
Flags: W
LayerCount: 2
Fore
SplineSet
460 0 m 1,0,-1
 473 68 l 1,1,-1
 407 68 l 1,2,-1
 302 308 l 1,3,-1
 532 516 l 1,4,-1
 439 516 l 1,5,-1
 265 363 l 1,6,-1
 173 275 l 1,7,-1
 168 275 l 1,8,-1
 262 740 l 1,9,-1
 185 740 l 1,10,-1
 36 0 l 1,11,-1
 113 0 l 1,12,-1
 149 181 l 1,13,-1
 240 263 l 1,14,-1
 331 54 l 2,15,16
 343 25 343 25 362 12.5 c 128,-1,17
 381 0 381 0 416 0 c 2,18,-1
 460 0 l 1,0,-1
194 -245 m 1,19,20
 247 -197 247 -197 264 -126 c 2,21,-1
 267 -110 l 1,22,-1
 267 -102 l 2,23,24
 267 -67 267 -67 225 -66 c 0,25,26
 179 -66 179 -66 169 -112 c 2,27,-1
 168 -116 l 2,28,29
 166 -130 166 -130 166 -136 c 0,30,31
 166 -164 166 -164 194 -169 c 1,32,33
 185 -189 185 -189 173 -206 c 128,-1,34
 161 -223 161 -223 138 -245 c 1,35,-1
 194 -245 l 1,19,20
EndSplineSet
EndChar

StartChar: kgreenlandic
Encoding: 312 312 247
Width: 533
Flags: W
LayerCount: 2
Fore
SplineSet
460 0 m 1,0,-1
 473 68 l 1,1,-1
 407 68 l 1,2,-1
 309 292 l 1,3,-1
 557 516 l 1,4,-1
 464 516 l 1,5,-1
 272 347 l 1,6,-1
 167 248 l 1,7,-1
 162 248 l 1,8,-1
 217 516 l 1,9,-1
 140 516 l 1,10,-1
 36 0 l 1,11,-1
 113 0 l 1,12,-1
 143 154 l 1,13,-1
 247 247 l 1,14,-1
 331 54 l 2,15,16
 343 25 343 25 362 12.5 c 128,-1,17
 381 0 381 0 416 0 c 2,18,-1
 460 0 l 1,0,-1
EndSplineSet
EndChar

StartChar: Lacute
Encoding: 313 313 248
Width: 489
Flags: W
LayerCount: 2
Fore
SplineSet
408 0 m 1,0,-1
 422 72 l 1,1,-1
 135 72 l 1,2,-1
 260 698 l 1,3,-1
 179 698 l 1,4,-1
 39 0 l 1,5,-1
 408 0 l 1,0,-1
246 756 m 1,6,-1
 369 914 l 1,7,-1
 301 950 l 1,8,-1
 197 781 l 1,9,-1
 246 756 l 1,6,-1
EndSplineSet
EndChar

StartChar: lacute
Encoding: 314 314 249
Width: 264
Flags: W
LayerCount: 2
Fore
SplineSet
192 0 m 1,0,-1
 205 68 l 1,1,-1
 127 68 l 1,2,-1
 262 740 l 1,3,-1
 185 740 l 1,4,5
 51 72 51 72 51 63 c 0,6,7
 51 35 51 35 68.5 17.5 c 128,-1,8
 86 0 86 0 121 0 c 2,9,-1
 192 0 l 1,0,-1
251 785 m 1,10,-1
 375 944 l 1,11,-1
 307 980 l 1,12,-1
 203 810 l 1,13,-1
 251 785 l 1,10,-1
EndSplineSet
EndChar

StartChar: u013B
Encoding: 315 315 250
Width: 489
Flags: W
LayerCount: 2
Fore
SplineSet
408 0 m 1,0,-1
 422 72 l 1,1,-1
 135 72 l 1,2,-1
 260 698 l 1,3,-1
 179 698 l 1,4,-1
 39 0 l 1,5,-1
 408 0 l 1,0,-1
177 -245 m 1,6,7
 230 -197 230 -197 247 -126 c 2,8,-1
 250 -110 l 1,9,-1
 250 -102 l 2,10,11
 250 -67 250 -67 208 -66 c 0,12,13
 162 -66 162 -66 152 -112 c 2,14,-1
 151 -116 l 2,15,16
 149 -130 149 -130 149 -136 c 0,17,18
 149 -164 149 -164 177 -169 c 1,19,20
 168 -189 168 -189 156 -206 c 128,-1,21
 144 -223 144 -223 121 -245 c 1,22,-1
 177 -245 l 1,6,7
EndSplineSet
EndChar

StartChar: u013C
Encoding: 316 316 251
Width: 264
Flags: W
LayerCount: 2
Fore
SplineSet
192 0 m 1,0,-1
 205 68 l 1,1,-1
 127 68 l 1,2,-1
 262 740 l 1,3,-1
 185 740 l 1,4,5
 51 72 51 72 51 63 c 0,6,7
 51 35 51 35 68.5 17.5 c 128,-1,8
 86 0 86 0 121 0 c 2,9,-1
 192 0 l 1,0,-1
70 -245 m 1,10,11
 123 -197 123 -197 140 -126 c 2,12,-1
 143 -110 l 1,13,-1
 143 -102 l 2,14,15
 143 -67 143 -67 101 -66 c 0,16,17
 55 -66 55 -66 45 -112 c 2,18,-1
 44 -116 l 2,19,20
 42 -130 42 -130 42 -136 c 0,21,22
 42 -164 42 -164 70 -169 c 1,23,24
 61 -189 61 -189 49 -206 c 128,-1,25
 37 -223 37 -223 14 -245 c 1,26,-1
 70 -245 l 1,10,11
EndSplineSet
EndChar

StartChar: Lcaron
Encoding: 317 317 252
Width: 489
Flags: W
LayerCount: 2
Fore
SplineSet
408 0 m 1,0,-1
 422 72 l 1,1,-1
 135 72 l 1,2,-1
 260 698 l 1,3,-1
 179 698 l 1,4,-1
 39 0 l 1,5,-1
 408 0 l 1,0,-1
368 555 m 1,6,-1
 443 740 l 1,7,-1
 350 740 l 1,8,-1
 315 555 l 1,9,-1
 368 555 l 1,6,-1
EndSplineSet
EndChar

StartChar: lcaron
Encoding: 318 318 253
Width: 264
Flags: W
LayerCount: 2
Fore
SplineSet
192 0 m 1,0,-1
 205 68 l 1,1,-1
 127 68 l 1,2,-1
 262 740 l 1,3,-1
 185 740 l 1,4,5
 51 72 51 72 51 63 c 0,6,7
 51 35 51 35 68.5 17.5 c 128,-1,8
 86 0 86 0 121 0 c 2,9,-1
 192 0 l 1,0,-1
347 555 m 1,10,-1
 422 740 l 1,11,-1
 329 740 l 1,12,-1
 294 555 l 1,13,-1
 347 555 l 1,10,-1
EndSplineSet
EndChar

StartChar: Ldot
Encoding: 319 319 254
Width: 489
Flags: W
LayerCount: 2
Fore
SplineSet
408 0 m 1,0,-1
 422 72 l 1,1,-1
 135 72 l 1,2,-1
 260 698 l 1,3,-1
 179 698 l 1,4,-1
 39 0 l 1,5,-1
 408 0 l 1,0,-1
376 290 m 0,6,7
 423 290 423 290 432 337 c 0,8,9
 435 354 435 354 435 358 c 0,10,11
 435 393 435 393 393 393 c 0,12,13
 347 393 347 393 337 346 c 0,14,15
 334 335 334 335 334 325 c 0,16,17
 334 291 334 291 376 290 c 0,6,7
EndSplineSet
EndChar

StartChar: ldot
Encoding: 320 320 255
Width: 338
Flags: W
LayerCount: 2
Fore
SplineSet
192 0 m 1,0,-1
 205 68 l 1,1,-1
 127 68 l 1,2,-1
 262 740 l 1,3,-1
 185 740 l 1,4,5
 51 72 51 72 51 63 c 0,6,7
 51 35 51 35 68.5 17.5 c 128,-1,8
 86 0 86 0 121 0 c 2,9,-1
 192 0 l 1,0,-1
298 254 m 0,10,11
 345 254 345 254 354 301 c 0,12,13
 357 318 357 318 357 322 c 0,14,15
 357 357 357 357 315 357 c 0,16,17
 269 357 269 357 259 310 c 0,18,19
 256 299 256 299 256 289 c 0,20,21
 256 255 256 255 298 254 c 0,10,11
EndSplineSet
EndChar

StartChar: Lslash
Encoding: 321 321 256
Width: 498
Flags: W
LayerCount: 2
Fore
SplineSet
412 0 m 1,0,-1
 427 72 l 1,1,-1
 139 72 l 1,2,-1
 183 296 l 1,3,-1
 370 355 l 1,4,-1
 384 429 l 1,5,-1
 198 368 l 1,6,-1
 264 698 l 1,7,-1
 183 698 l 1,8,-1
 111 340 l 1,9,-1
 5 306 l 1,10,-1
 -8 236 l 1,11,-1
 97 269 l 1,12,-1
 43 0 l 1,13,-1
 412 0 l 1,0,-1
EndSplineSet
EndChar

StartChar: lslash
Encoding: 322 322 257
Width: 272
Flags: W
LayerCount: 2
Fore
SplineSet
187 0 m 1,0,-1
 200 68 l 1,1,-1
 122 68 l 1,2,-1
 179 353 l 1,3,-1
 289 388 l 1,4,-1
 302 457 l 1,5,-1
 192 420 l 1,6,-1
 257 740 l 1,7,-1
 180 740 l 1,8,-1
 110 393 l 1,9,-1
 42 371 l 1,10,-1
 29 304 l 1,11,-1
 96 325 l 1,12,13
 46 72 46 72 46 63 c 0,14,15
 46 35 46 35 63.5 17.5 c 128,-1,16
 81 0 81 0 116 0 c 2,17,-1
 187 0 l 1,0,-1
EndSplineSet
EndChar

StartChar: Nacute
Encoding: 323 323 258
Width: 684
Flags: W
LayerCount: 2
Fore
SplineSet
541 0 m 1,0,-1
 681 698 l 1,1,-1
 602 698 l 1,2,-1
 485 111 l 1,3,-1
 480 111 l 1,4,-1
 425 278 l 1,5,-1
 273 698 l 1,6,-1
 179 698 l 1,7,-1
 39 0 l 1,8,-1
 118 0 l 1,9,-1
 235 587 l 1,10,-1
 240 587 l 1,11,-1
 295 420 l 1,12,-1
 447 0 l 1,13,-1
 541 0 l 1,0,-1
456 756 m 1,14,-1
 579 914 l 1,15,-1
 511 950 l 1,16,-1
 407 781 l 1,17,-1
 456 756 l 1,14,-1
EndSplineSet
EndChar

StartChar: nacute
Encoding: 324 324 259
Width: 565
Flags: W
LayerCount: 2
Fore
SplineSet
495 0 m 1,0,-1
 508 68 l 1,1,-1
 435 68 l 1,2,-1
 485 318 l 2,3,4
 492 357 492 357 492 385 c 0,5,6
 492 452 492 452 459 490 c 128,-1,7
 426 528 426 528 359 528 c 0,8,9
 303 528 303 528 265 500 c 128,-1,10
 227 472 227 472 201 414 c 1,11,-1
 196 414 l 1,12,-1
 217 516 l 1,13,-1
 140 516 l 1,14,-1
 36 0 l 1,15,-1
 113 0 l 1,16,-1
 171 288 l 2,17,18
 177 319 177 319 195 355 c 0,19,20
 207 380 207 380 226 403.5 c 128,-1,21
 245 427 245 427 271.5 442.5 c 128,-1,22
 298 458 298 458 334 458 c 0,23,24
 376 458 376 458 394.5 436.5 c 128,-1,25
 413 415 413 415 413 371 c 0,26,27
 413 331 413 331 359 76 c 0,28,29
 358 71 358 71 358 58 c 0,30,31
 358 0 358 0 422 0 c 2,32,-1
 495 0 l 1,0,-1
362 585 m 1,33,-1
 486 744 l 1,34,-1
 418 780 l 1,35,-1
 314 610 l 1,36,-1
 362 585 l 1,33,-1
EndSplineSet
EndChar

StartChar: u0145
Encoding: 325 325 260
Width: 684
Flags: W
LayerCount: 2
Fore
SplineSet
541 0 m 1,0,-1
 681 698 l 1,1,-1
 602 698 l 1,2,-1
 485 111 l 1,3,-1
 480 111 l 1,4,-1
 425 278 l 1,5,-1
 273 698 l 1,6,-1
 179 698 l 1,7,-1
 39 0 l 1,8,-1
 118 0 l 1,9,-1
 235 587 l 1,10,-1
 240 587 l 1,11,-1
 295 420 l 1,12,-1
 447 0 l 1,13,-1
 541 0 l 1,0,-1
244 -245 m 1,14,15
 297 -197 297 -197 314 -126 c 2,16,-1
 317 -110 l 1,17,-1
 317 -102 l 2,18,19
 317 -67 317 -67 275 -66 c 0,20,21
 229 -66 229 -66 219 -112 c 2,22,-1
 218 -116 l 2,23,24
 216 -130 216 -130 216 -136 c 0,25,26
 216 -164 216 -164 244 -169 c 1,27,28
 235 -189 235 -189 223 -206 c 128,-1,29
 211 -223 211 -223 188 -245 c 1,30,-1
 244 -245 l 1,14,15
EndSplineSet
EndChar

StartChar: u0146
Encoding: 326 326 261
Width: 565
Flags: W
LayerCount: 2
Fore
SplineSet
495 0 m 1,0,-1
 508 68 l 1,1,-1
 435 68 l 1,2,-1
 485 318 l 2,3,4
 492 357 492 357 492 385 c 0,5,6
 492 452 492 452 459 490 c 128,-1,7
 426 528 426 528 359 528 c 0,8,9
 303 528 303 528 265 500 c 128,-1,10
 227 472 227 472 201 414 c 1,11,-1
 196 414 l 1,12,-1
 217 516 l 1,13,-1
 140 516 l 1,14,-1
 36 0 l 1,15,-1
 113 0 l 1,16,-1
 171 288 l 2,17,18
 177 319 177 319 195 355 c 0,19,20
 207 380 207 380 226 403.5 c 128,-1,21
 245 427 245 427 271.5 442.5 c 128,-1,22
 298 458 298 458 334 458 c 0,23,24
 376 458 376 458 394.5 436.5 c 128,-1,25
 413 415 413 415 413 371 c 0,26,27
 413 331 413 331 359 76 c 0,28,29
 358 71 358 71 358 58 c 0,30,31
 358 0 358 0 422 0 c 2,32,-1
 495 0 l 1,0,-1
205 -245 m 1,33,34
 258 -197 258 -197 275 -126 c 2,35,-1
 278 -110 l 1,36,-1
 278 -102 l 2,37,38
 278 -67 278 -67 236 -66 c 0,39,40
 190 -66 190 -66 180 -112 c 2,41,-1
 179 -116 l 2,42,43
 177 -130 177 -130 177 -136 c 0,44,45
 177 -164 177 -164 205 -169 c 1,46,47
 196 -189 196 -189 184 -206 c 128,-1,48
 172 -223 172 -223 149 -245 c 1,49,-1
 205 -245 l 1,33,34
EndSplineSet
EndChar

StartChar: Ncaron
Encoding: 327 327 262
Width: 684
Flags: W
LayerCount: 2
Fore
SplineSet
541 0 m 1,0,-1
 681 698 l 1,1,-1
 602 698 l 1,2,-1
 485 111 l 1,3,-1
 480 111 l 1,4,-1
 425 278 l 1,5,-1
 273 698 l 1,6,-1
 179 698 l 1,7,-1
 39 0 l 1,8,-1
 118 0 l 1,9,-1
 235 587 l 1,10,-1
 240 587 l 1,11,-1
 295 420 l 1,12,-1
 447 0 l 1,13,-1
 541 0 l 1,0,-1
494 769 m 1,14,-1
 633 912 l 1,15,-1
 592 944 l 1,16,-1
 452 827 l 1,17,-1
 362 943 l 1,18,-1
 318 912 l 1,19,-1
 400 769 l 1,20,-1
 494 769 l 1,14,-1
EndSplineSet
EndChar

StartChar: ncaron
Encoding: 328 328 263
Width: 565
Flags: W
LayerCount: 2
Fore
SplineSet
495 0 m 1,0,-1
 508 68 l 1,1,-1
 435 68 l 1,2,-1
 485 318 l 2,3,4
 492 357 492 357 492 385 c 0,5,6
 492 452 492 452 459 490 c 128,-1,7
 426 528 426 528 359 528 c 0,8,9
 303 528 303 528 265 500 c 128,-1,10
 227 472 227 472 201 414 c 1,11,-1
 196 414 l 1,12,-1
 217 516 l 1,13,-1
 140 516 l 1,14,-1
 36 0 l 1,15,-1
 113 0 l 1,16,-1
 171 288 l 2,17,18
 177 319 177 319 195 355 c 0,19,20
 207 380 207 380 226 403.5 c 128,-1,21
 245 427 245 427 271.5 442.5 c 128,-1,22
 298 458 298 458 334 458 c 0,23,24
 376 458 376 458 394.5 436.5 c 128,-1,25
 413 415 413 415 413 371 c 0,26,27
 413 331 413 331 359 76 c 0,28,29
 358 71 358 71 358 58 c 0,30,31
 358 0 358 0 422 0 c 2,32,-1
 495 0 l 1,0,-1
399 599 m 1,33,-1
 537 742 l 1,34,-1
 496 774 l 1,35,-1
 356 657 l 1,36,-1
 266 773 l 1,37,-1
 222 742 l 1,38,-1
 304 599 l 1,39,-1
 399 599 l 1,33,-1
EndSplineSet
EndChar

StartChar: napostrophe
Encoding: 329 329 264
Width: 806
Flags: W
LayerCount: 2
Fore
SplineSet
165 500 m 1,0,1
 215 539 215 539 245 589 c 0,2,3
 285 658 285 658 285 710 c 0,4,5
 285 750 285 750 236 750 c 0,6,7
 165 750 165 750 165 664 c 0,8,9
 165 636 165 636 198 627 c 1,10,11
 170 562 170 562 100 500 c 1,12,-1
 165 500 l 1,0,1
736 0 m 1,13,-1
 749 68 l 1,14,-1
 676 68 l 1,15,-1
 726 318 l 2,16,17
 733 357 733 357 733 385 c 0,18,19
 733 452 733 452 700 490 c 128,-1,20
 667 528 667 528 600 528 c 0,21,22
 544 528 544 528 506 500 c 128,-1,23
 468 472 468 472 442 414 c 1,24,-1
 437 414 l 1,25,-1
 458 516 l 1,26,-1
 381 516 l 1,27,-1
 277 0 l 1,28,-1
 354 0 l 1,29,-1
 412 288 l 2,30,31
 418 319 418 319 436 355 c 0,32,33
 448 380 448 380 467 403.5 c 128,-1,34
 486 427 486 427 512.5 442.5 c 128,-1,35
 539 458 539 458 575 458 c 0,36,37
 617 458 617 458 635.5 436.5 c 128,-1,38
 654 415 654 415 654 371 c 0,39,40
 654 331 654 331 600 76 c 0,41,42
 599 71 599 71 599 58 c 0,43,44
 599 0 599 0 663 0 c 2,45,-1
 736 0 l 1,13,-1
EndSplineSet
EndChar

StartChar: Eng
Encoding: 330 330 265
Width: 684
Flags: W
LayerCount: 2
Fore
SplineSet
407 -200 m 2,0,1
 460 -200 460 -200 485.5 -175.5 c 128,-1,2
 511 -151 511 -151 521 -98 c 2,3,-1
 681 698 l 1,4,-1
 602 698 l 1,5,-1
 485 111 l 1,6,-1
 480 111 l 1,7,-1
 425 278 l 1,8,-1
 273 698 l 1,9,-1
 179 698 l 1,10,-1
 39 0 l 1,11,-1
 118 0 l 1,12,-1
 235 587 l 1,13,-1
 240 587 l 1,14,-1
 295 420 l 1,15,-1
 447 0 l 1,16,-1
 462 0 l 1,17,-1
 436 -130 l 1,18,-1
 354 -130 l 1,19,-1
 340 -200 l 1,20,-1
 407 -200 l 2,0,1
EndSplineSet
EndChar

StartChar: eng
Encoding: 331 331 266
Width: 561
Flags: W
LayerCount: 2
Fore
SplineSet
288 -200 m 2,0,1
 341 -200 341 -200 366.5 -175.5 c 128,-1,2
 392 -151 392 -151 402 -98 c 2,3,-1
 485 318 l 2,4,5
 492 357 492 357 492 385 c 0,6,7
 492 452 492 452 459 490 c 128,-1,8
 426 528 426 528 359 528 c 0,9,10
 303 528 303 528 265 500 c 128,-1,11
 227 472 227 472 201 414 c 1,12,-1
 196 414 l 1,13,-1
 217 516 l 1,14,-1
 140 516 l 1,15,-1
 36 0 l 1,16,-1
 113 0 l 1,17,-1
 171 288 l 2,18,19
 177 319 177 319 195 355 c 0,20,21
 207 380 207 380 226 403.5 c 128,-1,22
 245 427 245 427 271.5 442.5 c 128,-1,23
 298 458 298 458 334 458 c 0,24,25
 376 458 376 458 394.5 436.5 c 128,-1,26
 413 415 413 415 413 371 c 0,27,28
 413 353 413 353 408 318 c 2,29,-1
 318 -132 l 1,30,-1
 235 -132 l 1,31,-1
 221 -200 l 1,32,-1
 288 -200 l 2,0,1
EndSplineSet
EndChar

StartChar: Omacron
Encoding: 332 332 267
Width: 679
Flags: W
LayerCount: 2
Fore
SplineSet
298 -12 m 0,0,1
 381 -12 381 -12 446.5 25.5 c 128,-1,2
 512 63 512 63 558 127 c 0,3,4
 652 264 652 264 652 438 c 0,5,6
 652 567 652 567 583 640 c 0,7,8
 513 710 513 710 409 710 c 0,9,10
 326 710 326 710 260.5 672.5 c 128,-1,11
 195 635 195 635 149 572 c 0,12,13
 55 434 55 434 55 260 c 0,14,15
 55 128 55 128 125 58 c 128,-1,16
 195 -12 195 -12 298 -12 c 0,0,1
306 61 m 0,17,18
 225 61 225 61 180 108.5 c 128,-1,19
 135 156 135 156 135 236 c 0,20,21
 135 266 135 266 142 305 c 2,22,-1
 162 405 l 2,23,24
 184 515 184 515 246 576 c 128,-1,25
 308 637 308 637 401 637 c 0,26,27
 482 637 482 637 527 589.5 c 128,-1,28
 572 542 572 542 572 462 c 0,29,30
 572 432 572 432 565 393 c 2,31,-1
 545 293 l 2,32,33
 523 183 523 183 461 122 c 128,-1,34
 399 61 399 61 306 61 c 0,17,18
562 809 m 1,35,-1
 576 875 l 1,36,-1
 304 875 l 1,37,-1
 290 809 l 1,38,-1
 562 809 l 1,35,-1
EndSplineSet
EndChar

StartChar: omacron
Encoding: 333 333 268
Width: 550
Flags: W
LayerCount: 2
Fore
SplineSet
235 -12 m 0,0,1
 294 -12 294 -12 343 14.5 c 128,-1,2
 392 41 392 41 427 87 c 0,3,4
 501 186 501 186 501 316 c 0,5,6
 501 420 501 420 449 475 c 0,7,8
 395 528 395 528 315 528 c 0,9,10
 256 528 256 528 207 501.5 c 128,-1,11
 158 475 158 475 123 429 c 0,12,13
 49 331 49 331 49 200 c 0,14,15
 49 98 49 98 101 43 c 128,-1,16
 153 -12 153 -12 235 -12 c 0,0,1
245 57 m 0,17,18
 186 57 186 57 155.5 90.5 c 128,-1,19
 125 124 125 124 125 178 c 0,20,21
 125 198 125 198 130 223 c 2,22,-1
 145 298 l 2,23,24
 162 377 162 377 205.5 418 c 128,-1,25
 249 459 249 459 305 459 c 0,26,27
 364 459 364 459 394.5 425.5 c 128,-1,28
 425 392 425 392 425 338 c 0,29,30
 425 319 425 319 420 293 c 2,31,-1
 405 218 l 2,32,33
 388 139 388 139 344.5 98 c 128,-1,34
 301 57 301 57 245 57 c 0,17,18
474 639 m 1,35,-1
 488 705 l 1,36,-1
 216 705 l 1,37,-1
 202 639 l 1,38,-1
 474 639 l 1,35,-1
EndSplineSet
EndChar

